SplineFontDB: 3.2
FontName: UbuntuMono-BoldItalic
FullName: Ubuntu Mono Bold Italic
FamilyName: Ubuntu Mono
Weight: Bold
Copyright: Copyright 2011 Canonical Ltd.  Licensed under the Ubuntu Font Licence 1.0
Version: 0.80
ItalicAngle: -13
UnderlinePosition: -133
UnderlineWidth: 20
Ascent: 800
Descent: 200
InvalidEm: 0
sfntRevision: 0x0000cccc
LayerCount: 2
Layer: 0 1 "Back" 1
Layer: 1 1 "Fore" 0
XUID: [1021 235 -1216451338 11848503]
StyleMap: 0x0021
FSType: 0
OS2Version: 3
OS2_WeightWidthSlopeOnly: 0
OS2_UseTypoMetrics: 0
CreationTime: 1304432203
ModificationTime: 1640508897
PfmFamily: 17
TTFWeight: 700
TTFWidth: 5
LineGap: 0
VLineGap: 0
Panose: 2 11 8 9 3 6 2 10 2 4
OS2TypoAscent: 693
OS2TypoAOffset: 0
OS2TypoDescent: -165
OS2TypoDOffset: 0
OS2TypoLinegap: 49
OS2WinAscent: 830
OS2WinAOffset: 0
OS2WinDescent: 170
OS2WinDOffset: 0
HheadAscent: 830
HheadAOffset: 0
HheadDescent: -170
HheadDOffset: 0
OS2SubXSize: 700
OS2SubYSize: 650
OS2SubXOff: 0
OS2SubYOff: 140
OS2SupXSize: 700
OS2SupYSize: 650
OS2SupXOff: 0
OS2SupYOff: 477
OS2StrikeYSize: 50
OS2StrikeYPos: 250
OS2CapHeight: 693
OS2XHeight: 520
OS2Vendor: 'DAMA'
OS2CodePages: 2000009f.00000000
OS2UnicodeRanges: e00002ff.5000385b.00000000.00000000
Lookup: 1 0 0 "'locl' Localized Forms in Latin lookup 0" { "'locl' Localized Forms in Latin lookup 0 subtable"  } ['locl' ('latn' <'AZE ' > ) ]
Lookup: 1 0 0 "'locl' Localized Forms in Latin lookup 1" { "'locl' Localized Forms in Latin lookup 1 subtable"  } ['locl' ('latn' <'TRK ' > ) ]
Lookup: 1 0 0 "'locl' Localized Forms in Latin lookup 2" { "'locl' Localized Forms in Latin lookup 2 subtable"  } ['locl' ('latn' <'CRT ' > ) ]
Lookup: 1 0 0 "'locl' Localized Forms in Cyrillic lookup 3" { "'locl' Localized Forms in Cyrillic lookup 3 subtable"  } ['locl' ('cyrl' <'SRB ' > ) ]
Lookup: 1 0 0 "'locl' Localized Forms in Cyrillic lookup 4" { "'locl' Localized Forms in Cyrillic lookup 4 subtable"  } ['locl' ('cyrl' <'BGR ' > ) ]

StartChar: .notdef
Encoding: 65536 -1 0
Width: 500
Flags: W
LayerCount: 2
Fore
SplineSet
50 0 m 1,0,-1
 50 750 l 1,1,-1
 450 750 l 1,2,-1
 450 0 l 1,3,-1
 50 0 l 1,0,-1
400 50 m 1,4,-1
 400 700 l 1,5,-1
 100 700 l 1,6,-1
 100 50 l 1,7,-1
 400 50 l 1,4,-1
EndSplineSet
EndChar

StartChar: exclam
Encoding: 33 33 4
Width: 500
Flags: W
LayerCount: 2
Fore
SplineSet
405 452 m 2,0,1
 396 416 396 416 388 387 c 128,-1,2
 380 358 380 358 371 332 c 128,-1,3
 362 306 362 306 352 280.5 c 128,-1,4
 342 255 342 255 330 225 c 1,5,-1
 228 225 l 1,6,7
 231 259 231 259 234.5 288.5 c 128,-1,8
 238 318 238 318 242 346 c 128,-1,9
 246 374 246 374 251.5 401.5 c 128,-1,10
 257 429 257 429 265 459 c 2,11,-1
 303 619 l 1,12,-1
 445 619 l 1,13,-1
 405 452 l 2,0,1
255 155 m 0,14,15
 287 155 287 155 308 136.5 c 128,-1,16
 329 118 329 118 329 81 c 0,17,18
 329 61 329 61 321.5 44 c 128,-1,19
 314 27 314 27 301.5 14.5 c 128,-1,20
 289 2 289 2 273 -5 c 128,-1,21
 257 -12 257 -12 239 -12 c 0,22,23
 208 -12 208 -12 186.5 7 c 128,-1,24
 165 26 165 26 165 63 c 0,25,26
 165 84 165 84 172.5 101 c 128,-1,27
 180 118 180 118 192.5 130 c 128,-1,28
 205 142 205 142 221.5 148.5 c 128,-1,29
 238 155 238 155 255 155 c 0,14,15
EndSplineSet
EndChar

StartChar: quotedbl
Encoding: 34 34 5
Width: 500
Flags: W
LayerCount: 2
Fore
SplineSet
358 679 m 1,0,-1
 343 616 l 2,1,2
 338 593 338 593 329 565.5 c 128,-1,3
 320 538 320 538 309 509 c 128,-1,4
 298 480 298 480 286 451.5 c 128,-1,5
 274 423 274 423 263 398 c 1,6,-1
 193 398 l 1,7,8
 194 423 194 423 195.5 453.5 c 128,-1,9
 197 484 197 484 200 515.5 c 128,-1,10
 203 547 203 547 207.5 577 c 128,-1,11
 212 607 212 607 218 632 c 2,12,-1
 228 679 l 1,13,-1
 358 679 l 1,0,-1
555 679 m 1,14,-1
 541 616 l 2,15,16
 536 593 536 593 527 565.5 c 128,-1,17
 518 538 518 538 507 509 c 128,-1,18
 496 480 496 480 484 451.5 c 128,-1,19
 472 423 472 423 460 398 c 1,20,-1
 390 398 l 1,21,22
 391 423 391 423 393 453.5 c 128,-1,23
 395 484 395 484 398 515.5 c 128,-1,24
 401 547 401 547 405 577 c 128,-1,25
 409 607 409 607 415 632 c 2,26,-1
 426 679 l 1,27,-1
 555 679 l 1,14,-1
EndSplineSet
EndChar

StartChar: numbersign
Encoding: 35 35 6
Width: 500
Flags: W
LayerCount: 2
Fore
SplineSet
220 467 m 1,0,-1
 281 619 l 1,1,-1
 381 619 l 1,2,-1
 320 467 l 1,3,-1
 403 467 l 1,4,-1
 464 619 l 1,5,-1
 564 619 l 1,6,-1
 502 467 l 1,7,-1
 567 467 l 1,8,-1
 543 367 l 1,9,-1
 463 367 l 1,10,-1
 417 253 l 1,11,-1
 515 253 l 1,12,-1
 491 153 l 1,13,-1
 377 153 l 1,14,-1
 315 0 l 1,15,-1
 215 0 l 1,16,-1
 277 153 l 1,17,-1
 193 153 l 1,18,-1
 132 0 l 1,19,-1
 32 0 l 1,20,-1
 93 153 l 1,21,-1
 33 153 l 1,22,-1
 57 253 l 1,23,-1
 134 253 l 1,24,-1
 180 367 l 1,25,-1
 85 367 l 1,26,-1
 109 467 l 1,27,-1
 220 467 l 1,0,-1
234 253 m 1,28,-1
 317 253 l 1,29,-1
 363 367 l 1,30,-1
 280 367 l 1,31,-1
 234 253 l 1,28,-1
EndSplineSet
EndChar

StartChar: dollar
Encoding: 36 36 7
Width: 500
Flags: W
LayerCount: 2
Fore
SplineSet
236 108 m 0,0,1
 256 108 256 108 276.5 110.5 c 128,-1,2
 297 113 297 113 313.5 120.5 c 128,-1,3
 330 128 330 128 340 142 c 128,-1,4
 350 156 350 156 350 179 c 0,5,6
 350 195 350 195 343.5 206.5 c 128,-1,7
 337 218 337 218 326 227.5 c 128,-1,8
 315 237 315 237 300.5 245 c 128,-1,9
 286 253 286 253 270 261 c 0,10,11
 232 279 232 279 207 298 c 128,-1,12
 182 317 182 317 166.5 337.5 c 128,-1,13
 151 358 151 358 144.5 381.5 c 128,-1,14
 138 405 138 405 138 432 c 0,15,16
 138 462 138 462 149 490 c 128,-1,17
 160 518 160 518 182.5 540.5 c 128,-1,18
 205 563 205 563 239.5 579 c 128,-1,19
 274 595 274 595 322 600 c 1,20,-1
 346 693 l 1,21,-1
 449 693 l 1,22,-1
 425 598 l 1,23,24
 460 590 460 590 489 579 c 128,-1,25
 518 568 518 568 536 557 c 1,26,-1
 487 469 l 1,27,28
 462 486 462 486 429 495 c 128,-1,29
 396 504 396 504 364 504 c 0,30,31
 323 504 323 504 293 487.5 c 128,-1,32
 263 471 263 471 263 438 c 0,33,34
 263 413 263 413 280 395 c 128,-1,35
 297 377 297 377 342 355 c 0,36,37
 367 342 367 342 391 327 c 128,-1,38
 415 312 415 312 433.5 292.5 c 128,-1,39
 452 273 452 273 463 247.5 c 128,-1,40
 474 222 474 222 474 188 c 0,41,42
 474 106 474 106 422 62 c 128,-1,43
 370 18 370 18 285 10 c 1,44,-1
 260 -97 l 1,45,-1
 156 -97 l 1,46,-1
 182 11 l 1,47,48
 135 18 135 18 100 32.5 c 128,-1,49
 65 47 65 47 47 58 c 1,50,-1
 97 150 l 1,51,52
 119 136 119 136 156 122 c 128,-1,53
 193 108 193 108 236 108 c 0,0,1
EndSplineSet
EndChar

StartChar: percent
Encoding: 37 37 8
Width: 500
Flags: W
LayerCount: 2
Fore
SplineSet
94 0 m 1,0,-1
 4 0 l 1,1,-1
 522 619 l 1,2,-1
 611 619 l 1,3,-1
 94 0 l 1,0,-1
193 399 m 0,4,5
 208 399 208 399 218.5 413.5 c 128,-1,6
 229 428 229 428 236.5 447.5 c 128,-1,7
 244 467 244 467 247.5 487.5 c 128,-1,8
 251 508 251 508 251 520 c 0,9,10
 251 542 251 542 243 549 c 128,-1,11
 235 556 235 556 227 556 c 0,12,13
 212 556 212 556 201.5 541.5 c 128,-1,14
 191 527 191 527 183.5 507.5 c 128,-1,15
 176 488 176 488 172.5 468 c 128,-1,16
 169 448 169 448 169 436 c 0,17,18
 169 413 169 413 176.5 406 c 128,-1,19
 184 399 184 399 193 399 c 0,4,5
179 322 m 0,20,21
 141 322 141 322 116.5 349.5 c 128,-1,22
 92 377 92 377 92 422 c 0,23,24
 92 453 92 453 100 490 c 128,-1,25
 108 527 108 527 125.5 558.5 c 128,-1,26
 143 590 143 590 171.5 611.5 c 128,-1,27
 200 633 200 633 241 633 c 0,28,29
 279 633 279 633 303.5 605.5 c 128,-1,30
 328 578 328 578 328 533 c 0,31,32
 328 502 328 502 320 465.5 c 128,-1,33
 312 429 312 429 294.5 397 c 128,-1,34
 277 365 277 365 248.5 343.5 c 128,-1,35
 220 322 220 322 179 322 c 0,20,21
422 220 m 0,36,37
 407 220 407 220 396.5 205.5 c 128,-1,38
 386 191 386 191 378.5 171.5 c 128,-1,39
 371 152 371 152 367.5 131.5 c 128,-1,40
 364 111 364 111 364 99 c 0,41,42
 364 77 364 77 372 70 c 128,-1,43
 380 63 380 63 388 63 c 0,44,45
 403 63 403 63 414 77 c 128,-1,46
 425 91 425 91 432.5 110.5 c 128,-1,47
 440 130 440 130 443.5 150.5 c 128,-1,48
 447 171 447 171 447 183 c 0,49,50
 447 206 447 206 439 213 c 128,-1,51
 431 220 431 220 422 220 c 0,36,37
437 296 m 0,52,53
 475 296 475 296 499 268.5 c 128,-1,54
 523 241 523 241 523 196 c 0,55,56
 523 165 523 165 515 128.5 c 128,-1,57
 507 92 507 92 489.5 60.5 c 128,-1,58
 472 29 472 29 443.5 7.5 c 128,-1,59
 415 -14 415 -14 374 -14 c 0,60,61
 336 -14 336 -14 312 13.5 c 128,-1,62
 288 41 288 41 288 86 c 0,63,64
 288 117 288 117 296 153.5 c 128,-1,65
 304 190 304 190 321.5 221.5 c 128,-1,66
 339 253 339 253 367.5 274.5 c 128,-1,67
 396 296 396 296 437 296 c 0,52,53
EndSplineSet
EndChar

StartChar: ampersand
Encoding: 38 38 9
Width: 500
Flags: W
LayerCount: 2
Fore
SplineSet
384 216 m 1,0,1
 400 240 400 240 411.5 270 c 128,-1,2
 423 300 423 300 433 332 c 1,3,-1
 525 321 l 1,4,5
 510 257 510 257 484.5 212.5 c 128,-1,6
 459 168 459 168 436 136 c 1,7,8
 449 109 449 109 462 75.5 c 128,-1,9
 475 42 475 42 486 0 c 1,10,-1
 373 0 l 1,11,12
 368 20 368 20 364.5 31.5 c 128,-1,13
 361 43 361 43 356 57 c 1,14,15
 318 21 318 21 275.5 6 c 128,-1,16
 233 -9 233 -9 188 -9 c 0,17,18
 151 -9 151 -9 124 2 c 128,-1,19
 97 13 97 13 79.5 31.5 c 128,-1,20
 62 50 62 50 53.5 75 c 128,-1,21
 45 100 45 100 45 129 c 0,22,23
 45 162 45 162 53.5 188.5 c 128,-1,24
 62 215 62 215 78.5 238 c 128,-1,25
 95 261 95 261 120 282.5 c 128,-1,26
 145 304 145 304 177 327 c 2,27,-1
 188 335 l 1,28,29
 175 359 175 359 167.5 384.5 c 128,-1,30
 160 410 160 410 160 436 c 0,31,32
 160 481 160 481 174.5 517 c 128,-1,33
 189 553 189 553 214.5 579 c 128,-1,34
 240 605 240 605 275.5 619 c 128,-1,35
 311 633 311 633 352 633 c 0,36,37
 417 633 417 633 449 601.5 c 128,-1,38
 481 570 481 570 481 514 c 0,39,40
 481 492 481 492 474.5 468.5 c 128,-1,41
 468 445 468 445 450.5 419.5 c 128,-1,42
 433 394 433 394 403 367.5 c 128,-1,43
 373 341 373 341 326 313 c 2,44,-1
 321 310 l 1,45,-1
 384 216 l 1,0,1
154 147 m 0,46,47
 154 121 154 121 170.5 102 c 128,-1,48
 187 83 187 83 217 83 c 0,49,50
 243 83 243 83 270.5 97 c 128,-1,51
 298 111 298 111 317 132 c 1,52,53
 303 157 303 157 278.5 193.5 c 128,-1,54
 254 230 254 230 230 266 c 1,55,56
 205 252 205 252 190 236.5 c 128,-1,57
 175 221 175 221 167 205 c 128,-1,58
 159 189 159 189 156.5 174 c 128,-1,59
 154 159 154 159 154 147 c 0,46,47
285 380 m 2,60,61
 341 408 341 408 361.5 441 c 128,-1,62
 382 474 382 474 382 500 c 0,63,64
 382 517 382 517 372.5 529.5 c 128,-1,65
 363 542 363 542 340 542 c 0,66,67
 307 542 307 542 284 516.5 c 128,-1,68
 261 491 261 491 261 447 c 0,69,70
 261 424 261 424 265 408 c 128,-1,71
 269 392 269 392 277 376 c 1,72,-1
 285 380 l 2,60,61
EndSplineSet
EndChar

StartChar: quotesingle
Encoding: 39 39 10
Width: 500
Flags: W
LayerCount: 2
Fore
SplineSet
453 679 m 1,0,-1
 434 601 l 2,1,2
 422 551 422 551 398.5 491.5 c 128,-1,3
 375 432 375 432 352 380 c 1,4,-1
 280 380 l 1,5,6
 281 406 281 406 283 437 c 128,-1,7
 285 468 285 468 288 499.5 c 128,-1,8
 291 531 291 531 295.5 561.5 c 128,-1,9
 300 592 300 592 306 617 c 2,10,-1
 321 679 l 1,11,-1
 453 679 l 1,0,-1
EndSplineSet
EndChar

StartChar: parenleft
Encoding: 40 40 11
Width: 500
Flags: W
LayerCount: 2
Fore
SplineSet
536 623 m 1,0,1
 469 581 469 581 416.5 526.5 c 128,-1,2
 364 472 364 472 327.5 411.5 c 128,-1,3
 291 351 291 351 271.5 288 c 128,-1,4
 252 225 252 225 252 166 c 0,5,6
 252 90 252 90 275 27.5 c 128,-1,7
 298 -35 298 -35 357 -97 c 1,8,-1
 283 -170 l 1,9,10
 251 -143 251 -143 224 -106.5 c 128,-1,11
 197 -70 197 -70 177.5 -28 c 128,-1,12
 158 14 158 14 147 61 c 128,-1,13
 136 108 136 108 136 157 c 0,14,15
 136 248 136 248 163 330.5 c 128,-1,16
 190 413 190 413 238 483.5 c 128,-1,17
 286 554 286 554 351 611.5 c 128,-1,18
 416 669 416 669 491 710 c 1,19,-1
 536 623 l 1,0,1
EndSplineSet
Substitution2: "'case' Case-Sensitive Forms lookup 17 subtable" Parenleft
EndChar

StartChar: parenright
Encoding: 41 41 12
Width: 500
Flags: W
LayerCount: 2
Fore
SplineSet
43 -83 m 1,0,1
 110 -41 110 -41 162.5 13.5 c 128,-1,2
 215 68 215 68 251.5 128.5 c 128,-1,3
 288 189 288 189 307.5 252 c 128,-1,4
 327 315 327 315 327 374 c 0,5,6
 327 450 327 450 303.5 512.5 c 128,-1,7
 280 575 280 575 222 637 c 1,8,-1
 296 710 l 1,9,10
 328 683 328 683 355 646.5 c 128,-1,11
 382 610 382 610 401.5 568 c 128,-1,12
 421 526 421 526 432 479 c 128,-1,13
 443 432 443 432 443 383 c 0,14,15
 443 291 443 291 416 209 c 128,-1,16
 389 127 389 127 341 56.5 c 128,-1,17
 293 -14 293 -14 228 -71.5 c 128,-1,18
 163 -129 163 -129 88 -170 c 1,19,-1
 43 -83 l 1,0,1
EndSplineSet
Substitution2: "'case' Case-Sensitive Forms lookup 17 subtable" Parenright
EndChar

StartChar: asterisk
Encoding: 42 42 13
Width: 500
Flags: W
LayerCount: 2
Fore
SplineSet
329 374 m 1,0,1
 326 362 326 362 320 345 c 128,-1,2
 314 328 314 328 307.5 311 c 128,-1,3
 301 294 301 294 293.5 279 c 128,-1,4
 286 264 286 264 279 254 c 2,5,-1
 260 229 l 1,6,-1
 166 296 l 1,7,-1
 185 321 l 2,8,9
 192 331 192 331 204.5 343 c 128,-1,10
 217 355 217 355 230.5 367 c 128,-1,11
 244 379 244 379 258 389.5 c 128,-1,12
 272 400 272 400 282 407 c 1,13,14
 269 407 269 407 251.5 407 c 128,-1,15
 234 407 234 407 216 408.5 c 128,-1,16
 198 410 198 410 181 413 c 128,-1,17
 164 416 164 416 153 420 c 2,18,-1
 123 430 l 1,19,-1
 160 539 l 1,20,-1
 189 530 l 2,21,22
 201 526 201 526 216 517.5 c 128,-1,23
 231 509 231 509 246 499 c 128,-1,24
 261 489 261 489 275.5 479 c 128,-1,25
 290 469 290 469 300 461 c 1,26,27
 295 473 295 473 290 489.5 c 128,-1,28
 285 506 285 506 281 524 c 128,-1,29
 277 542 277 542 274 559 c 128,-1,30
 271 576 271 576 271 588 c 2,31,-1
 271 619 l 1,32,-1
 387 619 l 1,33,-1
 387 588 l 2,34,35
 387 576 387 576 384 559 c 128,-1,36
 381 542 381 542 376.5 524 c 128,-1,37
 372 506 372 506 366.5 489.5 c 128,-1,38
 361 473 361 473 357 461 c 1,39,40
 367 468 367 468 381.5 478 c 128,-1,41
 396 488 396 488 412 497.5 c 128,-1,42
 428 507 428 507 443 515 c 128,-1,43
 458 523 458 523 470 527 c 2,44,-1
 499 537 l 1,45,-1
 535 426 l 1,46,-1
 505 417 l 2,47,48
 493 413 493 413 476 411 c 128,-1,49
 459 409 459 409 441 407.5 c 128,-1,50
 423 406 423 406 405.5 406 c 128,-1,51
 388 406 388 406 375 406 c 1,52,53
 386 399 386 399 400 388.5 c 128,-1,54
 414 378 414 378 428 366.5 c 128,-1,55
 442 355 442 355 454 343 c 128,-1,56
 466 331 466 331 473 321 c 2,57,-1
 492 296 l 1,58,-1
 398 228 l 1,59,-1
 380 253 l 2,60,61
 373 263 373 263 365.5 278 c 128,-1,62
 358 293 358 293 351 310.5 c 128,-1,63
 344 328 344 328 338 344.5 c 128,-1,64
 332 361 332 361 329 374 c 1,0,1
EndSplineSet
EndChar

StartChar: plus
Encoding: 43 43 14
Width: 500
Flags: W
LayerCount: 2
Fore
SplineSet
92 313 m 1,0,-1
 249 313 l 1,1,-1
 290 487 l 1,2,-1
 396 487 l 1,3,-1
 355 313 l 1,4,-1
 512 313 l 1,5,-1
 487 212 l 1,6,-1
 330 212 l 1,7,-1
 289 38 l 1,8,-1
 183 38 l 1,9,-1
 224 212 l 1,10,-1
 67 212 l 1,11,-1
 92 313 l 1,0,-1
EndSplineSet
EndChar

StartChar: comma
Encoding: 44 44 15
Width: 500
Flags: W
LayerCount: 2
Fore
SplineSet
96 -72 m 1,0,1
 117 -71 117 -71 138 -66.5 c 128,-1,2
 159 -62 159 -62 177.5 -53.5 c 128,-1,3
 196 -45 196 -45 209.5 -34 c 128,-1,4
 223 -23 223 -23 228 -8 c 1,5,6
 198 -4 198 -4 180.5 15.5 c 128,-1,7
 163 35 163 35 163 67 c 0,8,9
 163 110 163 110 191 138.5 c 128,-1,10
 219 167 219 167 261 167 c 0,11,12
 300 167 300 167 319.5 143.5 c 128,-1,13
 339 120 339 120 339 88 c 0,14,15
 339 44 339 44 325 3 c 128,-1,16
 311 -38 311 -38 282 -71 c 128,-1,17
 253 -104 253 -104 208.5 -125.5 c 128,-1,18
 164 -147 164 -147 104 -151 c 1,19,-1
 96 -72 l 1,0,1
EndSplineSet
EndChar

StartChar: hyphen
Encoding: 45 45 16
Width: 500
Flags: W
LayerCount: 2
Fore
SplineSet
168 317 m 1,0,-1
 442 317 l 1,1,-1
 412 196 l 1,2,-1
 139 196 l 1,3,-1
 168 317 l 1,0,-1
EndSplineSet
Substitution2: "'case' Case-Sensitive Forms lookup 17 subtable" Hyphen
EndChar

StartChar: period
Encoding: 46 46 17
Width: 500
Flags: W
LayerCount: 2
Fore
SplineSet
259 167 m 0,0,1
 294 167 294 167 316.5 147 c 128,-1,2
 339 127 339 127 339 88 c 0,3,4
 339 66 339 66 331 47.5 c 128,-1,5
 323 29 323 29 309.5 16 c 128,-1,6
 296 3 296 3 278.5 -4.5 c 128,-1,7
 261 -12 261 -12 243 -12 c 0,8,9
 208 -12 208 -12 185.5 8 c 128,-1,10
 163 28 163 28 163 68 c 0,11,12
 163 90 163 90 171 108 c 128,-1,13
 179 126 179 126 192.5 139 c 128,-1,14
 206 152 206 152 223.5 159.5 c 128,-1,15
 241 167 241 167 259 167 c 0,0,1
EndSplineSet
EndChar

StartChar: slash
Encoding: 47 47 18
Width: 500
Flags: W
LayerCount: 2
Fore
SplineSet
118 -165 m 1,0,-1
 -11 -165 l 1,1,-1
 451 699 l 1,2,-1
 580 699 l 1,3,-1
 118 -165 l 1,0,-1
EndSplineSet
Substitution2: "'case' Case-Sensitive Forms lookup 17 subtable" Slash
Substitution2: "'ss02' Style Set 2 lookup 14 subtable" fraction
Substitution2: "'frac' Diagonal Fractions lookup 12 subtable" fraction
EndChar

StartChar: zero
Encoding: 48 48 19
Width: 500
Flags: W
LayerCount: 2
Fore
SplineSet
366 633 m 0,0,1
 446 633 446 633 491 581 c 128,-1,2
 536 529 536 529 536 441 c 0,3,4
 536 402 536 402 530 353 c 128,-1,5
 524 304 524 304 510 253.5 c 128,-1,6
 496 203 496 203 473.5 155 c 128,-1,7
 451 107 451 107 418.5 69.5 c 128,-1,8
 386 32 386 32 342 9.5 c 128,-1,9
 298 -13 298 -13 242 -13 c 0,10,11
 202 -13 202 -13 170.5 0.5 c 128,-1,12
 139 14 139 14 117 39.5 c 128,-1,13
 95 65 95 65 83 100 c 128,-1,14
 71 135 71 135 71 179 c 0,15,16
 71 218 71 218 77 267 c 128,-1,17
 83 316 83 316 97 366.5 c 128,-1,18
 111 417 111 417 133.5 465 c 128,-1,19
 156 513 156 513 188.5 550.5 c 128,-1,20
 221 588 221 588 265 610.5 c 128,-1,21
 309 633 309 633 366 633 c 0,0,1
253 90 m 0,22,23
 281 90 281 90 304.5 106.5 c 128,-1,24
 328 123 328 123 347 150.5 c 128,-1,25
 366 178 366 178 380 213.5 c 128,-1,26
 394 249 394 249 403.5 287.5 c 128,-1,27
 413 326 413 326 417.5 364 c 128,-1,28
 422 402 422 402 422 434 c 0,29,30
 422 475 422 475 407.5 502.5 c 128,-1,31
 393 530 393 530 355 530 c 0,32,33
 327 530 327 530 303 513.5 c 128,-1,34
 279 497 279 497 260 469.5 c 128,-1,35
 241 442 241 442 227 406 c 128,-1,36
 213 370 213 370 203.5 332 c 128,-1,37
 194 294 194 294 189.5 256 c 128,-1,38
 185 218 185 218 185 186 c 0,39,40
 185 145 185 145 200 117.5 c 128,-1,41
 215 90 215 90 253 90 c 0,22,23
296 254 m 0,42,43
 271 254 271 254 260 267 c 128,-1,44
 249 280 249 280 249 299 c 0,45,46
 249 321 249 321 256 337.5 c 128,-1,47
 263 354 263 354 273 365 c 128,-1,48
 283 376 283 376 295 381.5 c 128,-1,49
 307 387 307 387 317 387 c 0,50,51
 342 387 342 387 352.5 373.5 c 128,-1,52
 363 360 363 360 363 341 c 0,53,54
 363 319 363 319 356 302.5 c 128,-1,55
 349 286 349 286 339 275.5 c 128,-1,56
 329 265 329 265 317.5 259.5 c 128,-1,57
 306 254 306 254 296 254 c 0,42,43
EndSplineSet
Substitution2: "'ss02' Style Set 2 lookup 15 subtable" zerosuperior
Substitution2: "'sinf' Scientific Inferiors lookup 11 subtable" zero.sinf
Substitution2: "'subs' Subscript lookup 10 subtable" zero.sinf
Substitution2: "'sups' Superscript lookup 9 subtable" zero.sups
Substitution2: "'dnom' Denominators lookup 8 subtable" zeroinferior
Substitution2: "'numr' Numerators lookup 6 subtable" zerosuperior
EndChar

StartChar: one
Encoding: 49 49 20
Width: 500
Flags: W
LayerCount: 2
Fore
SplineSet
218 102 m 1,0,-1
 304 460 l 1,1,2
 270 437 270 437 231 418 c 128,-1,3
 192 399 192 399 166 390 c 1,4,-1
 137 490 l 1,5,6
 164 499 164 499 194.5 513 c 128,-1,7
 225 527 225 527 256 544 c 128,-1,8
 287 561 287 561 316 580 c 128,-1,9
 345 599 345 599 368 619 c 1,10,-1
 465 619 l 1,11,-1
 341 102 l 1,12,-1
 464 102 l 1,13,-1
 440 0 l 1,14,-1
 64 0 l 1,15,-1
 88 102 l 1,16,-1
 218 102 l 1,0,-1
EndSplineSet
Substitution2: "'ss02' Style Set 2 lookup 15 subtable" onesuperior
Substitution2: "'sinf' Scientific Inferiors lookup 11 subtable" one.sinf
Substitution2: "'subs' Subscript lookup 10 subtable" one.sinf
Substitution2: "'sups' Superscript lookup 9 subtable" one.sups
Substitution2: "'dnom' Denominators lookup 8 subtable" oneinferior
Substitution2: "'numr' Numerators lookup 6 subtable" onesuperior
EndChar

StartChar: two
Encoding: 50 50 21
Width: 500
Flags: W
LayerCount: 2
Fore
SplineSet
365 633 m 0,0,1
 405 633 405 633 436 621.5 c 128,-1,2
 467 610 467 610 488 590 c 128,-1,3
 509 570 509 570 520 544 c 128,-1,4
 531 518 531 518 531 488 c 0,5,6
 531 444 531 444 514 408 c 128,-1,7
 497 372 497 372 469.5 341.5 c 128,-1,8
 442 311 442 311 406 284 c 128,-1,9
 370 257 370 257 332 230 c 0,10,11
 274 190 274 190 240.5 160.5 c 128,-1,12
 207 131 207 131 190 102 c 1,13,-1
 466 102 l 1,14,-1
 442 0 l 1,15,-1
 41 0 l 1,16,17
 47 53 47 53 64.5 94.5 c 128,-1,18
 82 136 82 136 109 170 c 128,-1,19
 136 204 136 204 171 233.5 c 128,-1,20
 206 263 206 263 248 293 c 0,21,22
 291 324 291 324 321.5 347.5 c 128,-1,23
 352 371 352 371 371 390.5 c 128,-1,24
 390 410 390 410 399 428 c 128,-1,25
 408 446 408 446 408 466 c 0,26,27
 408 493 408 493 392 509.5 c 128,-1,28
 376 526 376 526 340 526 c 256,29,30
 304 526 304 526 264.5 510.5 c 128,-1,31
 225 495 225 495 187 466 c 1,32,-1
 147 555 l 1,33,34
 199 596 199 596 255 614.5 c 128,-1,35
 311 633 311 633 365 633 c 0,0,1
EndSplineSet
Substitution2: "'ss02' Style Set 2 lookup 15 subtable" twosuperior
Substitution2: "'sinf' Scientific Inferiors lookup 11 subtable" two.sinf
Substitution2: "'subs' Subscript lookup 10 subtable" two.sinf
Substitution2: "'sups' Superscript lookup 9 subtable" two.sups
Substitution2: "'dnom' Denominators lookup 8 subtable" twoinferior
Substitution2: "'numr' Numerators lookup 6 subtable" twosuperior
EndChar

StartChar: three
Encoding: 51 51 22
Width: 500
Flags: W
LayerCount: 2
Fore
SplineSet
388 326 m 1,0,1
 434 305 434 305 456 269.5 c 128,-1,2
 478 234 478 234 478 192 c 0,3,4
 478 155 478 155 464 118.5 c 128,-1,5
 450 82 450 82 418 52.5 c 128,-1,6
 386 23 386 23 334.5 5 c 128,-1,7
 283 -13 283 -13 209 -13 c 0,8,9
 160 -13 160 -13 115.5 -3 c 128,-1,10
 71 7 71 7 30 30 c 1,11,-1
 72 126 l 1,12,13
 100 109 100 109 138 98 c 128,-1,14
 176 87 176 87 216 87 c 0,15,16
 244 87 244 87 269 92.5 c 128,-1,17
 294 98 294 98 313 111 c 128,-1,18
 332 124 332 124 343.5 145 c 128,-1,19
 355 166 355 166 355 197 c 0,20,21
 355 238 355 238 323.5 257 c 128,-1,22
 292 276 292 276 236 276 c 2,23,-1
 195 276 l 1,24,-1
 220 373 l 1,25,-1
 271 373 l 2,26,27
 291 373 291 373 313.5 377.5 c 128,-1,28
 336 382 336 382 355.5 393.5 c 128,-1,29
 375 405 375 405 387.5 423.5 c 128,-1,30
 400 442 400 442 400 470 c 0,31,32
 400 500 400 500 377.5 516 c 128,-1,33
 355 532 355 532 320 532 c 0,34,35
 294 532 294 532 262 522.5 c 128,-1,36
 230 513 230 513 198 495 c 1,37,-1
 167 585 l 1,38,39
 209 607 209 607 255.5 620 c 128,-1,40
 302 633 302 633 342 633 c 0,41,42
 379 633 379 633 411.5 624.5 c 128,-1,43
 444 616 444 616 468.5 599 c 128,-1,44
 493 582 493 582 507 556.5 c 128,-1,45
 521 531 521 531 521 496 c 0,46,47
 521 441 521 441 489 397 c 128,-1,48
 457 353 457 353 388 326 c 1,0,1
EndSplineSet
Substitution2: "'ss02' Style Set 2 lookup 15 subtable" threesuperior
Substitution2: "'sinf' Scientific Inferiors lookup 11 subtable" three.sinf
Substitution2: "'subs' Subscript lookup 10 subtable" three.sinf
Substitution2: "'sups' Superscript lookup 9 subtable" three.sups
Substitution2: "'dnom' Denominators lookup 8 subtable" threeinferior
Substitution2: "'numr' Numerators lookup 6 subtable" threesuperior
EndChar

StartChar: four
Encoding: 52 52 23
Width: 500
Flags: W
LayerCount: 2
Fore
SplineSet
396 484 m 1,0,1
 340 432 340 432 280.5 368.5 c 128,-1,2
 221 305 221 305 173 244 c 1,3,-1
 338 244 l 1,4,-1
 396 484 l 1,0,1
544 619 m 1,5,-1
 454 244 l 1,6,-1
 520 244 l 1,7,-1
 496 146 l 1,8,-1
 430 146 l 1,9,-1
 395 0 l 1,10,-1
 279 0 l 1,11,-1
 313 146 l 1,12,-1
 40 146 l 1,13,-1
 62 238 l 1,14,15
 90 277 90 277 132.5 326 c 128,-1,16
 175 375 175 375 223.5 426.5 c 128,-1,17
 272 478 272 478 324 528 c 128,-1,18
 376 578 376 578 424 619 c 1,19,-1
 544 619 l 1,5,-1
EndSplineSet
Substitution2: "'ss02' Style Set 2 lookup 15 subtable" foursuperior
Substitution2: "'sinf' Scientific Inferiors lookup 11 subtable" four.sinf
Substitution2: "'subs' Subscript lookup 10 subtable" four.sinf
Substitution2: "'sups' Superscript lookup 9 subtable" four.sups
Substitution2: "'dnom' Denominators lookup 8 subtable" fourinferior
Substitution2: "'numr' Numerators lookup 6 subtable" foursuperior
EndChar

StartChar: five
Encoding: 53 53 24
Width: 500
Flags: W
LayerCount: 2
Fore
SplineSet
78 128 m 1,0,1
 110 108 110 108 145 98.5 c 128,-1,2
 180 89 180 89 213 89 c 0,3,4
 355 89 355 89 355 197 c 0,5,6
 355 242 355 242 302.5 268.5 c 128,-1,7
 250 295 250 295 129 297 c 1,8,9
 158 382 158 382 184 462.5 c 128,-1,10
 210 543 210 543 230 619 c 1,11,-1
 555 619 l 1,12,-1
 531 517 l 1,13,-1
 305 517 l 1,14,15
 295 480 295 480 284 445 c 128,-1,16
 273 410 273 410 264 387 c 1,17,18
 319 382 319 382 359 366.5 c 128,-1,19
 399 351 399 351 425 327 c 128,-1,20
 451 303 451 303 464 272 c 128,-1,21
 477 241 477 241 477 207 c 0,22,23
 477 107 477 107 411 47 c 128,-1,24
 345 -13 345 -13 216 -13 c 0,25,26
 168 -13 168 -13 121 -3 c 128,-1,27
 74 7 74 7 32 29 c 1,28,-1
 78 128 l 1,0,1
EndSplineSet
Substitution2: "'ss02' Style Set 2 lookup 15 subtable" fivesuperior
Substitution2: "'sinf' Scientific Inferiors lookup 11 subtable" five.sinf
Substitution2: "'subs' Subscript lookup 10 subtable" five.sinf
Substitution2: "'sups' Superscript lookup 9 subtable" five.sups
Substitution2: "'dnom' Denominators lookup 8 subtable" fiveinferior
Substitution2: "'numr' Numerators lookup 6 subtable" fivesuperior
EndChar

StartChar: six
Encoding: 54 54 25
Width: 500
Flags: W
LayerCount: 2
Fore
SplineSet
542 524 m 1,0,1
 490 524 490 524 441 517 c 128,-1,2
 392 510 392 510 350 492 c 128,-1,3
 308 474 308 474 274.5 441 c 128,-1,4
 241 408 241 408 220 356 c 1,5,6
 252 375 252 375 286.5 382.5 c 128,-1,7
 321 390 321 390 346 390 c 0,8,9
 379 390 379 390 407.5 379.5 c 128,-1,10
 436 369 436 369 457.5 348.5 c 128,-1,11
 479 328 479 328 491.5 297.5 c 128,-1,12
 504 267 504 267 504 226 c 0,13,14
 504 168 504 168 485 123.5 c 128,-1,15
 466 79 466 79 434 48.5 c 128,-1,16
 402 18 402 18 359.5 2.5 c 128,-1,17
 317 -13 317 -13 270 -13 c 0,18,19
 229 -13 229 -13 193 1 c 128,-1,20
 157 15 157 15 131 42.5 c 128,-1,21
 105 70 105 70 90 110.5 c 128,-1,22
 75 151 75 151 75 204 c 0,23,24
 75 283 75 283 101.5 358.5 c 128,-1,25
 128 434 128 434 183.5 493 c 128,-1,26
 239 552 239 552 324.5 587.5 c 128,-1,27
 410 623 410 623 527 623 c 0,28,29
 532 623 532 623 541.5 622.5 c 128,-1,30
 551 622 551 622 556 622 c 1,31,-1
 542 524 l 1,0,1
387 217 m 0,32,33
 387 241 387 241 380 256.5 c 128,-1,34
 373 272 373 272 361 281 c 128,-1,35
 349 290 349 290 333.5 294 c 128,-1,36
 318 298 318 298 300 298 c 0,37,38
 276 298 276 298 251 292 c 128,-1,39
 226 286 226 286 203 277 c 1,40,41
 198 259 198 259 195 240.5 c 128,-1,42
 192 222 192 222 192 202 c 0,43,44
 192 179 192 179 197.5 158 c 128,-1,45
 203 137 203 137 214 121.5 c 128,-1,46
 225 106 225 106 241.5 97 c 128,-1,47
 258 88 258 88 281 88 c 0,48,49
 329 88 329 88 358 122.5 c 128,-1,50
 387 157 387 157 387 217 c 0,32,33
EndSplineSet
Substitution2: "'ss02' Style Set 2 lookup 15 subtable" sixsuperior
Substitution2: "'sinf' Scientific Inferiors lookup 11 subtable" six.sinf
Substitution2: "'subs' Subscript lookup 10 subtable" six.sinf
Substitution2: "'sups' Superscript lookup 9 subtable" six.sups
Substitution2: "'dnom' Denominators lookup 8 subtable" sixinferior
Substitution2: "'numr' Numerators lookup 6 subtable" sixsuperior
EndChar

StartChar: seven
Encoding: 55 55 26
Width: 500
Flags: W
LayerCount: 2
Fore
SplineSet
118 0 m 1,0,1
 136 67 136 67 169.5 139 c 128,-1,2
 203 211 203 211 244 279.5 c 128,-1,3
 285 348 285 348 330.5 408.5 c 128,-1,4
 376 469 376 469 419 514 c 1,5,-1
 138 514 l 1,6,-1
 163 619 l 1,7,-1
 594 619 l 1,8,-1
 572 529 l 1,9,10
 537 500 537 500 490.5 445.5 c 128,-1,11
 444 391 444 391 397 320 c 128,-1,12
 350 249 350 249 309 167 c 128,-1,13
 268 85 268 85 244 0 c 1,14,-1
 118 0 l 1,0,1
EndSplineSet
Substitution2: "'ss02' Style Set 2 lookup 15 subtable" sevensuperior
Substitution2: "'sinf' Scientific Inferiors lookup 11 subtable" seven.sinf
Substitution2: "'subs' Subscript lookup 10 subtable" seven.sinf
Substitution2: "'sups' Superscript lookup 9 subtable" seven.sups
Substitution2: "'dnom' Denominators lookup 8 subtable" seveninferior
Substitution2: "'numr' Numerators lookup 6 subtable" sevensuperior
EndChar

StartChar: eight
Encoding: 56 56 27
Width: 500
Flags: W
LayerCount: 2
Fore
SplineSet
62 138 m 0,0,1
 62 167 62 167 70 191.5 c 128,-1,2
 78 216 78 216 95 238.5 c 128,-1,3
 112 261 112 261 139 282.5 c 128,-1,4
 166 304 166 304 204 328 c 1,5,6
 181 352 181 352 165 379 c 128,-1,7
 149 406 149 406 149 443 c 0,8,9
 149 478 149 478 162 512 c 128,-1,10
 175 546 175 546 202 573 c 128,-1,11
 229 600 229 600 270 616.5 c 128,-1,12
 311 633 311 633 367 633 c 0,13,14
 404 633 404 633 435.5 622.5 c 128,-1,15
 467 612 467 612 490 593.5 c 128,-1,16
 513 575 513 575 526.5 548.5 c 128,-1,17
 540 522 540 522 540 489 c 0,18,19
 540 469 540 469 535 447.5 c 128,-1,20
 530 426 530 426 516 403.5 c 128,-1,21
 502 381 502 381 476 358 c 128,-1,22
 450 335 450 335 407 314 c 1,23,24
 440 291 440 291 463.5 260 c 128,-1,25
 487 229 487 229 487 180 c 0,26,27
 487 140 487 140 471.5 105 c 128,-1,28
 456 70 456 70 426 43.5 c 128,-1,29
 396 17 396 17 351.5 2 c 128,-1,30
 307 -13 307 -13 249 -13 c 0,31,32
 217 -13 217 -13 183.5 -5 c 128,-1,33
 150 3 150 3 123 20.5 c 128,-1,34
 96 38 96 38 79 67 c 128,-1,35
 62 96 62 96 62 138 c 0,0,1
368 177 m 0,36,37
 368 215 368 215 342 237.5 c 128,-1,38
 316 260 316 260 278 280 c 1,39,40
 247 265 247 265 228 249.5 c 128,-1,41
 209 234 209 234 198 218 c 128,-1,42
 187 202 187 202 183 186 c 128,-1,43
 179 170 179 170 179 154 c 0,44,45
 179 119 179 119 203.5 101.5 c 128,-1,46
 228 84 228 84 263 84 c 0,47,48
 284 84 284 84 303 90.5 c 128,-1,49
 322 97 322 97 336.5 109 c 128,-1,50
 351 121 351 121 359.5 138.5 c 128,-1,51
 368 156 368 156 368 177 c 0,36,37
262 451 m 0,52,53
 262 419 262 419 282 398 c 128,-1,54
 302 377 302 377 330 360 c 1,55,56
 387 387 387 387 406 415 c 128,-1,57
 425 443 425 443 425 470 c 0,58,59
 425 502 425 502 405.5 518.5 c 128,-1,60
 386 535 386 535 351 535 c 0,61,62
 309 535 309 535 285.5 511 c 128,-1,63
 262 487 262 487 262 451 c 0,52,53
EndSplineSet
Substitution2: "'ss02' Style Set 2 lookup 15 subtable" eightsuperior
Substitution2: "'sinf' Scientific Inferiors lookup 11 subtable" eight.sinf
Substitution2: "'subs' Subscript lookup 10 subtable" eight.sinf
Substitution2: "'sups' Superscript lookup 9 subtable" eight.sups
Substitution2: "'dnom' Denominators lookup 8 subtable" eightinferior
Substitution2: "'numr' Numerators lookup 6 subtable" eightsuperior
EndChar

StartChar: nine
Encoding: 57 57 28
Width: 500
Flags: W
LayerCount: 2
Fore
SplineSet
310 325 m 0,0,1
 333 325 333 325 358.5 331 c 128,-1,2
 384 337 384 337 407 346 c 1,3,4
 412 365 412 365 414.5 382.5 c 128,-1,5
 417 400 417 400 417 419 c 0,6,7
 417 465 417 465 395.5 497.5 c 128,-1,8
 374 530 374 530 329 530 c 0,9,10
 281 530 281 530 251.5 499 c 128,-1,11
 222 468 222 468 222 405 c 0,12,13
 222 359 222 359 248 342 c 128,-1,14
 274 325 274 325 310 325 c 0,0,1
263 234 m 0,15,16
 230 234 230 234 201.5 244 c 128,-1,17
 173 254 173 254 151.5 274.5 c 128,-1,18
 130 295 130 295 117.5 325 c 128,-1,19
 105 355 105 355 105 396 c 0,20,21
 105 454 105 454 124 498.5 c 128,-1,22
 143 543 143 543 175 573 c 128,-1,23
 207 603 207 603 249.5 618 c 128,-1,24
 292 633 292 633 339 633 c 0,25,26
 380 633 380 633 416 619 c 128,-1,27
 452 605 452 605 478.5 577.5 c 128,-1,28
 505 550 505 550 520 509.5 c 128,-1,29
 535 469 535 469 535 416 c 0,30,31
 535 336 535 336 508.5 260.5 c 128,-1,32
 482 185 482 185 426.5 126.5 c 128,-1,33
 371 68 371 68 286.5 32 c 128,-1,34
 202 -4 202 -4 85 -4 c 0,35,36
 80 -4 80 -4 70.5 -3.5 c 128,-1,37
 61 -3 61 -3 55 -2 c 1,38,-1
 70 95 l 1,39,40
 122 95 122 95 170.5 102 c 128,-1,41
 219 109 219 109 261 128 c 128,-1,42
 303 147 303 147 336.5 180.5 c 128,-1,43
 370 214 370 214 391 268 c 1,44,45
 359 249 359 249 324 241.5 c 128,-1,46
 289 234 289 234 263 234 c 0,15,16
EndSplineSet
Substitution2: "'ss02' Style Set 2 lookup 15 subtable" ninesuperior
Substitution2: "'sinf' Scientific Inferiors lookup 11 subtable" nine.sinf
Substitution2: "'subs' Subscript lookup 10 subtable" nine.sinf
Substitution2: "'sups' Superscript lookup 9 subtable" nine.sups
Substitution2: "'dnom' Denominators lookup 8 subtable" nineinferior
Substitution2: "'numr' Numerators lookup 6 subtable" ninesuperior
EndChar

StartChar: less
Encoding: 60 60 31
Width: 500
Flags: W
LayerCount: 2
Fore
SplineSet
102 312 m 1,0,-1
 525 474 l 1,1,-1
 534 364 l 1,2,-1
 224 256 l 1,3,-1
 479 139 l 1,4,-1
 428 44 l 1,5,-1
 78 213 l 1,6,-1
 102 312 l 1,0,-1
EndSplineSet
EndChar

StartChar: equal
Encoding: 61 61 32
Width: 500
Flags: W
LayerCount: 2
Fore
SplineSet
465 114 m 1,0,-1
 45 114 l 1,1,-1
 69 216 l 1,2,-1
 489 216 l 1,3,-1
 465 114 l 1,0,-1
511 309 m 1,4,-1
 91 309 l 1,5,-1
 116 411 l 1,6,-1
 535 411 l 1,7,-1
 511 309 l 1,4,-1
EndSplineSet
EndChar

StartChar: greater
Encoding: 62 62 33
Width: 500
Flags: W
LayerCount: 2
Fore
SplineSet
485 206 m 1,0,-1
 62 44 l 1,1,-1
 53 154 l 1,2,-1
 363 262 l 1,3,-1
 108 379 l 1,4,-1
 159 474 l 1,5,-1
 509 305 l 1,6,-1
 485 206 l 1,0,-1
EndSplineSet
EndChar

StartChar: question
Encoding: 63 63 34
Width: 500
Flags: W
LayerCount: 2
Fore
SplineSet
335 530 m 0,0,1
 302 530 302 530 274 519.5 c 128,-1,2
 246 509 246 509 207 492 c 1,3,-1
 192 587 l 1,4,5
 233 609 233 609 277 621 c 128,-1,6
 321 633 321 633 369 633 c 0,7,8
 413 633 413 633 443.5 623 c 128,-1,9
 474 613 474 613 493.5 595.5 c 128,-1,10
 513 578 513 578 522 555 c 128,-1,11
 531 532 531 532 531 505 c 0,12,13
 531 475 531 475 522 451.5 c 128,-1,14
 513 428 513 428 497.5 408 c 128,-1,15
 482 388 482 388 461 370.5 c 128,-1,16
 440 353 440 353 415 336 c 0,17,18
 392 319 392 319 376 307 c 128,-1,19
 360 295 360 295 348.5 283 c 128,-1,20
 337 271 337 271 329 257.5 c 128,-1,21
 321 244 321 244 315 225 c 1,22,-1
 201 225 l 1,23,24
 208 271 208 271 232.5 306 c 128,-1,25
 257 341 257 341 313 381 c 0,26,27
 337 399 337 399 353.5 411.5 c 128,-1,28
 370 424 370 424 379.5 435 c 128,-1,29
 389 446 389 446 393.5 457.5 c 128,-1,30
 398 469 398 469 398 484 c 0,31,32
 398 530 398 530 335 530 c 0,0,1
244 155 m 0,33,34
 276 155 276 155 297 136.5 c 128,-1,35
 318 118 318 118 318 81 c 0,36,37
 318 61 318 61 310.5 44 c 128,-1,38
 303 27 303 27 290.5 14.5 c 128,-1,39
 278 2 278 2 262 -5 c 128,-1,40
 246 -12 246 -12 228 -12 c 0,41,42
 197 -12 197 -12 175.5 7 c 128,-1,43
 154 26 154 26 154 63 c 0,44,45
 154 84 154 84 161.5 101 c 128,-1,46
 169 118 169 118 181.5 130 c 128,-1,47
 194 142 194 142 210.5 148.5 c 128,-1,48
 227 155 227 155 244 155 c 0,33,34
EndSplineSet
EndChar

StartChar: at
Encoding: 64 64 35
Width: 500
Flags: W
LayerCount: 2
Fore
SplineSet
313 -48 m 0,0,1
 356 -48 356 -48 381.5 -42.5 c 128,-1,2
 407 -37 407 -37 415 -35 c 1,3,-1
 408 -121 l 1,4,5
 382 -127 382 -127 355 -131 c 128,-1,6
 328 -135 328 -135 299 -135 c 0,7,8
 181 -135 181 -135 118 -66 c 128,-1,9
 55 3 55 3 55 147 c 0,10,11
 55 252 55 252 79.5 341 c 128,-1,12
 104 430 104 430 148 495 c 128,-1,13
 192 560 192 560 252.5 596.5 c 128,-1,14
 313 633 313 633 386 633 c 0,15,16
 476 633 476 633 518 593.5 c 128,-1,17
 560 554 560 554 560 480 c 0,18,19
 560 461 560 461 556.5 437.5 c 128,-1,20
 553 414 553 414 548 392 c 2,21,-1
 467 55 l 1,22,23
 439 46 439 46 409 40.5 c 128,-1,24
 379 35 379 35 353 35 c 0,25,26
 321 35 321 35 294.5 43.5 c 128,-1,27
 268 52 268 52 249 71 c 128,-1,28
 230 90 230 90 219.5 120 c 128,-1,29
 209 150 209 150 209 193 c 0,30,31
 209 239 209 239 221 284 c 128,-1,32
 233 329 233 329 257.5 364 c 128,-1,33
 282 399 282 399 318.5 421 c 128,-1,34
 355 443 355 443 403 443 c 0,35,36
 420 443 420 443 433.5 440 c 128,-1,37
 447 437 447 437 454 435 c 1,38,39
 457 446 457 446 459 458.5 c 128,-1,40
 461 471 461 471 461 479 c 0,41,42
 461 510 461 510 439.5 528.5 c 128,-1,43
 418 547 418 547 381 547 c 0,44,45
 334 547 334 547 291.5 520.5 c 128,-1,46
 249 494 249 494 217 443.5 c 128,-1,47
 185 393 185 393 166.5 321 c 128,-1,48
 148 249 148 249 148 159 c 0,49,50
 148 48 148 48 192 0 c 128,-1,51
 236 -48 236 -48 313 -48 c 0,0,1
363 130 m 0,52,53
 366 130 366 130 371.5 130 c 128,-1,54
 377 130 377 130 381 132 c 2,55,-1
 431 341 l 1,56,57
 423 347 423 347 406 347 c 0,58,59
 380 347 380 347 361.5 333.5 c 128,-1,60
 343 320 343 320 331.5 298 c 128,-1,61
 320 276 320 276 314.5 249 c 128,-1,62
 309 222 309 222 309 194 c 0,63,64
 309 162 309 162 323 146 c 128,-1,65
 337 130 337 130 363 130 c 0,52,53
EndSplineSet
Substitution2: "'case' Case-Sensitive Forms lookup 17 subtable" At
EndChar

StartChar: A
Encoding: 65 65 36
Width: 500
Flags: W
LayerCount: 2
Fore
SplineSet
356 144 m 1,0,-1
 180 144 l 1,1,2
 165 110 165 110 149 74 c 128,-1,3
 133 38 133 38 119 0 c 1,4,-1
 -6 0 l 1,5,6
 79 186 79 186 158 341.5 c 128,-1,7
 237 497 237 497 312 619 c 1,8,-1
 443 619 l 1,9,10
 457 501 457 501 465.5 369.5 c 128,-1,11
 474 238 474 238 476 89 c 2,12,-1
 476 0 l 1,13,-1
 352 0 l 1,14,-1
 356 144 l 1,0,-1
352 502 m 1,15,16
 339 477 339 477 326.5 453 c 128,-1,17
 314 429 314 429 299.5 399.5 c 128,-1,18
 285 370 285 370 267 332 c 128,-1,19
 249 294 249 294 226 243 c 1,20,-1
 358 243 l 1,21,22
 359 294 359 294 358.5 332 c 128,-1,23
 358 370 358 370 357 399.5 c 128,-1,24
 356 429 356 429 354.5 453.5 c 128,-1,25
 353 478 353 478 352 502 c 1,15,16
EndSplineSet
EndChar

StartChar: B
Encoding: 66 66 37
Width: 500
Flags: W
LayerCount: 2
Fore
SplineSet
207 -8 m 0,0,1
 192 -8 192 -8 171.5 -7 c 128,-1,2
 151 -6 151 -6 128 -3.5 c 128,-1,3
 105 -1 105 -1 81.5 3 c 128,-1,4
 58 7 58 7 39 13 c 1,5,-1
 182 607 l 1,6,7
 202 612 202 612 224.5 615.5 c 128,-1,8
 247 619 247 619 268.5 621.5 c 128,-1,9
 290 624 290 624 310 625 c 128,-1,10
 330 626 330 626 345 626 c 0,11,12
 388 626 388 626 423 618 c 128,-1,13
 458 610 458 610 483 592 c 128,-1,14
 508 574 508 574 522 546.5 c 128,-1,15
 536 519 536 519 536 480 c 0,16,17
 536 435 536 435 511.5 393.5 c 128,-1,18
 487 352 487 352 423 327 c 1,19,20
 465 307 465 307 484 277.5 c 128,-1,21
 503 248 503 248 503 204 c 0,22,23
 503 156 503 156 484 117 c 128,-1,24
 465 78 465 78 427.5 50.5 c 128,-1,25
 390 23 390 23 334.5 7.5 c 128,-1,26
 279 -8 279 -8 207 -8 c 0,0,1
221 272 m 1,27,-1
 180 101 l 1,28,29
 191 99 191 99 208.5 98 c 128,-1,30
 226 97 226 97 251 97 c 0,31,32
 269 97 269 97 292 102 c 128,-1,33
 315 107 315 107 335 119 c 128,-1,34
 355 131 355 131 369 152 c 128,-1,35
 383 173 383 173 383 205 c 0,36,37
 383 245 383 245 356 258.5 c 128,-1,38
 329 272 329 272 286 272 c 2,39,-1
 221 272 l 1,27,-1
246 371 m 1,40,-1
 284 371 l 2,41,42
 309 371 309 371 333 375.5 c 128,-1,43
 357 380 357 380 376 391 c 128,-1,44
 395 402 395 402 407 420 c 128,-1,45
 419 438 419 438 419 464 c 0,46,47
 419 496 419 496 397 509 c 128,-1,48
 375 522 375 522 336 522 c 0,49,50
 320 522 320 522 305.5 521.5 c 128,-1,51
 291 521 291 521 280 519 c 1,52,-1
 246 371 l 1,40,-1
EndSplineSet
EndChar

StartChar: C
Encoding: 67 67 38
Width: 500
Flags: W
LayerCount: 2
Fore
SplineSet
288 -13 m 0,0,1
 237 -13 237 -13 199 2.5 c 128,-1,2
 161 18 161 18 136.5 46.5 c 128,-1,3
 112 75 112 75 100 115.5 c 128,-1,4
 88 156 88 156 88 205 c 0,5,6
 88 280 88 280 108.5 356.5 c 128,-1,7
 129 433 129 433 170 494.5 c 128,-1,8
 211 556 211 556 273.5 594.5 c 128,-1,9
 336 633 336 633 420 633 c 0,10,11
 452 633 452 633 477 627 c 128,-1,12
 502 621 502 621 521 613.5 c 128,-1,13
 540 606 540 606 552 597.5 c 128,-1,14
 564 589 564 589 569 585 c 1,15,-1
 523 490 l 1,16,17
 503 505 503 505 476 515.5 c 128,-1,18
 449 526 449 526 407 526 c 0,19,20
 358 526 358 526 321.5 497 c 128,-1,21
 285 468 285 468 260.5 423 c 128,-1,22
 236 378 236 378 224 323.5 c 128,-1,23
 212 269 212 269 212 217 c 0,24,25
 212 190 212 190 217.5 168 c 128,-1,26
 223 146 223 146 235.5 129.5 c 128,-1,27
 248 113 248 113 268.5 104 c 128,-1,28
 289 95 289 95 319 95 c 0,29,30
 365 95 365 95 396 106 c 128,-1,31
 427 117 427 117 447 129 c 1,32,-1
 461 30 l 1,33,34
 435 14 435 14 390 0.5 c 128,-1,35
 345 -13 345 -13 288 -13 c 0,0,1
EndSplineSet
EndChar

StartChar: D
Encoding: 68 68 39
Width: 500
Flags: W
LayerCount: 2
Fore
SplineSet
177 100 m 1,0,1
 182 99 182 99 188 99 c 128,-1,2
 194 99 194 99 199 99 c 0,3,4
 256 99 256 99 295.5 128.5 c 128,-1,5
 335 158 335 158 359 203.5 c 128,-1,6
 383 249 383 249 394 303 c 128,-1,7
 405 357 405 357 405 405 c 0,8,9
 405 429 405 429 401 450 c 128,-1,10
 397 471 397 471 387 486.5 c 128,-1,11
 377 502 377 502 359 510.5 c 128,-1,12
 341 519 341 519 313 519 c 0,13,14
 295 519 295 519 277 516 c 1,15,-1
 177 100 l 1,0,1
529 409 m 0,16,17
 529 329 529 329 510 253.5 c 128,-1,18
 491 178 491 178 449 120 c 128,-1,19
 407 62 407 62 340.5 27 c 128,-1,20
 274 -8 274 -8 180 -8 c 0,21,22
 148 -8 148 -8 107 -4.5 c 128,-1,23
 66 -1 66 -1 31 7 c 1,24,-1
 177 611 l 1,25,26
 221 620 221 620 251.5 623 c 128,-1,27
 282 626 282 626 314 626 c 0,28,29
 414 626 414 626 471.5 569.5 c 128,-1,30
 529 513 529 513 529 409 c 0,16,17
EndSplineSet
EndChar

StartChar: E
Encoding: 69 69 40
Width: 500
Flags: W
LayerCount: 2
Fore
SplineSet
53 0 m 1,0,-1
 201 619 l 1,1,-1
 568 619 l 1,2,-1
 544 517 l 1,3,-1
 300 517 l 1,4,-1
 266 378 l 1,5,-1
 478 378 l 1,6,-1
 454 276 l 1,7,-1
 242 276 l 1,8,-1
 200 102 l 1,9,-1
 466 102 l 1,10,-1
 442 0 l 1,11,-1
 53 0 l 1,0,-1
EndSplineSet
EndChar

StartChar: F
Encoding: 70 70 41
Width: 500
Flags: W
LayerCount: 2
Fore
SplineSet
57 0 m 1,0,-1
 205 619 l 1,1,-1
 585 619 l 1,2,-1
 561 517 l 1,3,-1
 305 517 l 1,4,-1
 268 367 l 1,5,-1
 492 367 l 1,6,-1
 468 265 l 1,7,-1
 244 265 l 1,8,-1
 180 0 l 1,9,-1
 57 0 l 1,0,-1
EndSplineSet
EndChar

StartChar: G
Encoding: 71 71 42
Width: 500
Flags: W
LayerCount: 2
Fore
SplineSet
263 -13 m 0,0,1
 170 -13 170 -13 124 44 c 128,-1,2
 78 101 78 101 78 205 c 0,3,4
 78 280 78 280 99.5 356.5 c 128,-1,5
 121 433 121 433 163.5 494.5 c 128,-1,6
 206 556 206 556 270 594.5 c 128,-1,7
 334 633 334 633 420 633 c 0,8,9
 452 633 452 633 477 627 c 128,-1,10
 502 621 502 621 521 613.5 c 128,-1,11
 540 606 540 606 552 597.5 c 128,-1,12
 564 589 564 589 569 585 c 1,13,-1
 523 490 l 1,14,15
 503 505 503 505 476 515.5 c 128,-1,16
 449 526 449 526 407 526 c 0,17,18
 356 526 356 526 317.5 497 c 128,-1,19
 279 468 279 468 253 423 c 128,-1,20
 227 378 227 378 214 323.5 c 128,-1,21
 201 269 201 269 201 217 c 0,22,23
 201 163 201 163 221 128.5 c 128,-1,24
 241 94 241 94 289 94 c 0,25,26
 302 94 302 94 314.5 95 c 128,-1,27
 327 96 327 96 338 98 c 1,28,-1
 392 324 l 1,29,-1
 515 324 l 1,30,-1
 441 15 l 1,31,32
 418 7 418 7 369.5 -3 c 128,-1,33
 321 -13 321 -13 263 -13 c 0,0,1
EndSplineSet
EndChar

StartChar: H
Encoding: 72 72 43
Width: 500
Flags: W
LayerCount: 2
Fore
SplineSet
586 619 m 1,0,-1
 437 0 l 1,1,-1
 313 0 l 1,2,-1
 380 273 l 1,3,-1
 215 273 l 1,4,-1
 149 0 l 1,5,-1
 26 0 l 1,6,-1
 175 619 l 1,7,-1
 298 619 l 1,8,-1
 239 375 l 1,9,-1
 404 375 l 1,10,-1
 463 619 l 1,11,-1
 586 619 l 1,0,-1
EndSplineSet
EndChar

StartChar: I
Encoding: 73 73 44
Width: 500
Flags: W
LayerCount: 2
Fore
SplineSet
35 0 m 1,0,-1
 59 102 l 1,1,-1
 195 102 l 1,2,-1
 295 517 l 1,3,-1
 159 517 l 1,4,-1
 183 619 l 1,5,-1
 576 619 l 1,6,-1
 552 517 l 1,7,-1
 418 517 l 1,8,-1
 318 102 l 1,9,-1
 452 102 l 1,10,-1
 428 0 l 1,11,-1
 35 0 l 1,0,-1
EndSplineSet
EndChar

StartChar: J
Encoding: 74 74 45
Width: 500
Flags: W
LayerCount: 2
Fore
SplineSet
459 207 m 2,0,1
 448 160 448 160 431 119.5 c 128,-1,2
 414 79 414 79 386 49.5 c 128,-1,3
 358 20 358 20 315.5 3.5 c 128,-1,4
 273 -13 273 -13 212 -13 c 0,5,6
 180 -13 180 -13 152.5 -6.5 c 128,-1,7
 125 0 125 0 103.5 10 c 128,-1,8
 82 20 82 20 65 32 c 128,-1,9
 48 44 48 44 37 55 c 1,10,-1
 100 144 l 1,11,12
 120 126 120 126 147.5 110 c 128,-1,13
 175 94 175 94 210 94 c 0,14,15
 258 94 258 94 289.5 119.5 c 128,-1,16
 321 145 321 145 338 214 c 2,17,-1
 410 517 l 1,18,-1
 210 517 l 1,19,-1
 234 619 l 1,20,-1
 557 619 l 1,21,-1
 459 207 l 2,0,1
EndSplineSet
EndChar

StartChar: K
Encoding: 75 75 46
Width: 500
Flags: W
LayerCount: 2
Fore
SplineSet
338 322 m 1,0,1
 362 292 362 292 384 254.5 c 128,-1,2
 406 217 406 217 424.5 174.5 c 128,-1,3
 443 132 443 132 457.5 87.5 c 128,-1,4
 472 43 472 43 481 0 c 1,5,-1
 352 0 l 1,6,7
 345 35 345 35 331.5 75.5 c 128,-1,8
 318 116 318 116 300.5 155 c 128,-1,9
 283 194 283 194 263 228.5 c 128,-1,10
 243 263 243 263 223 287 c 1,11,-1
 154 0 l 1,12,-1
 31 0 l 1,13,-1
 179 619 l 1,14,-1
 303 619 l 1,15,-1
 241 362 l 1,16,17
 272 390 272 390 303.5 423.5 c 128,-1,18
 335 457 335 457 364 491.5 c 128,-1,19
 393 526 393 526 418.5 559 c 128,-1,20
 444 592 444 592 462 619 c 1,21,-1
 603 619 l 1,22,23
 580 588 580 588 551 551 c 128,-1,24
 522 514 522 514 488 474.5 c 128,-1,25
 454 435 454 435 416 396 c 128,-1,26
 378 357 378 357 338 322 c 1,0,1
EndSplineSet
EndChar

StartChar: L
Encoding: 76 76 47
Width: 500
Flags: W
LayerCount: 2
Fore
SplineSet
429 0 m 1,0,-1
 45 0 l 1,1,-1
 193 619 l 1,2,-1
 316 619 l 1,3,-1
 192 102 l 1,4,-1
 453 102 l 1,5,-1
 429 0 l 1,0,-1
EndSplineSet
EndChar

StartChar: M
Encoding: 77 77 48
Width: 500
Flags: W
LayerCount: 2
Fore
SplineSet
291 619 m 1,0,1
 293 598 293 598 296.5 563.5 c 128,-1,2
 300 529 300 529 303 489.5 c 128,-1,3
 306 450 306 450 308.5 408 c 128,-1,4
 311 366 311 366 313 330 c 1,5,-1
 463 619 l 1,6,-1
 576 619 l 1,7,8
 556 468 556 468 525.5 314.5 c 128,-1,9
 495 161 495 161 460 0 c 1,10,-1
 347 0 l 1,11,-1
 471 486 l 1,12,-1
 333 219 l 1,13,-1
 246 219 l 1,14,15
 244 285 244 285 239.5 353 c 128,-1,16
 235 421 235 421 230 481 c 1,17,-1
 119 0 l 1,18,-1
 6 0 l 1,19,20
 27 76 27 76 49.5 158 c 128,-1,21
 72 240 72 240 95 321.5 c 128,-1,22
 118 403 118 403 140.5 479 c 128,-1,23
 163 555 163 555 185 619 c 1,24,-1
 291 619 l 1,0,1
EndSplineSet
EndChar

StartChar: N
Encoding: 78 78 49
Width: 500
Flags: W
LayerCount: 2
Fore
SplineSet
337 0 m 1,0,1
 320 103 320 103 296.5 211 c 128,-1,2
 273 319 273 319 241 444 c 1,3,-1
 135 0 l 1,4,-1
 26 0 l 1,5,-1
 174 619 l 1,6,-1
 279 619 l 1,7,8
 293 575 293 575 308.5 523 c 128,-1,9
 324 471 324 471 337.5 418 c 128,-1,10
 351 365 351 365 362.5 313 c 128,-1,11
 374 261 374 261 381 218 c 1,12,-1
 476 619 l 1,13,-1
 585 619 l 1,14,-1
 437 0 l 1,15,-1
 337 0 l 1,0,1
EndSplineSet
EndChar

StartChar: O
Encoding: 79 79 50
Width: 500
Flags: W
LayerCount: 2
Fore
SplineSet
367 633 m 0,0,1
 448 633 448 633 494 580.5 c 128,-1,2
 540 528 540 528 540 441 c 0,3,4
 540 402 540 402 534 353 c 128,-1,5
 528 304 528 304 514 253.5 c 128,-1,6
 500 203 500 203 477 155 c 128,-1,7
 454 107 454 107 421 69.5 c 128,-1,8
 388 32 388 32 343.5 9.5 c 128,-1,9
 299 -13 299 -13 241 -13 c 0,10,11
 159 -13 159 -13 113 39.5 c 128,-1,12
 67 92 67 92 67 179 c 0,13,14
 67 218 67 218 73 267 c 128,-1,15
 79 316 79 316 93.5 366.5 c 128,-1,16
 108 417 108 417 130.5 465 c 128,-1,17
 153 513 153 513 186.5 550.5 c 128,-1,18
 220 588 220 588 264.5 610.5 c 128,-1,19
 309 633 309 633 367 633 c 0,0,1
255 94 m 0,20,21
 296 94 296 94 326.5 129 c 128,-1,22
 357 164 357 164 377 215.5 c 128,-1,23
 397 267 397 267 407 325.5 c 128,-1,24
 417 384 417 384 417 432 c 0,25,26
 417 471 417 471 403.5 498.5 c 128,-1,27
 390 526 390 526 353 526 c 0,28,29
 312 526 312 526 281 491 c 128,-1,30
 250 456 250 456 230 404.5 c 128,-1,31
 210 353 210 353 200 294 c 128,-1,32
 190 235 190 235 190 188 c 0,33,34
 190 149 190 149 203.5 121.5 c 128,-1,35
 217 94 217 94 255 94 c 0,20,21
EndSplineSet
EndChar

StartChar: P
Encoding: 80 80 51
Width: 500
Flags: W
LayerCount: 2
Fore
SplineSet
347 626 m 0,0,1
 402 626 402 626 441.5 613.5 c 128,-1,2
 481 601 481 601 506.5 578 c 128,-1,3
 532 555 532 555 543.5 523.5 c 128,-1,4
 555 492 555 492 555 455 c 0,5,6
 555 392 555 392 531.5 345.5 c 128,-1,7
 508 299 508 299 466 269 c 128,-1,8
 424 239 424 239 366 224.5 c 128,-1,9
 308 210 308 210 238 210 c 2,10,-1
 212 210 l 1,11,-1
 161 0 l 1,12,-1
 38 0 l 1,13,-1
 185 611 l 1,14,15
 232 619 232 619 273.5 622.5 c 128,-1,16
 315 626 315 626 347 626 c 0,0,1
331 519 m 0,17,18
 317 519 317 519 308 518.5 c 128,-1,19
 299 518 299 518 285 516 c 1,20,-1
 237 316 l 1,21,-1
 267 316 l 2,22,23
 348 316 348 316 389.5 348 c 128,-1,24
 431 380 431 380 431 437 c 0,25,26
 431 475 431 475 410 497 c 128,-1,27
 389 519 389 519 331 519 c 0,17,18
EndSplineSet
EndChar

StartChar: Q
Encoding: 81 81 52
Width: 500
Flags: W
LayerCount: 2
Fore
SplineSet
367 633 m 0,0,1
 448 633 448 633 493.5 580.5 c 128,-1,2
 539 528 539 528 539 441 c 0,3,4
 539 404 539 404 533.5 358 c 128,-1,5
 528 312 528 312 516 264 c 128,-1,6
 504 216 504 216 483.5 169.5 c 128,-1,7
 463 123 463 123 434 85 c 128,-1,8
 405 47 405 47 365.5 21.5 c 128,-1,9
 326 -4 326 -4 275 -11 c 1,10,-1
 275 -18 l 2,11,12
 275 -47 275 -47 315.5 -64 c 128,-1,13
 356 -81 356 -81 416 -88 c 1,14,-1
 378 -170 l 1,15,16
 278 -156 278 -156 227.5 -121.5 c 128,-1,17
 177 -87 177 -87 177 -21 c 0,18,19
 177 -17 177 -17 177 -13 c 128,-1,20
 177 -9 177 -9 178 -4 c 1,21,22
 125 15 125 15 96.5 62.5 c 128,-1,23
 68 110 68 110 68 179 c 0,24,25
 68 218 68 218 74 267 c 128,-1,26
 80 316 80 316 94 366.5 c 128,-1,27
 108 417 108 417 131 465 c 128,-1,28
 154 513 154 513 187 550.5 c 128,-1,29
 220 588 220 588 264.5 610.5 c 128,-1,30
 309 633 309 633 367 633 c 0,0,1
255 94 m 0,31,32
 296 94 296 94 326.5 129 c 128,-1,33
 357 164 357 164 377 215.5 c 128,-1,34
 397 267 397 267 407 325.5 c 128,-1,35
 417 384 417 384 417 432 c 0,36,37
 417 471 417 471 403.5 498.5 c 128,-1,38
 390 526 390 526 353 526 c 0,39,40
 312 526 312 526 281 491 c 128,-1,41
 250 456 250 456 230 404.5 c 128,-1,42
 210 353 210 353 200 294 c 128,-1,43
 190 235 190 235 190 188 c 0,44,45
 190 149 190 149 203.5 121.5 c 128,-1,46
 217 94 217 94 255 94 c 0,31,32
EndSplineSet
EndChar

StartChar: R
Encoding: 82 82 53
Width: 500
Flags: W
LayerCount: 2
Fore
SplineSet
381 253 m 1,0,1
 396 228 396 228 409.5 197 c 128,-1,2
 423 166 423 166 435 132.5 c 128,-1,3
 447 99 447 99 456.5 65 c 128,-1,4
 466 31 466 31 472 0 c 1,5,-1
 352 0 l 1,6,7
 341 60 341 60 321 116 c 128,-1,8
 301 172 301 172 274 228 c 1,9,-1
 210 228 l 1,10,-1
 155 0 l 1,11,-1
 34 0 l 1,12,-1
 179 609 l 1,13,14
 198 613 198 613 219.5 616.5 c 128,-1,15
 241 620 241 620 262 622 c 128,-1,16
 283 624 283 624 302 625 c 128,-1,17
 321 626 321 626 336 626 c 0,18,19
 435 626 435 626 484 582.5 c 128,-1,20
 533 539 533 539 533 465 c 0,21,22
 533 430 533 430 523.5 396.5 c 128,-1,23
 514 363 514 363 494.5 334.5 c 128,-1,24
 475 306 475 306 446.5 284.5 c 128,-1,25
 418 263 418 263 381 253 c 1,0,1
280 330 m 2,26,27
 306 330 306 330 329.5 337 c 128,-1,28
 353 344 353 344 371 359 c 128,-1,29
 389 374 389 374 399.5 397 c 128,-1,30
 410 420 410 420 410 451 c 0,31,32
 410 486 410 486 389 505 c 128,-1,33
 368 524 368 524 317 524 c 0,34,35
 306 524 306 524 297 523 c 128,-1,36
 288 522 288 522 280 520 c 1,37,-1
 234 330 l 1,38,-1
 280 330 l 2,26,27
EndSplineSet
EndChar

StartChar: S
Encoding: 83 83 54
Width: 500
Flags: W
LayerCount: 2
Fore
SplineSet
236 90 m 0,0,1
 259 90 259 90 280 94.5 c 128,-1,2
 301 99 301 99 316.5 109.5 c 128,-1,3
 332 120 332 120 341.5 136 c 128,-1,4
 351 152 351 152 351 176 c 0,5,6
 351 194 351 194 343.5 208.5 c 128,-1,7
 336 223 336 223 323 235 c 128,-1,8
 310 247 310 247 292.5 257 c 128,-1,9
 275 267 275 267 255 277 c 0,10,11
 230 290 230 290 208.5 303 c 128,-1,12
 187 316 187 316 171.5 334 c 128,-1,13
 156 352 156 352 147 377 c 128,-1,14
 138 402 138 402 138 438 c 0,15,16
 138 526 138 526 197.5 579.5 c 128,-1,17
 257 633 257 633 367 633 c 0,18,19
 403 633 403 633 431.5 628 c 128,-1,20
 460 623 460 623 482 616 c 128,-1,21
 504 609 504 609 519.5 601 c 128,-1,22
 535 593 535 593 545 587 c 1,23,-1
 493 492 l 1,24,25
 470 508 470 508 435 519 c 128,-1,26
 400 530 400 530 351 530 c 0,27,28
 313 530 313 530 286.5 513 c 128,-1,29
 260 496 260 496 260 454 c 0,30,31
 260 420 260 420 282.5 402.5 c 128,-1,32
 305 385 305 385 337 371 c 0,33,34
 367 357 367 357 392 342 c 128,-1,35
 417 327 417 327 435 307 c 128,-1,36
 453 287 453 287 463.5 260 c 128,-1,37
 474 233 474 233 474 196 c 0,38,39
 474 94 474 94 408.5 40.5 c 128,-1,40
 343 -13 343 -13 223 -13 c 0,41,42
 183 -13 183 -13 151.5 -7 c 128,-1,43
 120 -1 120 -1 97 7 c 128,-1,44
 74 15 74 15 57.5 24.5 c 128,-1,45
 41 34 41 34 31 41 c 1,46,-1
 84 135 l 1,47,48
 94 129 94 129 109.5 121 c 128,-1,49
 125 113 125 113 144.5 106 c 128,-1,50
 164 99 164 99 187 94.5 c 128,-1,51
 210 90 210 90 236 90 c 0,0,1
EndSplineSet
EndChar

StartChar: T
Encoding: 84 84 55
Width: 500
Flags: W
LayerCount: 2
Fore
SplineSet
603 619 m 1,0,-1
 579 517 l 1,1,-1
 415 517 l 1,2,-1
 291 0 l 1,3,-1
 168 0 l 1,4,-1
 292 517 l 1,5,-1
 129 517 l 1,6,-1
 153 619 l 1,7,-1
 603 619 l 1,0,-1
EndSplineSet
EndChar

StartChar: U
Encoding: 85 85 56
Width: 500
Flags: W
LayerCount: 2
Fore
SplineSet
237 -13 m 0,0,1
 149 -13 149 -13 108 29 c 128,-1,2
 67 71 67 71 67 146 c 0,3,4
 67 187 67 187 79 238 c 2,5,-1
 171 619 l 1,6,-1
 294 619 l 1,7,-1
 203 239 l 2,8,9
 198 216 198 216 194 195.5 c 128,-1,10
 190 175 190 175 190 158 c 0,11,12
 190 128 190 128 204 111 c 128,-1,13
 218 94 218 94 255 94 c 0,14,15
 277 94 277 94 293 100.5 c 128,-1,16
 309 107 309 107 321 122.5 c 128,-1,17
 333 138 333 138 342.5 164 c 128,-1,18
 352 190 352 190 361 229 c 2,19,-1
 455 619 l 1,20,-1
 578 619 l 1,21,-1
 482 220 l 2,22,23
 469 165 469 165 452.5 122 c 128,-1,24
 436 79 436 79 409 49 c 128,-1,25
 382 19 382 19 340.5 3 c 128,-1,26
 299 -13 299 -13 237 -13 c 0,0,1
EndSplineSet
EndChar

StartChar: V
Encoding: 86 86 57
Width: 500
Flags: W
LayerCount: 2
Fore
SplineSet
170 0 m 1,0,1
 162 58 162 58 156 127.5 c 128,-1,2
 150 197 150 197 145.5 270.5 c 128,-1,3
 141 344 141 344 138.5 419 c 128,-1,4
 136 494 136 494 136 563 c 0,5,6
 136 579 136 579 136 593 c 128,-1,7
 136 607 136 607 137 619 c 1,8,-1
 263 619 l 1,9,10
 261 572 261 572 260 511.5 c 128,-1,11
 259 451 259 451 259 386 c 0,12,13
 259 316 259 316 260.5 249 c 128,-1,14
 262 182 262 182 265 125 c 1,15,16
 292 177 292 177 323.5 243 c 128,-1,17
 355 309 355 309 385.5 376.5 c 128,-1,18
 416 444 416 444 443 507.5 c 128,-1,19
 470 571 470 571 489 619 c 1,20,-1
 617 619 l 1,21,22
 591 559 591 559 556.5 485 c 128,-1,23
 522 411 522 411 481.5 329.5 c 128,-1,24
 441 248 441 248 395 163.5 c 128,-1,25
 349 79 349 79 301 0 c 1,26,-1
 170 0 l 1,0,1
EndSplineSet
EndChar

StartChar: W
Encoding: 87 87 58
Width: 500
Flags: W
LayerCount: 2
Fore
SplineSet
324 0 m 1,0,1
 322 21 322 21 318.5 55.5 c 128,-1,2
 315 90 315 90 312 129.5 c 128,-1,3
 309 169 309 169 306 210.5 c 128,-1,4
 303 252 303 252 302 288 c 1,5,-1
 153 0 l 1,6,-1
 39 0 l 1,7,8
 59 151 59 151 89.5 304.5 c 128,-1,9
 120 458 120 458 155 619 c 1,10,-1
 268 619 l 1,11,-1
 145 133 l 1,12,-1
 282 400 l 1,13,-1
 369 400 l 1,14,15
 371 334 371 334 376 266 c 128,-1,16
 381 198 381 198 386 138 c 1,17,-1
 497 619 l 1,18,-1
 609 619 l 1,19,20
 588 543 588 543 566 461 c 128,-1,21
 544 379 544 379 521 297.5 c 128,-1,22
 498 216 498 216 475 140 c 128,-1,23
 452 64 452 64 430 0 c 1,24,-1
 324 0 l 1,0,1
EndSplineSet
EndChar

StartChar: X
Encoding: 88 88 59
Width: 500
Flags: W
LayerCount: 2
Fore
SplineSet
344 430 m 1,0,1
 377 473 377 473 412.5 521.5 c 128,-1,2
 448 570 448 570 480 619 c 1,3,-1
 610 619 l 1,4,5
 556 542 556 542 500 471 c 128,-1,6
 444 400 444 400 387 330 c 1,7,8
 403 287 403 287 418 240 c 128,-1,9
 433 193 433 193 444.5 148.5 c 128,-1,10
 456 104 456 104 464 65.5 c 128,-1,11
 472 27 472 27 475 0 c 1,12,-1
 353 0 l 1,13,14
 346 51 346 51 333.5 111.5 c 128,-1,15
 321 172 321 172 304 228 c 1,16,-1
 143 0 l 1,17,-1
 2 0 l 1,18,-1
 260 338 l 1,19,-1
 150 619 l 1,20,-1
 276 619 l 1,21,-1
 344 430 l 1,0,1
EndSplineSet
EndChar

StartChar: Y
Encoding: 89 89 60
Width: 500
Flags: W
LayerCount: 2
Fore
SplineSet
311 340 m 1,0,1
 327 363 327 363 350 397.5 c 128,-1,2
 373 432 373 432 397 470.5 c 128,-1,3
 421 509 421 509 444.5 548 c 128,-1,4
 468 587 468 587 486 619 c 1,5,-1
 618 619 l 1,6,7
 587 568 587 568 556.5 520 c 128,-1,8
 526 472 526 472 494 425 c 128,-1,9
 462 378 462 378 426.5 331.5 c 128,-1,10
 391 285 391 285 351 236 c 1,11,-1
 294 0 l 1,12,-1
 171 0 l 1,13,-1
 227 235 l 1,14,15
 196 332 196 332 176 424.5 c 128,-1,16
 156 517 156 517 142 619 c 1,17,-1
 263 619 l 1,18,19
 269 547 269 547 282.5 474.5 c 128,-1,20
 296 402 296 402 311 340 c 1,0,1
EndSplineSet
EndChar

StartChar: Z
Encoding: 90 90 61
Width: 500
Flags: W
LayerCount: 2
Fore
SplineSet
547 519 m 1,0,1
 489 454 489 454 440 398 c 128,-1,2
 391 342 391 342 348 291.5 c 128,-1,3
 305 241 305 241 266 194 c 128,-1,4
 227 147 227 147 190 101 c 1,5,-1
 459 101 l 1,6,-1
 434 0 l 1,7,-1
 28 0 l 1,8,-1
 48 81 l 1,9,10
 79 123 79 123 114.5 169 c 128,-1,11
 150 215 150 215 193.5 267.5 c 128,-1,12
 237 320 237 320 290.5 382 c 128,-1,13
 344 444 344 444 410 518 c 1,14,-1
 160 518 l 1,15,-1
 185 619 l 1,16,-1
 571 619 l 1,17,-1
 547 519 l 1,0,1
EndSplineSet
EndChar

StartChar: bracketleft
Encoding: 91 91 62
Width: 500
Flags: W
LayerCount: 2
Fore
SplineSet
297 699 m 1,0,-1
 575 699 l 1,1,-1
 552 603 l 1,2,-1
 392 603 l 1,3,-1
 230 -69 l 1,4,-1
 390 -69 l 1,5,-1
 367 -165 l 1,6,-1
 89 -165 l 1,7,-1
 297 699 l 1,0,-1
EndSplineSet
Substitution2: "'case' Case-Sensitive Forms lookup 17 subtable" Bracketleft
EndChar

StartChar: backslash
Encoding: 92 92 63
Width: 500
Flags: W
LayerCount: 2
Fore
SplineSet
206 699 m 1,0,-1
 323 699 l 1,1,-1
 404 -165 l 1,2,-1
 285 -165 l 1,3,-1
 206 699 l 1,0,-1
EndSplineSet
Substitution2: "'case' Case-Sensitive Forms lookup 17 subtable" Backslash
EndChar

StartChar: bracketright
Encoding: 93 93 64
Width: 500
Flags: W
LayerCount: 2
Fore
SplineSet
293 -165 m 1,0,-1
 15 -165 l 1,1,-1
 38 -69 l 1,2,-1
 198 -69 l 1,3,-1
 360 603 l 1,4,-1
 200 603 l 1,5,-1
 223 699 l 1,6,-1
 501 699 l 1,7,-1
 293 -165 l 1,0,-1
EndSplineSet
Substitution2: "'case' Case-Sensitive Forms lookup 17 subtable" Bracketright
EndChar

StartChar: asciicircum
Encoding: 94 94 65
Width: 500
Flags: W
LayerCount: 2
Fore
SplineSet
537 306 m 1,0,-1
 425 258 l 1,1,-1
 352 484 l 1,2,-1
 170 262 l 1,3,-1
 77 318 l 1,4,-1
 328 619 l 1,5,-1
 432 619 l 1,6,-1
 537 306 l 1,0,-1
EndSplineSet
EndChar

StartChar: underscore
Encoding: 95 95 66
Width: 500
Flags: W
LayerCount: 2
Fore
SplineSet
-8 -58 m 1,0,-1
 439 -58 l 1,1,-1
 413 -165 l 1,2,-1
 -34 -165 l 1,3,-1
 -8 -58 l 1,0,-1
EndSplineSet
EndChar

StartChar: grave
Encoding: 96 96 67
Width: 500
Flags: W
LayerCount: 2
Fore
SplineSet
299 691 m 1,0,-1
 457 573 l 1,1,-1
 412 506 l 1,2,-1
 238 597 l 1,3,-1
 299 691 l 1,0,-1
EndSplineSet
EndChar

StartChar: a
Encoding: 97 97 68
Width: 500
Flags: W
LayerCount: 2
Fore
SplineSet
251 94 m 0,0,1
 279 94 279 94 298 106.5 c 128,-1,2
 317 119 317 119 331 136 c 1,3,4
 333 150 333 150 335 163 c 128,-1,5
 337 176 337 176 341 193 c 2,6,-1
 384 371 l 1,7,8
 373 374 373 374 361 375 c 128,-1,9
 349 376 349 376 338 376 c 0,10,11
 303 376 303 376 275 359.5 c 128,-1,12
 247 343 247 343 227 316 c 128,-1,13
 207 289 207 289 196.5 254 c 128,-1,14
 186 219 186 219 186 182 c 0,15,16
 186 156 186 156 190.5 139 c 128,-1,17
 195 122 195 122 203.5 112 c 128,-1,18
 212 102 212 102 224 98 c 128,-1,19
 236 94 236 94 251 94 c 0,0,1
206 -11 m 0,20,21
 140 -10 140 -10 102 36.5 c 128,-1,22
 64 83 64 83 64 172 c 0,23,24
 64 240 64 240 87 297 c 128,-1,25
 110 354 110 354 150 394.5 c 128,-1,26
 190 435 190 435 243.5 457.5 c 128,-1,27
 297 480 297 480 357 480 c 0,28,29
 398 480 398 480 440 472 c 128,-1,30
 482 464 482 464 525 447 c 1,31,-1
 463 192 l 2,32,33
 459 174 459 174 457 156.5 c 128,-1,34
 455 139 455 139 455 121 c 0,35,36
 455 92 455 92 460.5 64.5 c 128,-1,37
 466 37 466 37 475 10 c 1,38,-1
 367 -8 l 1,39,40
 365 -4 365 -4 362 2 c 128,-1,41
 359 8 359 8 356 15 c 128,-1,42
 353 22 353 22 351 27.5 c 128,-1,43
 349 33 349 33 348 36 c 1,44,45
 328 21 328 21 294 5 c 128,-1,46
 260 -11 260 -11 206 -11 c 0,20,21
EndSplineSet
Substitution2: "'case' Case-Sensitive Forms lookup 18 subtable" A
Substitution2: "'ordn' Ordinals in Latin lookup 7 subtable" ordfeminine
EndChar

StartChar: b
Encoding: 98 98 69
Width: 500
Flags: W
LayerCount: 2
Fore
SplineSet
502 295 m 0,0,1
 502 227 502 227 481 170 c 128,-1,2
 460 113 460 113 422 72.5 c 128,-1,3
 384 32 384 32 331 9.5 c 128,-1,4
 278 -13 278 -13 214 -13 c 0,5,6
 174 -13 174 -13 126 -5 c 128,-1,7
 78 3 78 3 40 17 c 1,8,-1
 198 673 l 1,9,-1
 326 694 l 1,10,-1
 269 456 l 1,11,12
 290 467 290 467 313.5 473 c 128,-1,13
 337 479 337 479 359 479 c 0,14,15
 425 479 425 479 463.5 434.5 c 128,-1,16
 502 390 502 390 502 295 c 0,0,1
182 97 m 1,17,18
 193 95 193 95 205 94 c 128,-1,19
 217 93 217 93 228 93 c 0,20,21
 265 93 265 93 293 109 c 128,-1,22
 321 125 321 125 340.5 151.5 c 128,-1,23
 360 178 360 178 370 212.5 c 128,-1,24
 380 247 380 247 380 285 c 0,25,26
 380 337 380 337 362.5 356.5 c 128,-1,27
 345 376 345 376 316 376 c 0,28,29
 300 376 300 376 279.5 370 c 128,-1,30
 259 364 259 364 245 353 c 1,31,-1
 182 97 l 1,17,18
EndSplineSet
Substitution2: "'case' Case-Sensitive Forms lookup 18 subtable" B
EndChar

StartChar: c
Encoding: 99 99 70
Width: 500
Flags: W
LayerCount: 2
Fore
SplineSet
77 182 m 0,0,1
 77 247 77 247 100 302 c 128,-1,2
 123 357 123 357 164.5 396.5 c 128,-1,3
 206 436 206 436 263 458.5 c 128,-1,4
 320 481 320 481 389 481 c 0,5,6
 416 481 416 481 436.5 479 c 128,-1,7
 457 477 457 477 474 473.5 c 128,-1,8
 491 470 491 470 504.5 465.5 c 128,-1,9
 518 461 518 461 531 455 c 1,10,-1
 487 357 l 1,11,12
 471 364 471 364 446 369.5 c 128,-1,13
 421 375 421 375 389 375 c 0,14,15
 348 375 348 375 314 362.5 c 128,-1,16
 280 350 280 350 254.5 326 c 128,-1,17
 229 302 229 302 215 267 c 128,-1,18
 201 232 201 232 201 187 c 0,19,20
 201 167 201 167 206 150.5 c 128,-1,21
 211 134 211 134 224.5 122 c 128,-1,22
 238 110 238 110 261.5 103 c 128,-1,23
 285 96 285 96 321 96 c 0,24,25
 360 96 360 96 393.5 103.5 c 128,-1,26
 427 111 427 111 444 119 c 1,27,-1
 456 21 l 1,28,29
 444 15 444 15 430 9 c 128,-1,30
 416 3 416 3 397 -1.5 c 128,-1,31
 378 -6 378 -6 352.5 -8.5 c 128,-1,32
 327 -11 327 -11 292 -11 c 0,33,34
 231 -11 231 -11 190 4.5 c 128,-1,35
 149 20 149 20 124 46 c 128,-1,36
 99 72 99 72 88 107.5 c 128,-1,37
 77 143 77 143 77 182 c 0,0,1
EndSplineSet
Substitution2: "'case' Case-Sensitive Forms lookup 18 subtable" C
EndChar

StartChar: d
Encoding: 100 100 71
Width: 500
Flags: W
LayerCount: 2
Fore
SplineSet
251 94 m 0,0,1
 279 94 279 94 298 106.5 c 128,-1,2
 317 119 317 119 331 136 c 1,3,4
 333 150 333 150 335 163 c 128,-1,5
 337 176 337 176 341 193 c 2,6,-1
 384 371 l 1,7,8
 373 374 373 374 361 375 c 128,-1,9
 349 376 349 376 338 376 c 0,10,11
 303 376 303 376 275 359.5 c 128,-1,12
 247 343 247 343 227 316 c 128,-1,13
 207 289 207 289 196.5 254 c 128,-1,14
 186 219 186 219 186 182 c 0,15,16
 186 156 186 156 190.5 139 c 128,-1,17
 195 122 195 122 203.5 112 c 128,-1,18
 212 102 212 102 224 98 c 128,-1,19
 236 94 236 94 251 94 c 0,0,1
463 192 m 2,20,21
 459 174 459 174 457 156.5 c 128,-1,22
 455 139 455 139 455 121 c 0,23,24
 455 92 455 92 460.5 64.5 c 128,-1,25
 466 37 466 37 475 10 c 1,26,-1
 367 -8 l 1,27,28
 365 -4 365 -4 362 2 c 128,-1,29
 359 8 359 8 356 15 c 128,-1,30
 353 22 353 22 351 27.5 c 128,-1,31
 349 33 349 33 348 36 c 1,32,33
 328 21 328 21 294 5 c 128,-1,34
 260 -11 260 -11 206 -11 c 0,35,36
 140 -10 140 -10 102 36.5 c 128,-1,37
 64 83 64 83 64 172 c 0,38,39
 64 240 64 240 87 296.5 c 128,-1,40
 110 353 110 353 149.5 393 c 128,-1,41
 189 433 189 433 242.5 455 c 128,-1,42
 296 477 296 477 356 477 c 0,43,44
 383 477 383 477 408 470 c 1,45,-1
 456 673 l 1,46,-1
 584 694 l 1,47,-1
 463 192 l 2,20,21
EndSplineSet
Substitution2: "'case' Case-Sensitive Forms lookup 18 subtable" D
EndChar

StartChar: e
Encoding: 101 101 72
Width: 500
Flags: W
LayerCount: 2
Fore
SplineSet
196 167 m 1,0,1
 196 149 196 149 202 134.5 c 128,-1,2
 208 120 208 120 221.5 110 c 128,-1,3
 235 100 235 100 257.5 94.5 c 128,-1,4
 280 89 280 89 314 89 c 0,5,6
 354 89 354 89 390 97.5 c 128,-1,7
 426 106 426 106 443 114 c 1,8,-1
 451 21 l 1,9,10
 427 9 427 9 384 -1.5 c 128,-1,11
 341 -12 341 -12 290 -12 c 0,12,13
 233 -12 233 -12 192 2.5 c 128,-1,14
 151 17 151 17 125 43 c 128,-1,15
 99 69 99 69 87 104.5 c 128,-1,16
 75 140 75 140 75 183 c 0,17,18
 75 241 75 241 94.5 295.5 c 128,-1,19
 114 350 114 350 151.5 391 c 128,-1,20
 189 432 189 432 242.5 457 c 128,-1,21
 296 482 296 482 365 482 c 256,22,23
 434 482 434 482 478 448 c 128,-1,24
 522 414 522 414 522 353 c 0,25,26
 522 302 522 302 497 266.5 c 128,-1,27
 472 231 472 231 428 209 c 128,-1,28
 384 187 384 187 324.5 177 c 128,-1,29
 265 167 265 167 196 167 c 1,0,1
342 384 m 0,30,31
 296 384 296 384 254.5 352.5 c 128,-1,32
 213 321 213 321 197 252 c 1,33,34
 260 252 260 252 300.5 260 c 128,-1,35
 341 268 341 268 364 280.5 c 128,-1,36
 387 293 387 293 396 308 c 128,-1,37
 405 323 405 323 405 336 c 0,38,39
 405 359 405 359 388.5 371.5 c 128,-1,40
 372 384 372 384 342 384 c 0,30,31
EndSplineSet
Substitution2: "'case' Case-Sensitive Forms lookup 18 subtable" E
EndChar

StartChar: f
Encoding: 102 102 73
Width: 500
Flags: W
LayerCount: 2
Fore
SplineSet
278 26 m 2,0,1
 259 -68 259 -68 206 -118 c 128,-1,2
 153 -168 153 -168 65 -168 c 0,3,4
 35 -168 35 -168 10 -162.5 c 128,-1,5
 -15 -157 -15 -157 -35 -148 c 1,6,-1
 -1 -44 l 1,7,8
 12 -49 12 -49 27.5 -52.5 c 128,-1,9
 43 -56 43 -56 63 -56 c 0,10,11
 85 -56 85 -56 101 -49 c 128,-1,12
 117 -42 117 -42 127.5 -30.5 c 128,-1,13
 138 -19 138 -19 144.5 -3.5 c 128,-1,14
 151 12 151 12 154 30 c 2,15,-1
 222 368 l 1,16,-1
 121 368 l 1,17,-1
 146 470 l 1,18,-1
 243 470 l 1,19,-1
 248 497 l 2,20,21
 260 554 260 554 281.5 591.5 c 128,-1,22
 303 629 303 629 332.5 651.5 c 128,-1,23
 362 674 362 674 398 683.5 c 128,-1,24
 434 693 434 693 474 693 c 0,25,26
 506 693 506 693 535.5 688 c 128,-1,27
 565 683 565 683 591 671 c 1,28,-1
 548 571 l 1,29,30
 528 580 528 580 510.5 584 c 128,-1,31
 493 588 493 588 472 588 c 0,32,33
 454 588 454 588 438.5 585.5 c 128,-1,34
 423 583 423 583 410 573.5 c 128,-1,35
 397 564 397 564 387 546 c 128,-1,36
 377 528 377 528 371 497 c 2,37,-1
 366 470 l 1,38,-1
 536 470 l 1,39,-1
 511 368 l 1,40,-1
 346 368 l 1,41,-1
 278 26 l 2,0,1
EndSplineSet
Substitution2: "'case' Case-Sensitive Forms lookup 18 subtable" F
EndChar

StartChar: g
Encoding: 103 103 74
Width: 500
Flags: W
LayerCount: 2
Fore
SplineSet
438 55 m 2,0,1
 424 -3 424 -3 403 -45 c 128,-1,2
 382 -87 382 -87 349.5 -114.5 c 128,-1,3
 317 -142 317 -142 272 -155 c 128,-1,4
 227 -168 227 -168 166 -168 c 0,5,6
 113 -168 113 -168 75.5 -158.5 c 128,-1,7
 38 -149 38 -149 1 -129 c 1,8,-1
 44 -32 l 1,9,10
 70 -43 70 -43 102.5 -53 c 128,-1,11
 135 -63 135 -63 178 -63 c 0,12,13
 238 -63 238 -63 268.5 -37.5 c 128,-1,14
 299 -12 299 -12 309 30 c 2,15,-1
 315 56 l 1,16,17
 293 45 293 45 270 38.5 c 128,-1,18
 247 32 247 32 226 32 c 0,19,20
 146 32 146 32 111 77 c 128,-1,21
 76 122 76 122 76 196 c 0,22,23
 76 264 76 264 100.5 317 c 128,-1,24
 125 370 125 370 166 406 c 128,-1,25
 207 442 207 442 259.5 461 c 128,-1,26
 312 480 312 480 368 480 c 0,27,28
 410 480 410 480 452.5 473.5 c 128,-1,29
 495 467 495 467 533 451 c 1,30,-1
 438 55 l 2,0,1
392 374 m 1,31,32
 368 380 368 380 346 380 c 0,33,34
 312 380 312 380 284.5 365.5 c 128,-1,35
 257 351 257 351 237.5 327 c 128,-1,36
 218 303 218 303 207 271 c 128,-1,37
 196 239 196 239 196 205 c 0,38,39
 196 175 196 175 209 153 c 128,-1,40
 222 131 222 131 262 131 c 0,41,42
 276 131 276 131 297.5 136.5 c 128,-1,43
 319 142 319 142 339 155 c 1,44,-1
 392 374 l 1,31,32
EndSplineSet
Substitution2: "'case' Case-Sensitive Forms lookup 18 subtable" G
EndChar

StartChar: h
Encoding: 104 104 75
Width: 500
Flags: W
LayerCount: 2
Fore
SplineSet
279 468 m 1,0,1
 296 473 296 473 314 476.5 c 128,-1,2
 332 480 332 480 349 480 c 0,3,4
 423 480 423 480 460 444.5 c 128,-1,5
 497 409 497 409 497 344 c 0,6,7
 497 327 497 327 494.5 307 c 128,-1,8
 492 287 492 287 487 265 c 2,9,-1
 423 0 l 1,10,-1
 300 0 l 1,11,-1
 360 249 l 2,12,13
 363 265 363 265 367 282 c 128,-1,14
 371 299 371 299 371 316 c 0,15,16
 371 339 371 339 359 356.5 c 128,-1,17
 347 374 347 374 313 374 c 0,18,19
 300 374 300 374 284.5 371.5 c 128,-1,20
 269 369 269 369 255 363 c 1,21,-1
 167 0 l 1,22,-1
 44 0 l 1,23,-1
 205 673 l 1,24,-1
 333 694 l 1,25,-1
 279 468 l 1,0,1
EndSplineSet
Substitution2: "'case' Case-Sensitive Forms lookup 18 subtable" H
EndChar

StartChar: i
Encoding: 105 105 76
Width: 500
Flags: W
LayerCount: 2
Fore
SplineSet
459 13 m 1,0,1
 422 -1 422 -1 389.5 -6 c 128,-1,2
 357 -11 357 -11 329 -11 c 0,3,4
 258 -11 258 -11 224 23.5 c 128,-1,5
 190 58 190 58 190 121 c 0,6,7
 190 154 190 154 201 198 c 2,8,-1
 241 368 l 1,9,-1
 111 368 l 1,10,-1
 136 470 l 1,11,-1
 389 470 l 1,12,-1
 321 183 l 2,13,14
 315 162 315 162 315 146 c 0,15,16
 315 96 315 96 366 96 c 0,17,18
 383 96 383 96 406 99.5 c 128,-1,19
 429 103 429 103 457 113 c 1,20,-1
 459 13 l 1,0,1
332 527 m 0,21,22
 300 527 300 527 280.5 544 c 128,-1,23
 261 561 261 561 261 597 c 0,24,25
 261 616 261 616 268 632.5 c 128,-1,26
 275 649 275 649 286.5 660 c 128,-1,27
 298 671 298 671 313 677.5 c 128,-1,28
 328 684 328 684 344 684 c 0,29,30
 373 684 373 684 394.5 667 c 128,-1,31
 416 650 416 650 416 612 c 0,32,33
 416 594 416 594 408.5 578 c 128,-1,34
 401 562 401 562 389 551 c 128,-1,35
 377 540 377 540 362 533.5 c 128,-1,36
 347 527 347 527 332 527 c 0,21,22
EndSplineSet
Substitution2: "'case' Case-Sensitive Forms lookup 18 subtable" I
Substitution2: "'locl' Localized Forms in Latin lookup 2 subtable" i.locl
Substitution2: "'locl' Localized Forms in Latin lookup 1 subtable" i.locl
Substitution2: "'locl' Localized Forms in Latin lookup 0 subtable" i.locl
EndChar

StartChar: j
Encoding: 106 106 77
Width: 500
Flags: W
LayerCount: 2
Fore
SplineSet
367 25 m 2,0,1
 353 -32 353 -32 333.5 -70 c 128,-1,2
 314 -108 314 -108 288 -130 c 128,-1,3
 262 -152 262 -152 229 -161 c 128,-1,4
 196 -170 196 -170 155 -170 c 0,5,6
 104 -170 104 -170 62 -157.5 c 128,-1,7
 20 -145 20 -145 -6 -125 c 1,8,-1
 42 -26 l 1,9,10
 64 -40 64 -40 89 -51 c 128,-1,11
 114 -62 114 -62 146 -62 c 0,12,13
 184 -62 184 -62 208 -43.5 c 128,-1,14
 232 -25 232 -25 244 25 c 2,15,-1
 326 368 l 1,16,-1
 136 368 l 1,17,-1
 161 470 l 1,18,-1
 474 470 l 1,19,-1
 367 25 l 2,0,1
396 527 m 0,20,21
 364 527 364 527 344 544 c 128,-1,22
 324 561 324 561 324 597 c 0,23,24
 324 616 324 616 331 632.5 c 128,-1,25
 338 649 338 649 349.5 660 c 128,-1,26
 361 671 361 671 376 677.5 c 128,-1,27
 391 684 391 684 407 684 c 0,28,29
 437 684 437 684 458.5 667 c 128,-1,30
 480 650 480 650 480 612 c 0,31,32
 480 594 480 594 472.5 578 c 128,-1,33
 465 562 465 562 453 551 c 128,-1,34
 441 540 441 540 426 533.5 c 128,-1,35
 411 527 411 527 396 527 c 0,20,21
EndSplineSet
Substitution2: "'case' Case-Sensitive Forms lookup 18 subtable" J
EndChar

StartChar: k
Encoding: 107 107 78
Width: 500
Flags: W
LayerCount: 2
Fore
SplineSet
567 470 m 1,0,1
 519 412 519 412 459 355.5 c 128,-1,2
 399 299 399 299 345 254 c 1,3,4
 363 232 363 232 381.5 200.5 c 128,-1,5
 400 169 400 169 418 134 c 128,-1,6
 436 99 436 99 451 64 c 128,-1,7
 466 29 466 29 476 0 c 1,8,-1
 343 0 l 1,9,10
 335 25 335 25 322 57 c 128,-1,11
 309 89 309 89 294 121 c 128,-1,12
 279 153 279 153 263 181 c 128,-1,13
 247 209 247 209 232 227 c 1,14,-1
 178 0 l 1,15,-1
 54 0 l 1,16,-1
 216 673 l 1,17,-1
 344 694 l 1,18,-1
 247 290 l 1,19,20
 265 305 265 305 289 327 c 128,-1,21
 313 349 313 349 338 373.5 c 128,-1,22
 363 398 363 398 386.5 423.5 c 128,-1,23
 410 449 410 449 427 470 c 1,24,-1
 567 470 l 1,0,1
EndSplineSet
Substitution2: "'case' Case-Sensitive Forms lookup 18 subtable" K
EndChar

StartChar: l
Encoding: 108 108 79
Width: 500
Flags: W
LayerCount: 2
Fore
SplineSet
455 20 m 1,0,1
 451 18 451 18 439.5 12.5 c 128,-1,2
 428 7 428 7 409 2 c 128,-1,3
 390 -3 390 -3 364.5 -7 c 128,-1,4
 339 -11 339 -11 308 -11 c 0,5,6
 240 -11 240 -11 206 24 c 128,-1,7
 172 59 172 59 172 122 c 0,8,9
 172 139 172 139 174.5 157.5 c 128,-1,10
 177 176 177 176 182 196 c 2,11,-1
 275 586 l 1,12,-1
 145 586 l 1,13,-1
 169 688 l 1,14,-1
 422 688 l 1,15,-1
 304 188 l 2,16,17
 302 178 302 178 299.5 166.5 c 128,-1,18
 297 155 297 155 297 146 c 0,19,20
 297 126 297 126 308 111 c 128,-1,21
 319 96 319 96 353 96 c 0,22,23
 367 96 367 96 381.5 98.5 c 128,-1,24
 396 101 396 101 409 105 c 128,-1,25
 422 109 422 109 432 112 c 128,-1,26
 442 115 442 115 447 117 c 1,27,-1
 455 20 l 1,0,1
EndSplineSet
Substitution2: "'case' Case-Sensitive Forms lookup 18 subtable" L
EndChar

StartChar: m
Encoding: 109 109 80
Width: 500
Flags: W
LayerCount: 2
Fore
SplineSet
129 449 m 1,0,1
 166 462 166 462 196.5 468.5 c 128,-1,2
 227 475 227 475 256 475 c 0,3,4
 282 475 282 475 304.5 467 c 128,-1,5
 327 459 327 459 341 440 c 1,6,7
 364 458 364 458 390.5 466.5 c 128,-1,8
 417 475 417 475 438 475 c 0,9,10
 478 475 478 475 503.5 450.5 c 128,-1,11
 529 426 529 426 529 374 c 0,12,13
 529 362 529 362 527.5 348.5 c 128,-1,14
 526 335 526 335 522 321 c 2,15,-1
 446 0 l 1,16,-1
 346 0 l 1,17,-1
 424 330 l 2,18,19
 426 337 426 337 427 344.5 c 128,-1,20
 428 352 428 352 428 356 c 0,21,22
 428 386 428 386 401 386 c 0,23,24
 391 386 391 386 382 381 c 128,-1,25
 373 376 373 376 365 369 c 1,26,27
 365 346 365 346 359 321 c 2,28,-1
 325 179 l 1,29,-1
 228 179 l 1,30,-1
 263 328 l 2,31,32
 265 334 265 334 267 342 c 128,-1,33
 269 350 269 350 269 358 c 0,34,35
 269 368 269 368 264 376.5 c 128,-1,36
 259 385 259 385 244 385 c 0,37,38
 227 385 227 385 212 380 c 1,39,-1
 121 0 l 1,40,-1
 21 0 l 1,41,-1
 129 449 l 1,0,1
EndSplineSet
Substitution2: "'case' Case-Sensitive Forms lookup 18 subtable" M
EndChar

StartChar: n
Encoding: 110 110 81
Width: 500
Flags: W
LayerCount: 2
Fore
SplineSet
152 450 m 1,0,1
 183 460 183 460 233 470 c 128,-1,2
 283 480 283 480 340 480 c 0,3,4
 424 480 424 480 460.5 444 c 128,-1,5
 497 408 497 408 497 344 c 0,6,7
 497 327 497 327 494.5 307 c 128,-1,8
 492 287 492 287 487 265 c 2,9,-1
 422 0 l 1,10,-1
 299 0 l 1,11,-1
 360 249 l 2,12,13
 363 265 363 265 367 282 c 128,-1,14
 371 299 371 299 371 316 c 0,15,16
 371 339 371 339 358.5 356.5 c 128,-1,17
 346 374 346 374 313 374 c 0,18,19
 299 374 299 374 284 371.5 c 128,-1,20
 269 369 269 369 255 363 c 1,21,-1
 167 0 l 1,22,-1
 44 0 l 1,23,-1
 152 450 l 1,0,1
EndSplineSet
Substitution2: "'case' Case-Sensitive Forms lookup 18 subtable" N
EndChar

StartChar: o
Encoding: 111 111 82
Width: 500
Flags: W
LayerCount: 2
Fore
SplineSet
256 94 m 0,0,1
 286 94 286 94 309 112 c 128,-1,2
 332 130 332 130 348.5 157 c 128,-1,3
 365 184 365 184 373.5 215.5 c 128,-1,4
 382 247 382 247 382 275 c 0,5,6
 382 322 382 322 368.5 349 c 128,-1,7
 355 376 355 376 313 376 c 0,8,9
 284 376 284 376 260.5 358 c 128,-1,10
 237 340 237 340 221 313 c 128,-1,11
 205 286 205 286 196.5 254.5 c 128,-1,12
 188 223 188 223 188 195 c 0,13,14
 188 148 188 148 201.5 121 c 128,-1,15
 215 94 215 94 256 94 c 0,0,1
231 -13 m 0,16,17
 147 -13 147 -13 106 35 c 128,-1,18
 65 83 65 83 65 163 c 0,19,20
 65 223 65 223 83 280 c 128,-1,21
 101 337 101 337 136 382 c 128,-1,22
 171 427 171 427 223 454.5 c 128,-1,23
 275 482 275 482 343 482 c 0,24,25
 416 482 416 482 460.5 437.5 c 128,-1,26
 505 393 505 393 505 305 c 0,27,28
 505 246 505 246 488 189 c 128,-1,29
 471 132 471 132 436.5 87 c 128,-1,30
 402 42 402 42 350.5 14.5 c 128,-1,31
 299 -13 299 -13 231 -13 c 0,16,17
EndSplineSet
Substitution2: "'case' Case-Sensitive Forms lookup 18 subtable" O
Substitution2: "'ordn' Ordinals in Latin lookup 7 subtable" ordmasculine
EndChar

StartChar: p
Encoding: 112 112 83
Width: 500
Flags: W
LayerCount: 2
Fore
SplineSet
327 480 m 0,0,1
 420 480 420 480 463 432.5 c 128,-1,2
 506 385 506 385 506 310 c 0,3,4
 506 248 506 248 488 190 c 128,-1,5
 470 132 470 132 433.5 87.5 c 128,-1,6
 397 43 397 43 341 16.5 c 128,-1,7
 285 -10 285 -10 210 -10 c 0,8,9
 190 -10 190 -10 179 -9 c 128,-1,10
 168 -8 168 -8 160 -6 c 1,11,-1
 121 -165 l 1,12,-1
 -2 -165 l 1,13,-1
 146 448 l 1,14,15
 167 457 167 457 191 463 c 128,-1,16
 215 469 215 469 239.5 473 c 128,-1,17
 264 477 264 477 286.5 478.5 c 128,-1,18
 309 480 309 480 327 480 c 0,0,1
185 98 m 1,19,20
 190 96 190 96 196 96 c 128,-1,21
 202 96 202 96 209 96 c 0,22,23
 250 96 250 96 283 112.5 c 128,-1,24
 316 129 316 129 338.5 157 c 128,-1,25
 361 185 361 185 373 222.5 c 128,-1,26
 385 260 385 260 385 301 c 0,27,28
 385 316 385 316 382 330 c 128,-1,29
 379 344 379 344 371 355 c 128,-1,30
 363 366 363 366 348 372.5 c 128,-1,31
 333 379 333 379 309 379 c 0,32,33
 289 379 289 379 275.5 377 c 128,-1,34
 262 375 262 375 251 372 c 1,35,-1
 185 98 l 1,19,20
EndSplineSet
Substitution2: "'case' Case-Sensitive Forms lookup 18 subtable" P
EndChar

StartChar: q
Encoding: 113 113 84
Width: 500
Flags: W
LayerCount: 2
Fore
SplineSet
72 172 m 0,0,1
 72 241 72 241 95 297.5 c 128,-1,2
 118 354 118 354 158 394.5 c 128,-1,3
 198 435 198 435 251.5 457.5 c 128,-1,4
 305 480 305 480 365 480 c 0,5,6
 406 480 406 480 448 472 c 128,-1,7
 490 464 490 464 533 447 c 1,8,-1
 386 -165 l 1,9,-1
 263 -165 l 1,10,-1
 305 13 l 1,11,12
 261 -9 261 -9 214 -9 c 0,13,14
 149 -9 149 -9 110.5 37 c 128,-1,15
 72 83 72 83 72 172 c 0,0,1
392 371 m 1,16,17
 381 374 381 374 369 375 c 128,-1,18
 357 376 357 376 346 376 c 0,19,20
 311 376 311 376 283 359.5 c 128,-1,21
 255 343 255 343 235 316 c 128,-1,22
 215 289 215 289 204.5 254 c 128,-1,23
 194 219 194 219 194 182 c 0,24,25
 194 156 194 156 198.5 139 c 128,-1,26
 203 122 203 122 211.5 112 c 128,-1,27
 220 102 220 102 232 98 c 128,-1,28
 244 94 244 94 259 94 c 0,29,30
 275 94 275 94 295.5 100.5 c 128,-1,31
 316 107 316 107 330 118 c 1,32,-1
 392 371 l 1,16,17
EndSplineSet
Substitution2: "'case' Case-Sensitive Forms lookup 18 subtable" Q
EndChar

StartChar: r
Encoding: 114 114 85
Width: 500
Flags: W
LayerCount: 2
Fore
SplineSet
488 348 m 1,0,1
 469 355 469 355 443 359 c 128,-1,2
 417 363 417 363 379 363 c 0,3,4
 353 363 353 363 325.5 359.5 c 128,-1,5
 298 356 298 356 275 348 c 1,6,-1
 192 0 l 1,7,-1
 69 0 l 1,8,-1
 174 439 l 1,9,10
 221 458 221 458 275.5 468.5 c 128,-1,11
 330 479 330 479 378 479 c 0,12,13
 434 479 434 479 469.5 474 c 128,-1,14
 505 469 505 469 535 461 c 1,15,-1
 488 348 l 1,0,1
EndSplineSet
Substitution2: "'case' Case-Sensitive Forms lookup 18 subtable" R
EndChar

StartChar: s
Encoding: 115 115 86
Width: 500
Flags: W
LayerCount: 2
Fore
SplineSet
234 91 m 0,0,1
 287 91 287 91 307 105 c 128,-1,2
 327 119 327 119 327 138 c 0,3,4
 327 147 327 147 323.5 154 c 128,-1,5
 320 161 320 161 311.5 167.5 c 128,-1,6
 303 174 303 174 288 180.5 c 128,-1,7
 273 187 273 187 250 196 c 0,8,9
 222 206 222 206 201 217 c 128,-1,10
 180 228 180 228 166 242.5 c 128,-1,11
 152 257 152 257 145 276 c 128,-1,12
 138 295 138 295 138 321 c 0,13,14
 138 394 138 394 189.5 438 c 128,-1,15
 241 482 241 482 344 482 c 0,16,17
 395 482 395 482 437.5 473 c 128,-1,18
 480 464 480 464 505 452 c 1,19,-1
 460 355 l 1,20,21
 437 366 437 366 407.5 373 c 128,-1,22
 378 380 378 380 333 380 c 0,23,24
 323 380 323 380 310.5 378.5 c 128,-1,25
 298 377 298 377 287 372 c 128,-1,26
 276 367 276 367 268.5 358.5 c 128,-1,27
 261 350 261 350 261 337 c 0,28,29
 261 328 261 328 263.5 321.5 c 128,-1,30
 266 315 266 315 274 308.5 c 128,-1,31
 282 302 282 302 297 295 c 128,-1,32
 312 288 312 288 337 279 c 0,33,34
 367 267 367 267 388.5 255 c 128,-1,35
 410 243 410 243 424.5 228 c 128,-1,36
 439 213 439 213 445.5 193 c 128,-1,37
 452 173 452 173 452 145 c 0,38,39
 452 116 452 116 440 88 c 128,-1,40
 428 60 428 60 402.5 37.5 c 128,-1,41
 377 15 377 15 336 1 c 128,-1,42
 295 -13 295 -13 238 -13 c 0,43,44
 197 -13 197 -13 166 -8 c 128,-1,45
 135 -3 135 -3 112 4 c 128,-1,46
 89 11 89 11 73.5 18.5 c 128,-1,47
 58 26 58 26 49 31 c 1,48,-1
 95 128 l 1,49,50
 115 117 115 117 150 104 c 128,-1,51
 185 91 185 91 234 91 c 0,0,1
EndSplineSet
Substitution2: "'case' Case-Sensitive Forms lookup 18 subtable" S
EndChar

StartChar: t
Encoding: 116 116 87
Width: 500
Flags: W
LayerCount: 2
Fore
SplineSet
204 368 m 1,0,-1
 110 368 l 1,1,-1
 135 470 l 1,2,-1
 228 470 l 1,3,-1
 256 588 l 1,4,-1
 385 608 l 1,5,-1
 351 470 l 1,6,-1
 530 470 l 1,7,-1
 505 368 l 1,8,-1
 327 368 l 1,9,-1
 283 185 l 2,10,11
 278 160 278 160 278 146 c 0,12,13
 278 116 278 116 298.5 106 c 128,-1,14
 319 96 319 96 345 96 c 0,15,16
 372 96 372 96 400.5 102.5 c 128,-1,17
 429 109 429 109 456 120 c 1,18,-1
 455 17 l 1,19,20
 424 3 424 3 386.5 -4 c 128,-1,21
 349 -11 349 -11 312 -11 c 0,22,23
 232 -11 232 -11 192.5 23.5 c 128,-1,24
 153 58 153 58 153 124 c 0,25,26
 153 140 153 140 155 156.5 c 128,-1,27
 157 173 157 173 162 192 c 2,28,-1
 204 368 l 1,0,-1
EndSplineSet
Substitution2: "'case' Case-Sensitive Forms lookup 18 subtable" T
EndChar

StartChar: u
Encoding: 117 117 88
Width: 500
Flags: W
LayerCount: 2
Fore
SplineSet
221 -11 m 0,0,1
 140 -11 140 -11 108 27 c 128,-1,2
 76 65 76 65 76 131 c 0,3,4
 76 177 76 177 90 238 c 2,5,-1
 146 470 l 1,6,-1
 269 470 l 1,7,-1
 216 246 l 2,8,9
 208 216 208 216 204 191.5 c 128,-1,10
 200 167 200 167 200 148 c 0,11,12
 200 96 200 96 250 96 c 0,13,14
 278 96 278 96 294.5 107.5 c 128,-1,15
 311 119 311 119 326 136 c 1,16,17
 328 150 328 150 329.5 163 c 128,-1,18
 331 176 331 176 336 193 c 2,19,-1
 402 470 l 1,20,-1
 525 470 l 1,21,-1
 458 192 l 2,22,23
 454 174 454 174 451.5 156.5 c 128,-1,24
 449 139 449 139 449 121 c 0,25,26
 449 92 449 92 455 64.5 c 128,-1,27
 461 37 461 37 470 10 c 1,28,-1
 362 -8 l 1,29,30
 360 -4 360 -4 357 2 c 128,-1,31
 354 8 354 8 351 15 c 128,-1,32
 348 22 348 22 346 27.5 c 128,-1,33
 344 33 344 33 343 36 c 1,34,35
 323 21 323 21 291 5 c 128,-1,36
 259 -11 259 -11 221 -11 c 0,0,1
EndSplineSet
Substitution2: "'case' Case-Sensitive Forms lookup 18 subtable" U
EndChar

StartChar: v
Encoding: 118 118 89
Width: 500
Flags: W
LayerCount: 2
Fore
SplineSet
174 0 m 1,0,1
 151 91 151 91 132.5 209.5 c 128,-1,2
 114 328 114 328 106 470 c 1,3,-1
 234 470 l 1,4,5
 235 434 235 434 237 391 c 128,-1,6
 239 348 239 348 242.5 304.5 c 128,-1,7
 246 261 246 261 250.5 218 c 128,-1,8
 255 175 255 175 260 139 c 1,9,10
 281 169 281 169 305 210.5 c 128,-1,11
 329 252 329 252 351.5 297.5 c 128,-1,12
 374 343 374 343 393 388 c 128,-1,13
 412 433 412 433 423 470 c 1,14,-1
 555 470 l 1,15,16
 531 406 531 406 498 338.5 c 128,-1,17
 465 271 465 271 428.5 208.5 c 128,-1,18
 392 146 392 146 354.5 92 c 128,-1,19
 317 38 317 38 285 0 c 1,20,-1
 174 0 l 1,0,1
EndSplineSet
Substitution2: "'case' Case-Sensitive Forms lookup 18 subtable" V
EndChar

StartChar: w
Encoding: 119 119 90
Width: 500
Flags: W
LayerCount: 2
Fore
SplineSet
307 0 m 1,0,1
 302 53 302 53 298.5 107.5 c 128,-1,2
 295 162 295 162 291 232 c 1,3,4
 273 195 273 195 258 165.5 c 128,-1,5
 243 136 243 136 227.5 110 c 128,-1,6
 212 84 212 84 195.5 57.5 c 128,-1,7
 179 31 179 31 159 0 c 1,8,-1
 64 0 l 1,9,10
 64 44 64 44 66 97.5 c 128,-1,11
 68 151 68 151 72.5 211.5 c 128,-1,12
 77 272 77 272 84 337 c 128,-1,13
 91 402 91 402 102 470 c 1,14,-1
 209 470 l 1,15,16
 192 383 192 383 177 299.5 c 128,-1,17
 162 216 162 216 151 123 c 1,18,19
 174 163 174 163 192 197 c 128,-1,20
 210 231 210 231 225 261 c 128,-1,21
 240 291 240 291 253 318.5 c 128,-1,22
 266 346 266 346 279 375 c 1,23,-1
 360 375 l 1,24,25
 362 319 362 319 364.5 261 c 128,-1,26
 367 203 367 203 371 123 c 1,27,28
 387 171 387 171 400.5 214 c 128,-1,29
 414 257 414 257 425.5 299 c 128,-1,30
 437 341 437 341 448 383 c 128,-1,31
 459 425 459 425 470 470 c 1,32,-1
 578 470 l 1,33,34
 534 333 534 333 490.5 212 c 128,-1,35
 447 91 447 91 399 0 c 1,36,-1
 307 0 l 1,0,1
EndSplineSet
Substitution2: "'case' Case-Sensitive Forms lookup 18 subtable" W
EndChar

StartChar: x
Encoding: 120 120 91
Width: 500
Flags: W
LayerCount: 2
Fore
SplineSet
238 470 m 1,0,-1
 307 320 l 1,1,2
 337 356 337 356 366 394.5 c 128,-1,3
 395 433 395 433 420 470 c 1,4,-1
 550 470 l 1,5,6
 512 416 512 416 467 358.5 c 128,-1,7
 422 301 422 301 363 238 c 1,8,9
 398 172 398 172 423.5 116 c 128,-1,10
 449 60 449 60 469 0 c 1,11,-1
 343 0 l 1,12,13
 327 42 327 42 309.5 81.5 c 128,-1,14
 292 121 292 121 277 152 c 1,15,-1
 145 0 l 1,16,-1
 10 0 l 1,17,-1
 223 239 l 1,18,-1
 109 470 l 1,19,-1
 238 470 l 1,0,-1
EndSplineSet
Substitution2: "'case' Case-Sensitive Forms lookup 18 subtable" X
EndChar

StartChar: y
Encoding: 121 121 92
Width: 500
Flags: W
LayerCount: 2
Fore
SplineSet
549 470 m 1,0,1
 523 401 523 401 498 342 c 128,-1,2
 473 283 473 283 446.5 230 c 128,-1,3
 420 177 420 177 391 128.5 c 128,-1,4
 362 80 362 80 329 33 c 0,5,6
 304 -3 304 -3 275.5 -38.5 c 128,-1,7
 247 -74 247 -74 213.5 -103 c 128,-1,8
 180 -132 180 -132 140 -150 c 128,-1,9
 100 -168 100 -168 53 -168 c 0,10,11
 -9 -168 -9 -168 -43 -147 c 1,12,-1
 -4 -49 l 1,13,14
 12 -56 12 -56 26 -59.5 c 128,-1,15
 40 -63 40 -63 62 -63 c 0,16,17
 135 -63 135 -63 183 9 c 1,18,19
 159 105 159 105 139.5 217.5 c 128,-1,20
 120 330 120 330 113 470 c 1,21,-1
 241 470 l 1,22,23
 242 434 242 434 244.5 391 c 128,-1,24
 247 348 247 348 251 304 c 128,-1,25
 255 260 255 260 260.5 217 c 128,-1,26
 266 174 266 174 273 139 c 1,27,28
 319 209 319 209 354 290.5 c 128,-1,29
 389 372 389 372 418 470 c 1,30,-1
 549 470 l 1,0,1
EndSplineSet
Substitution2: "'case' Case-Sensitive Forms lookup 18 subtable" Y
EndChar

StartChar: z
Encoding: 122 122 93
Width: 500
Flags: W
LayerCount: 2
Fore
SplineSet
509 380 m 1,0,1
 489 363 489 363 456.5 332.5 c 128,-1,2
 424 302 424 302 385 264.5 c 128,-1,3
 346 227 346 227 304 185 c 128,-1,4
 262 143 262 143 224 102 c 1,5,-1
 449 102 l 1,6,-1
 424 0 l 1,7,-1
 49 0 l 1,8,-1
 70 81 l 1,9,10
 97 113 97 113 131.5 150.5 c 128,-1,11
 166 188 166 188 203.5 226.5 c 128,-1,12
 241 265 241 265 278 301.5 c 128,-1,13
 315 338 315 338 347 368 c 1,14,-1
 144 368 l 1,15,-1
 169 470 l 1,16,-1
 530 470 l 1,17,-1
 509 380 l 1,0,1
EndSplineSet
Substitution2: "'case' Case-Sensitive Forms lookup 18 subtable" Z
EndChar

StartChar: braceleft
Encoding: 123 123 94
Width: 500
Flags: W
LayerCount: 2
Fore
SplineSet
247 267 m 1,0,1
 281 252 281 252 293 226 c 128,-1,2
 305 200 305 200 305 170 c 0,3,4
 305 156 305 156 303.5 141.5 c 128,-1,5
 302 127 302 127 298 113 c 2,6,-1
 276 14 l 2,7,8
 274 4 274 4 271.5 -8 c 128,-1,9
 269 -20 269 -20 269 -30 c 0,10,11
 269 -47 269 -47 279 -58 c 128,-1,12
 289 -69 289 -69 315 -69 c 2,13,-1
 405 -69 l 1,14,-1
 382 -165 l 1,15,-1
 289 -165 l 2,16,17
 260 -165 260 -165 235.5 -159 c 128,-1,18
 211 -153 211 -153 193 -139.5 c 128,-1,19
 175 -126 175 -126 164.5 -103.5 c 128,-1,20
 154 -81 154 -81 154 -49 c 0,21,22
 154 -23 154 -23 163 13 c 2,23,-1
 188 122 l 2,24,25
 191 134 191 134 193.5 146 c 128,-1,26
 196 158 196 158 196 170 c 0,27,28
 196 190 196 190 185.5 204.5 c 128,-1,29
 175 219 175 219 146 219 c 2,30,-1
 99 219 l 1,31,-1
 122 315 l 1,32,-1
 171 315 l 2,33,34
 202 315 202 315 224 336.5 c 128,-1,35
 246 358 246 358 255 399 c 2,36,-1
 290 547 l 2,37,38
 299 584 299 584 311.5 612.5 c 128,-1,39
 324 641 324 641 344.5 660 c 128,-1,40
 365 679 365 679 396 689 c 128,-1,41
 427 699 427 699 472 699 c 2,42,-1
 579 699 l 1,43,-1
 555 603 l 1,44,-1
 480 603 l 2,45,46
 459 603 459 603 445.5 598.5 c 128,-1,47
 432 594 432 594 423 584.5 c 128,-1,48
 414 575 414 575 408 559.5 c 128,-1,49
 402 544 402 544 397 523 c 2,50,-1
 367 396 l 2,51,52
 353 340 353 340 326.5 308.5 c 128,-1,53
 300 277 300 277 247 267 c 1,0,1
EndSplineSet
Substitution2: "'case' Case-Sensitive Forms lookup 17 subtable" Braceleft
EndChar

StartChar: bar
Encoding: 124 124 95
Width: 500
Flags: W
LayerCount: 2
Fore
SplineSet
333 699 m 1,0,-1
 456 699 l 1,1,-1
 249 -165 l 1,2,-1
 125 -165 l 1,3,-1
 333 699 l 1,0,-1
EndSplineSet
EndChar

StartChar: braceright
Encoding: 125 125 96
Width: 500
Flags: W
LayerCount: 2
Fore
SplineSet
335 267 m 1,0,1
 301 282 301 282 289 308 c 128,-1,2
 277 334 277 334 277 364 c 0,3,4
 277 378 277 378 279 392.5 c 128,-1,5
 281 407 281 407 284 421 c 2,6,-1
 306 520 l 2,7,8
 308 530 308 530 310.5 542 c 128,-1,9
 313 554 313 554 313 564 c 0,10,11
 313 581 313 581 303.5 592 c 128,-1,12
 294 603 294 603 267 603 c 2,13,-1
 177 603 l 1,14,-1
 200 699 l 1,15,-1
 293 699 l 2,16,17
 322 699 322 699 347 693 c 128,-1,18
 372 687 372 687 390 673.5 c 128,-1,19
 408 660 408 660 418 637.5 c 128,-1,20
 428 615 428 615 428 583 c 0,21,22
 428 569 428 569 426 554 c 128,-1,23
 424 539 424 539 420 522 c 2,24,-1
 394 412 l 2,25,26
 391 400 391 400 389 388 c 128,-1,27
 387 376 387 376 387 364 c 0,28,29
 387 344 387 344 397 329.5 c 128,-1,30
 407 315 407 315 436 315 c 2,31,-1
 483 315 l 1,32,-1
 460 219 l 1,33,-1
 412 219 l 2,34,35
 381 219 381 219 358.5 197.5 c 128,-1,36
 336 176 336 176 327 135 c 2,37,-1
 292 -13 l 2,38,39
 283 -50 283 -50 270.5 -78.5 c 128,-1,40
 258 -107 258 -107 237.5 -126 c 128,-1,41
 217 -145 217 -145 186 -155 c 128,-1,42
 155 -165 155 -165 110 -165 c 2,43,-1
 4 -165 l 1,44,-1
 27 -69 l 1,45,-1
 103 -69 l 2,46,47
 124 -69 124 -69 137 -64.5 c 128,-1,48
 150 -60 150 -60 159 -50.5 c 128,-1,49
 168 -41 168 -41 174 -25.5 c 128,-1,50
 180 -10 180 -10 185 11 c 2,51,-1
 215 138 l 2,52,53
 229 194 229 194 255.5 225.5 c 128,-1,54
 282 257 282 257 335 267 c 1,0,1
EndSplineSet
Substitution2: "'case' Case-Sensitive Forms lookup 17 subtable" Braceright
EndChar

StartChar: asciitilde
Encoding: 126 126 97
Width: 500
Flags: W
LayerCount: 2
Fore
SplineSet
530 328 m 1,0,1
 518 296 518 296 502 267.5 c 128,-1,2
 486 239 486 239 465.5 218 c 128,-1,3
 445 197 445 197 419 184.5 c 128,-1,4
 393 172 393 172 361 172 c 256,5,6
 329 172 329 172 306.5 185 c 128,-1,7
 284 198 284 198 265 212 c 0,8,9
 250 222 250 222 234 231 c 128,-1,10
 218 240 218 240 201 240 c 0,11,12
 191 240 191 240 183 238 c 128,-1,13
 175 236 175 236 167.5 229.5 c 128,-1,14
 160 223 160 223 151.5 210 c 128,-1,15
 143 197 143 197 133 175 c 1,16,-1
 50 200 l 1,17,18
 60 230 60 230 75.5 258.5 c 128,-1,19
 91 287 91 287 112 308.5 c 128,-1,20
 133 330 133 330 159.5 343 c 128,-1,21
 186 356 186 356 218 356 c 256,22,23
 250 356 250 356 272.5 343.5 c 128,-1,24
 295 331 295 331 315 317 c 0,25,26
 329 307 329 307 345.5 297.5 c 128,-1,27
 362 288 362 288 378 288 c 0,28,29
 388 288 388 288 396 290 c 128,-1,30
 404 292 404 292 411.5 299 c 128,-1,31
 419 306 419 306 427 319 c 128,-1,32
 435 332 435 332 446 354 c 1,33,-1
 530 328 l 1,0,1
EndSplineSet
EndChar

StartChar: Euro
Encoding: 8364 8364 98
Width: 500
Flags: W
LayerCount: 2
Fore
SplineSet
258 198 m 1,0,1
 263 136 263 136 292.5 113.5 c 128,-1,2
 322 91 322 91 368 91 c 0,3,4
 394 91 394 91 425.5 96.5 c 128,-1,5
 457 102 457 102 484 112 c 1,6,-1
 489 14 l 1,7,8
 457 1 457 1 418 -6 c 128,-1,9
 379 -13 379 -13 344 -13 c 0,10,11
 303 -13 303 -13 266 -1.5 c 128,-1,12
 229 10 229 10 201 35 c 128,-1,13
 173 60 173 60 156 100.5 c 128,-1,14
 139 141 139 141 138 198 c 1,15,-1
 63 198 l 1,16,-1
 83 280 l 1,17,-1
 141 280 l 1,18,19
 143 299 143 299 146.5 315 c 128,-1,20
 150 331 150 331 154 347 c 1,21,-1
 97 347 l 1,22,-1
 117 429 l 1,23,-1
 179 429 l 1,24,25
 199 475 199 475 226 513 c 128,-1,26
 253 551 253 551 290 577.5 c 128,-1,27
 327 604 327 604 375.5 618.5 c 128,-1,28
 424 633 424 633 488 633 c 0,29,30
 545 633 545 633 605 613 c 1,31,-1
 561 516 l 1,32,33
 541 524 541 524 516.5 527.5 c 128,-1,34
 492 531 492 531 472 531 c 0,35,36
 407 531 407 531 367.5 504 c 128,-1,37
 328 477 328 477 301 429 c 1,38,-1
 513 429 l 1,39,-1
 480 347 l 1,40,-1
 274 347 l 1,41,42
 269 333 269 333 266 315.5 c 128,-1,43
 263 298 263 298 261 280 c 1,44,-1
 451 280 l 1,45,-1
 417 198 l 1,46,-1
 258 198 l 1,0,1
EndSplineSet
EndChar

StartChar: quotesinglbase
Encoding: 8218 8218 99
Width: 500
Flags: W
LayerCount: 2
Fore
SplineSet
96 -72 m 1,0,1
 117 -71 117 -71 138 -66.5 c 128,-1,2
 159 -62 159 -62 177.5 -53.5 c 128,-1,3
 196 -45 196 -45 209.5 -34 c 128,-1,4
 223 -23 223 -23 228 -8 c 1,5,6
 198 -4 198 -4 180.5 15.5 c 128,-1,7
 163 35 163 35 163 67 c 0,8,9
 163 110 163 110 191 138.5 c 128,-1,10
 219 167 219 167 261 167 c 0,11,12
 300 167 300 167 319.5 143.5 c 128,-1,13
 339 120 339 120 339 88 c 0,14,15
 339 44 339 44 325 3 c 128,-1,16
 311 -38 311 -38 282 -71 c 128,-1,17
 253 -104 253 -104 208.5 -125.5 c 128,-1,18
 164 -147 164 -147 104 -151 c 1,19,-1
 96 -72 l 1,0,1
EndSplineSet
EndChar

StartChar: quotedblbase
Encoding: 8222 8222 101
Width: 500
Flags: W
LayerCount: 2
Fore
SplineSet
240 -77 m 1,0,1
 258 -76 258 -76 276.5 -71.5 c 128,-1,2
 295 -67 295 -67 310.5 -60.5 c 128,-1,3
 326 -54 326 -54 337 -44 c 128,-1,4
 348 -34 348 -34 353 -22 c 1,5,6
 327 -19 327 -19 311.5 -1 c 128,-1,7
 296 17 296 17 296 44 c 0,8,9
 296 81 296 81 320.5 106 c 128,-1,10
 345 131 345 131 381 131 c 0,11,12
 416 131 416 131 432.5 106.5 c 128,-1,13
 449 82 449 82 449 46 c 0,14,15
 449 12 449 12 437 -20 c 128,-1,16
 425 -52 425 -52 400.5 -78.5 c 128,-1,17
 376 -105 376 -105 337.5 -122 c 128,-1,18
 299 -139 299 -139 247 -143 c 1,19,-1
 240 -77 l 1,0,1
7 -77 m 1,20,21
 25 -76 25 -76 43 -71.5 c 128,-1,22
 61 -67 61 -67 76.5 -60.5 c 128,-1,23
 92 -54 92 -54 103.5 -44 c 128,-1,24
 115 -34 115 -34 119 -22 c 1,25,26
 93 -19 93 -19 78 -1 c 128,-1,27
 63 17 63 17 63 44 c 0,28,29
 63 81 63 81 87.5 106 c 128,-1,30
 112 131 112 131 148 131 c 0,31,32
 183 131 183 131 199 106.5 c 128,-1,33
 215 82 215 82 215 46 c 0,34,35
 215 12 215 12 203.5 -20 c 128,-1,36
 192 -52 192 -52 167 -78.5 c 128,-1,37
 142 -105 142 -105 104 -122 c 128,-1,38
 66 -139 66 -139 14 -143 c 1,39,-1
 7 -77 l 1,20,21
EndSplineSet
EndChar

StartChar: ellipsis
Encoding: 8230 8230 102
Width: 500
Flags: W
LayerCount: 2
Fore
SplineSet
89 118 m 0,0,1
 113 118 113 118 128 104 c 128,-1,2
 143 90 143 90 143 63 c 0,3,4
 143 28 143 28 124 8 c 128,-1,5
 105 -12 105 -12 79 -12 c 0,6,7
 54 -12 54 -12 39.5 2 c 128,-1,8
 25 16 25 16 25 44 c 0,9,10
 25 78 25 78 44 98 c 128,-1,11
 63 118 63 118 89 118 c 0,0,1
255 118 m 0,12,13
 280 118 280 118 294.5 104 c 128,-1,14
 309 90 309 90 309 63 c 0,15,16
 309 28 309 28 290 8 c 128,-1,17
 271 -12 271 -12 245 -12 c 0,18,19
 221 -12 221 -12 206 2 c 128,-1,20
 191 16 191 16 191 44 c 0,21,22
 191 78 191 78 210 98 c 128,-1,23
 229 118 229 118 255 118 c 0,12,13
421 118 m 0,24,25
 445 118 445 118 459.5 104 c 128,-1,26
 474 90 474 90 474 63 c 0,27,28
 474 28 474 28 455 8 c 128,-1,29
 436 -12 436 -12 410 -12 c 0,30,31
 386 -12 386 -12 371 2 c 128,-1,32
 356 16 356 16 356 44 c 0,33,34
 356 78 356 78 375.5 98 c 128,-1,35
 395 118 395 118 421 118 c 0,24,25
EndSplineSet
EndChar

StartChar: dagger
Encoding: 8224 8224 103
Width: 500
Flags: W
LayerCount: 2
Fore
SplineSet
153 438 m 1,0,-1
 280 438 l 1,1,-1
 323 619 l 1,2,-1
 433 619 l 1,3,-1
 390 438 l 1,4,-1
 517 438 l 1,5,-1
 492 336 l 1,6,-1
 365 336 l 1,7,-1
 316 132 l 2,8,9
 299 60 299 60 280 -2 c 128,-1,10
 261 -64 261 -64 236 -129 c 1,11,-1
 162 -129 l 1,12,13
 169 -64 169 -64 179 -2 c 128,-1,14
 189 60 189 60 206 132 c 2,15,-1
 255 336 l 1,16,-1
 128 336 l 1,17,-1
 153 438 l 1,0,-1
EndSplineSet
EndChar

StartChar: daggerdbl
Encoding: 8225 8225 104
Width: 500
Flags: W
LayerCount: 2
Fore
SplineSet
308 98 m 1,0,1
 292 36 292 36 275 -17 c 128,-1,2
 258 -70 258 -70 236 -129 c 1,3,-1
 162 -129 l 1,4,5
 167 -72 167 -72 175.5 -18 c 128,-1,6
 184 36 184 36 198 98 c 1,7,-1
 72 98 l 1,8,-1
 97 201 l 1,9,-1
 223 201 l 1,10,-1
 255 336 l 1,11,-1
 129 336 l 1,12,-1
 154 438 l 1,13,-1
 280 438 l 1,14,-1
 323 619 l 1,15,-1
 433 619 l 1,16,-1
 390 438 l 1,17,-1
 516 438 l 1,18,-1
 491 336 l 1,19,-1
 365 336 l 1,20,-1
 333 201 l 1,21,-1
 459 201 l 1,22,-1
 434 98 l 1,23,-1
 308 98 l 1,0,1
EndSplineSet
EndChar

StartChar: circumflex
Encoding: 710 710 105
Width: 500
Flags: W
LayerCount: 2
Fore
SplineSet
501 556 m 1,0,-1
 447 510 l 1,1,-1
 373 579 l 1,2,-1
 272 510 l 1,3,-1
 231 565 l 1,4,-1
 391 691 l 1,5,-1
 501 556 l 1,0,-1
EndSplineSet
EndChar

StartChar: perthousand
Encoding: 8240 8240 106
Width: 500
Flags: W
LayerCount: 2
Fore
SplineSet
67 229 m 1,0,-1
 54 272 l 1,1,-1
 570 501 l 1,2,-1
 583 456 l 1,3,-1
 67 229 l 1,0,-1
185 426 m 0,4,5
 198 426 198 426 208 439 c 128,-1,6
 218 452 218 452 224.5 469 c 128,-1,7
 231 486 231 486 234 504 c 128,-1,8
 237 522 237 522 237 533 c 0,9,10
 237 553 237 553 230 559 c 128,-1,11
 223 565 223 565 215 565 c 0,12,13
 202 565 202 565 192 552.5 c 128,-1,14
 182 540 182 540 175.5 522.5 c 128,-1,15
 169 505 169 505 166 487 c 128,-1,16
 163 469 163 469 163 458 c 0,17,18
 163 438 163 438 170 432 c 128,-1,19
 177 426 177 426 185 426 c 0,4,5
172 358 m 0,20,21
 138 358 138 358 117 382.5 c 128,-1,22
 96 407 96 407 96 447 c 0,23,24
 96 474 96 474 103 506.5 c 128,-1,25
 110 539 110 539 125.5 567 c 128,-1,26
 141 595 141 595 166 614 c 128,-1,27
 191 633 191 633 228 633 c 0,28,29
 261 633 261 633 283 608.5 c 128,-1,30
 305 584 305 584 305 545 c 0,31,32
 305 518 305 518 298 485 c 128,-1,33
 291 452 291 452 275 424 c 128,-1,34
 259 396 259 396 234 377 c 128,-1,35
 209 358 209 358 172 358 c 0,20,21
175 54 m 0,36,37
 188 54 188 54 198 67 c 128,-1,38
 208 80 208 80 214.5 97.5 c 128,-1,39
 221 115 221 115 224 133 c 128,-1,40
 227 151 227 151 227 162 c 0,41,42
 227 182 227 182 220 188 c 128,-1,43
 213 194 213 194 205 194 c 0,44,45
 192 194 192 194 182.5 181 c 128,-1,46
 173 168 173 168 166.5 151 c 128,-1,47
 160 134 160 134 157 115.5 c 128,-1,48
 154 97 154 97 154 87 c 0,49,50
 154 67 154 67 160.5 60.5 c 128,-1,51
 167 54 167 54 175 54 c 0,36,37
163 -13 m 0,52,53
 128 -13 128 -13 107 11 c 128,-1,54
 86 35 86 35 86 75 c 0,55,56
 86 102 86 102 93 135 c 128,-1,57
 100 168 100 168 115.5 196 c 128,-1,58
 131 224 131 224 156.5 243 c 128,-1,59
 182 262 182 262 218 262 c 0,60,61
 252 262 252 262 273.5 237.5 c 128,-1,62
 295 213 295 213 295 173 c 0,63,64
 295 146 295 146 288 113.5 c 128,-1,65
 281 81 281 81 265.5 53 c 128,-1,66
 250 25 250 25 224.5 6 c 128,-1,67
 199 -13 199 -13 163 -13 c 0,52,53
401 54 m 0,68,69
 414 54 414 54 424 67 c 128,-1,70
 434 80 434 80 440.5 97.5 c 128,-1,71
 447 115 447 115 450 133 c 128,-1,72
 453 151 453 151 453 162 c 0,73,74
 453 182 453 182 446 188 c 128,-1,75
 439 194 439 194 431 194 c 0,76,77
 418 194 418 194 408.5 181 c 128,-1,78
 399 168 399 168 392.5 151 c 128,-1,79
 386 134 386 134 383 115.5 c 128,-1,80
 380 97 380 97 380 87 c 0,81,82
 380 67 380 67 386.5 60.5 c 128,-1,83
 393 54 393 54 401 54 c 0,68,69
388 -13 m 0,84,85
 354 -13 354 -13 333 11 c 128,-1,86
 312 35 312 35 312 75 c 0,87,88
 312 102 312 102 319 135 c 128,-1,89
 326 168 326 168 341.5 196 c 128,-1,90
 357 224 357 224 382 243 c 128,-1,91
 407 262 407 262 444 262 c 0,92,93
 477 262 477 262 499 237.5 c 128,-1,94
 521 213 521 213 521 173 c 0,95,96
 521 146 521 146 514 113.5 c 128,-1,97
 507 81 507 81 491 53 c 128,-1,98
 475 25 475 25 450 6 c 128,-1,99
 425 -13 425 -13 388 -13 c 0,84,85
EndSplineSet
EndChar

StartChar: guilsinglleft
Encoding: 8249 8249 108
Width: 500
Flags: W
LayerCount: 2
Fore
SplineSet
305 242 m 1,0,-1
 369 80 l 1,1,-1
 280 39 l 1,2,-1
 165 259 l 1,3,-1
 361 468 l 1,4,-1
 445 418 l 1,5,-1
 305 242 l 1,0,-1
EndSplineSet
Substitution2: "'case' Case-Sensitive Forms lookup 17 subtable" Guilsinglleft
EndChar

StartChar: OE
Encoding: 338 338 109
Width: 500
Flags: W
LayerCount: 2
Fore
SplineSet
229 99 m 0,0,1
 244 99 244 99 262 104 c 1,2,-1
 361 516 l 1,3,4
 346 521 346 521 330 521 c 0,5,6
 293 521 293 521 263.5 485 c 128,-1,7
 234 449 234 449 213 396.5 c 128,-1,8
 192 344 192 344 180.5 285.5 c 128,-1,9
 169 227 169 227 169 182 c 0,10,11
 169 142 169 142 182 120.5 c 128,-1,12
 195 99 195 99 229 99 c 0,0,1
262 0 m 2,13,14
 249 -3 249 -3 236 -4 c 128,-1,15
 223 -5 223 -5 209 -5 c 0,16,17
 134 -5 134 -5 94 41.5 c 128,-1,18
 54 88 54 88 54 174 c 0,19,20
 54 215 54 215 60.5 265 c 128,-1,21
 67 315 67 315 81 365 c 128,-1,22
 95 415 95 415 118 462 c 128,-1,23
 141 509 141 509 173.5 545 c 128,-1,24
 206 581 206 581 249.5 603 c 128,-1,25
 293 625 293 625 349 625 c 0,26,27
 364 625 364 625 380.5 623 c 128,-1,28
 397 621 397 621 410 619 c 2,29,-1
 609 619 l 1,30,-1
 585 517 l 1,31,-1
 472 517 l 1,32,-1
 438 378 l 1,33,-1
 528 378 l 1,34,-1
 504 276 l 1,35,-1
 414 276 l 1,36,-1
 372 102 l 1,37,-1
 498 102 l 1,38,-1
 474 0 l 1,39,-1
 262 0 l 2,13,14
EndSplineSet
EndChar

StartChar: quoteleft
Encoding: 8216 8216 110
Width: 500
Flags: W
LayerCount: 2
Fore
SplineSet
504 656 m 1,0,1
 483 655 483 655 461.5 650.5 c 128,-1,2
 440 646 440 646 421.5 637.5 c 128,-1,3
 403 629 403 629 389.5 618 c 128,-1,4
 376 607 376 607 371 592 c 1,5,6
 401 588 401 588 419 568.5 c 128,-1,7
 437 549 437 549 437 517 c 0,8,9
 437 496 437 496 429.5 477.5 c 128,-1,10
 422 459 422 459 408.5 445.5 c 128,-1,11
 395 432 395 432 377 424.5 c 128,-1,12
 359 417 359 417 338 417 c 0,13,14
 299 417 299 417 280 444.5 c 128,-1,15
 261 472 261 472 261 513 c 0,16,17
 261 550 261 550 275 588 c 128,-1,18
 289 626 289 626 318 657 c 128,-1,19
 347 688 347 688 391 709.5 c 128,-1,20
 435 731 435 731 496 735 c 1,21,-1
 504 656 l 1,0,1
EndSplineSet
EndChar

StartChar: quoteright
Encoding: 8217 8217 111
Width: 500
Flags: W
LayerCount: 2
Fore
SplineSet
237 496 m 1,0,1
 258 497 258 497 279 501.5 c 128,-1,2
 300 506 300 506 318.5 514.5 c 128,-1,3
 337 523 337 523 350.5 534 c 128,-1,4
 364 545 364 545 369 560 c 1,5,6
 340 564 340 564 322 583.5 c 128,-1,7
 304 603 304 603 304 635 c 0,8,9
 304 678 304 678 332 706.5 c 128,-1,10
 360 735 360 735 402 735 c 0,11,12
 442 735 442 735 461 707.5 c 128,-1,13
 480 680 480 680 480 638 c 0,14,15
 480 601 480 601 466 563.5 c 128,-1,16
 452 526 452 526 423 495 c 128,-1,17
 394 464 394 464 349.5 442.5 c 128,-1,18
 305 421 305 421 245 417 c 1,19,-1
 237 496 l 1,0,1
EndSplineSet
EndChar

StartChar: quotedblleft
Encoding: 8220 8220 112
Width: 500
Flags: W
LayerCount: 2
Fore
SplineSet
370 627 m 1,0,1
 352 625 352 625 333.5 621 c 128,-1,2
 315 617 315 617 299.5 610.5 c 128,-1,3
 284 604 284 604 272.5 594 c 128,-1,4
 261 584 261 584 257 572 c 1,5,6
 283 569 283 569 298.5 551 c 128,-1,7
 314 533 314 533 314 506 c 0,8,9
 314 469 314 469 289.5 444 c 128,-1,10
 265 419 265 419 229 419 c 0,11,12
 194 419 194 419 177.5 443.5 c 128,-1,13
 161 468 161 468 161 505 c 0,14,15
 161 538 161 538 173 570.5 c 128,-1,16
 185 603 185 603 209.5 629 c 128,-1,17
 234 655 234 655 272 672 c 128,-1,18
 310 689 310 689 363 693 c 1,19,-1
 370 627 l 1,0,1
603 627 m 1,20,21
 585 625 585 625 567 621 c 128,-1,22
 549 617 549 617 533.5 610.5 c 128,-1,23
 518 604 518 604 506.5 594 c 128,-1,24
 495 584 495 584 491 572 c 1,25,26
 517 569 517 569 532 551 c 128,-1,27
 547 533 547 533 547 506 c 0,28,29
 547 469 547 469 522.5 444 c 128,-1,30
 498 419 498 419 462 419 c 0,31,32
 427 419 427 419 411 443.5 c 128,-1,33
 395 468 395 468 395 505 c 0,34,35
 395 538 395 538 406.5 570.5 c 128,-1,36
 418 603 418 603 443 629 c 128,-1,37
 468 655 468 655 505.5 672 c 128,-1,38
 543 689 543 689 596 693 c 1,39,-1
 603 627 l 1,20,21
EndSplineSet
EndChar

StartChar: quotedblright
Encoding: 8221 8221 113
Width: 500
Flags: W
LayerCount: 2
Fore
SplineSet
366 485 m 1,0,1
 384 486 384 486 402.5 490 c 128,-1,2
 421 494 421 494 436.5 500.5 c 128,-1,3
 452 507 452 507 463 517 c 128,-1,4
 474 527 474 527 479 539 c 1,5,6
 453 543 453 543 437 561 c 128,-1,7
 421 579 421 579 421 605 c 0,8,9
 421 643 421 643 446 668 c 128,-1,10
 471 693 471 693 507 693 c 0,11,12
 542 693 542 693 558.5 668 c 128,-1,13
 575 643 575 643 575 607 c 0,14,15
 575 574 575 574 563 541.5 c 128,-1,16
 551 509 551 509 526.5 483 c 128,-1,17
 502 457 502 457 463.5 440 c 128,-1,18
 425 423 425 423 373 419 c 1,19,-1
 366 485 l 1,0,1
133 485 m 1,20,21
 151 486 151 486 169 490 c 128,-1,22
 187 494 187 494 202.5 500.5 c 128,-1,23
 218 507 218 507 229.5 517 c 128,-1,24
 241 527 241 527 245 539 c 1,25,26
 219 543 219 543 203.5 561 c 128,-1,27
 188 579 188 579 188 605 c 0,28,29
 188 643 188 643 213 668 c 128,-1,30
 238 693 238 693 274 693 c 0,31,32
 309 693 309 693 325 668 c 128,-1,33
 341 643 341 643 341 607 c 0,34,35
 341 574 341 574 329.5 541.5 c 128,-1,36
 318 509 318 509 293 483 c 128,-1,37
 268 457 268 457 230 440 c 128,-1,38
 192 423 192 423 140 419 c 1,39,-1
 133 485 l 1,20,21
EndSplineSet
EndChar

StartChar: bullet
Encoding: 8226 8226 114
Width: 500
Flags: W
LayerCount: 2
Fore
SplineSet
446 314 m 0,0,1
 446 285 446 285 436.5 259.5 c 128,-1,2
 427 234 427 234 409.5 214 c 128,-1,3
 392 194 392 194 366.5 182.5 c 128,-1,4
 341 171 341 171 310 171 c 0,5,6
 278 171 278 171 253 182.5 c 128,-1,7
 228 194 228 194 210.5 214 c 128,-1,8
 193 234 193 234 183.5 259.5 c 128,-1,9
 174 285 174 285 174 314 c 0,10,11
 174 342 174 342 183.5 368 c 128,-1,12
 193 394 193 394 210.5 414 c 128,-1,13
 228 434 228 434 253 445.5 c 128,-1,14
 278 457 278 457 310 457 c 0,15,16
 341 457 341 457 366.5 445.5 c 128,-1,17
 392 434 392 434 409.5 414 c 128,-1,18
 427 394 427 394 436.5 368 c 128,-1,19
 446 342 446 342 446 314 c 0,0,1
EndSplineSet
Substitution2: "'case' Case-Sensitive Forms lookup 17 subtable" Bullet
EndChar

StartChar: endash
Encoding: 8211 8211 115
Width: 500
Flags: W
LayerCount: 2
Fore
SplineSet
111 313 m 1,0,-1
 504 313 l 1,1,-1
 481 221 l 1,2,-1
 88 221 l 1,3,-1
 111 313 l 1,0,-1
EndSplineSet
Substitution2: "'case' Case-Sensitive Forms lookup 17 subtable" Endash
EndChar

StartChar: emdash
Encoding: 8212 8212 116
Width: 500
Flags: W
LayerCount: 2
Fore
SplineSet
56 313 m 1,0,-1
 556 313 l 1,1,-1
 534 221 l 1,2,-1
 34 221 l 1,3,-1
 56 313 l 1,0,-1
EndSplineSet
Substitution2: "'case' Case-Sensitive Forms lookup 17 subtable" Emdash
EndChar

StartChar: tilde
Encoding: 732 732 117
Width: 500
Flags: W
LayerCount: 2
Fore
SplineSet
408 542 m 0,0,1
 391 542 391 542 377.5 547 c 128,-1,2
 364 552 364 552 352.5 557.5 c 128,-1,3
 341 563 341 563 330.5 568 c 128,-1,4
 320 573 320 573 309 573 c 0,5,6
 296 573 296 573 286 566 c 128,-1,7
 276 559 276 559 261 537 c 1,8,-1
 201 573 l 1,9,10
 222 622 222 622 250 645.5 c 128,-1,11
 278 669 278 669 320 669 c 0,12,13
 336 669 336 669 349.5 664 c 128,-1,14
 363 659 363 659 374.5 653.5 c 128,-1,15
 386 648 386 648 397 643 c 128,-1,16
 408 638 408 638 419 638 c 0,17,18
 432 638 432 638 442 645 c 128,-1,19
 452 652 452 652 467 674 c 1,20,-1
 527 638 l 1,21,22
 506 589 506 589 478 565.5 c 128,-1,23
 450 542 450 542 408 542 c 0,0,1
EndSplineSet
EndChar

StartChar: trademark
Encoding: 8482 8482 118
Width: 500
Flags: W
LayerCount: 2
Fore
SplineSet
302 619 m 1,0,-1
 302 569 l 1,1,-1
 238 569 l 1,2,-1
 238 357 l 1,3,-1
 180 357 l 1,4,-1
 180 569 l 1,5,-1
 116 569 l 1,6,-1
 116 619 l 1,7,-1
 302 619 l 1,0,-1
424 426 m 1,8,-1
 384 542 l 1,9,10
 383 522 383 522 382 492 c 128,-1,11
 381 462 381 462 380.5 433.5 c 128,-1,12
 380 405 380 405 379.5 383 c 128,-1,13
 379 361 379 361 379 357 c 1,14,-1
 321 357 l 1,15,16
 324 407 324 407 327 444 c 128,-1,17
 330 481 330 481 333 511 c 128,-1,18
 336 541 336 541 340 566.5 c 128,-1,19
 344 592 344 592 349 619 c 1,20,-1
 402 619 l 1,21,-1
 447 483 l 1,22,-1
 494 619 l 1,23,-1
 548 619 l 1,24,25
 552 592 552 592 555.5 566 c 128,-1,26
 559 540 559 540 562 510 c 128,-1,27
 565 480 565 480 568 443 c 128,-1,28
 571 406 571 406 574 357 c 1,29,-1
 516 357 l 1,30,31
 516 361 516 361 515.5 383 c 128,-1,32
 515 405 515 405 514.5 433.5 c 128,-1,33
 514 462 514 462 513 492 c 128,-1,34
 512 522 512 522 511 542 c 1,35,-1
 468 426 l 1,36,-1
 424 426 l 1,8,-1
EndSplineSet
EndChar

StartChar: guilsinglright
Encoding: 8250 8250 120
Width: 500
Flags: W
LayerCount: 2
Fore
SplineSet
271 265 m 1,0,-1
 207 427 l 1,1,-1
 296 468 l 1,2,-1
 411 248 l 1,3,-1
 215 39 l 1,4,-1
 131 89 l 1,5,-1
 271 265 l 1,0,-1
EndSplineSet
Substitution2: "'case' Case-Sensitive Forms lookup 17 subtable" Guilsinglright
EndChar

StartChar: oe
Encoding: 339 339 121
Width: 500
Flags: W
LayerCount: 2
Fore
SplineSet
271 329 m 0,0,1
 271 356 271 356 261 368 c 128,-1,2
 251 380 251 380 237 380 c 0,3,4
 220 380 220 380 201.5 362.5 c 128,-1,5
 183 345 183 345 167 314.5 c 128,-1,6
 151 284 151 284 141 242 c 128,-1,7
 131 200 131 200 131 152 c 0,8,9
 131 124 131 124 140.5 107 c 128,-1,10
 150 90 150 90 170 90 c 0,11,12
 186 90 186 90 204 109 c 128,-1,13
 222 128 222 128 237 160.5 c 128,-1,14
 252 193 252 193 261.5 236.5 c 128,-1,15
 271 280 271 280 271 329 c 0,0,1
469 359 m 0,16,17
 469 373 469 373 463 383 c 128,-1,18
 457 393 457 393 438 393 c 0,19,20
 428 393 428 393 416 385 c 128,-1,21
 404 377 404 377 391 360 c 128,-1,22
 378 343 378 343 366.5 316 c 128,-1,23
 355 289 355 289 347 250 c 1,24,25
 374 250 374 250 396 258.5 c 128,-1,26
 418 267 418 267 434.5 281.5 c 128,-1,27
 451 296 451 296 460 316 c 128,-1,28
 469 336 469 336 469 359 c 0,16,17
390 -13 m 0,29,30
 342 -13 342 -13 314 8 c 128,-1,31
 286 29 286 29 272 63 c 1,32,33
 252 25 252 25 218 6 c 128,-1,34
 184 -13 184 -13 149 -13 c 0,35,36
 121 -13 121 -13 100 -1.5 c 128,-1,37
 79 10 79 10 64.5 29.5 c 128,-1,38
 50 49 50 49 43 76 c 128,-1,39
 36 103 36 103 36 134 c 0,40,41
 36 210 36 210 54 274 c 128,-1,42
 72 338 72 338 102 384.5 c 128,-1,43
 132 431 132 431 171.5 456.5 c 128,-1,44
 211 482 211 482 253 482 c 0,45,46
 329 482 329 482 349 419 c 1,47,48
 370 446 370 446 400.5 464 c 128,-1,49
 431 482 431 482 460 482 c 0,50,51
 478 482 478 482 495.5 476.5 c 128,-1,52
 513 471 513 471 526 458.5 c 128,-1,53
 539 446 539 446 547 426 c 128,-1,54
 555 406 555 406 555 377 c 0,55,56
 555 327 555 327 538 289.5 c 128,-1,57
 521 252 521 252 491.5 226.5 c 128,-1,58
 462 201 462 201 423 187 c 128,-1,59
 384 173 384 173 341 169 c 1,60,61
 340 164 340 164 340 161 c 128,-1,62
 340 158 340 158 340 154 c 0,63,64
 340 119 340 119 355.5 99 c 128,-1,65
 371 79 371 79 410 79 c 0,66,67
 444 79 444 79 480 104 c 1,68,-1
 492 17 l 1,69,70
 470 3 470 3 444 -5 c 128,-1,71
 418 -13 418 -13 390 -13 c 0,29,30
EndSplineSet
Substitution2: "'case' Case-Sensitive Forms lookup 18 subtable" OE
EndChar

StartChar: exclamdown
Encoding: 161 161 124
Width: 500
Flags: W
LayerCount: 2
Fore
SplineSet
318 303 m 0,0,1
 286 303 286 303 265 321.5 c 128,-1,2
 244 340 244 340 244 377 c 0,3,4
 244 397 244 397 251.5 414 c 128,-1,5
 259 431 259 431 271.5 443.5 c 128,-1,6
 284 456 284 456 300 463 c 128,-1,7
 316 470 316 470 334 470 c 0,8,9
 365 470 365 470 386.5 451 c 128,-1,10
 408 432 408 432 408 395 c 0,11,12
 408 374 408 374 400.5 357 c 128,-1,13
 393 340 393 340 380.5 328 c 128,-1,14
 368 316 368 316 351.5 309.5 c 128,-1,15
 335 303 335 303 318 303 c 0,0,1
167 6 m 2,16,17
 176 42 176 42 184 71 c 128,-1,18
 192 100 192 100 201 126 c 128,-1,19
 210 152 210 152 220 177.5 c 128,-1,20
 230 203 230 203 242 233 c 1,21,-1
 344 233 l 1,22,23
 341 198 341 198 337.5 169 c 128,-1,24
 334 140 334 140 330 112 c 128,-1,25
 326 84 326 84 320 56.5 c 128,-1,26
 314 29 314 29 307 -1 c 2,27,-1
 269 -161 l 1,28,-1
 127 -161 l 1,29,-1
 167 6 l 2,16,17
EndSplineSet
Substitution2: "'case' Case-Sensitive Forms lookup 17 subtable" Exclamdown
EndChar

StartChar: cent
Encoding: 162 162 125
Width: 500
Flags: W
LayerCount: 2
Fore
SplineSet
313 -97 m 1,0,-1
 189 -97 l 1,1,-1
 221 37 l 1,2,3
 184 45 184 45 158.5 62.5 c 128,-1,4
 133 80 133 80 117.5 104 c 128,-1,5
 102 128 102 128 95 156.5 c 128,-1,6
 88 185 88 185 88 216 c 0,7,8
 88 272 88 272 105.5 319 c 128,-1,9
 123 366 123 366 155 401.5 c 128,-1,10
 187 437 187 437 231.5 460 c 128,-1,11
 276 483 276 483 330 490 c 1,12,-1
 361 619 l 1,13,-1
 484 619 l 1,14,-1
 453 488 l 1,15,16
 479 484 479 484 499.5 477 c 128,-1,17
 520 470 520 470 537 463 c 1,18,-1
 492 365 l 1,19,20
 477 372 477 372 450 379.5 c 128,-1,21
 423 387 423 387 391 387 c 0,22,23
 353 387 353 387 320 377 c 128,-1,24
 287 367 287 367 263 347.5 c 128,-1,25
 239 328 239 328 225.5 298.5 c 128,-1,26
 212 269 212 269 212 230 c 0,27,28
 212 185 212 185 240.5 159.5 c 128,-1,29
 269 134 269 134 338 134 c 0,30,31
 377 134 377 134 406 142.5 c 128,-1,32
 435 151 435 151 452 159 c 1,33,-1
 464 61 l 1,34,35
 444 50 444 50 413 41 c 128,-1,36
 382 32 382 32 342 29 c 1,37,-1
 313 -97 l 1,0,-1
EndSplineSet
EndChar

StartChar: sterling
Encoding: 163 163 126
Width: 500
Flags: W
LayerCount: 2
Fore
SplineSet
310 349 m 1,0,-1
 468 349 l 1,1,-1
 444 247 l 1,2,-1
 286 247 l 1,3,4
 278 215 278 215 264.5 176 c 128,-1,5
 251 137 251 137 238 103 c 1,6,-1
 484 103 l 1,7,-1
 460 0 l 1,8,-1
 76 0 l 1,9,10
 110 75 110 75 129.5 135.5 c 128,-1,11
 149 196 149 196 163 247 c 1,12,-1
 84 247 l 1,13,-1
 108 350 l 1,14,-1
 188 350 l 1,15,-1
 211 442 l 2,16,17
 224 494 224 494 248 530.5 c 128,-1,18
 272 567 272 567 303.5 589.5 c 128,-1,19
 335 612 335 612 372 622 c 128,-1,20
 409 632 409 632 447 632 c 256,21,22
 485 632 485 632 520 624.5 c 128,-1,23
 555 617 555 617 581 600 c 1,24,-1
 531 507 l 1,25,26
 511 518 511 518 489.5 523 c 128,-1,27
 468 528 468 528 447 528 c 256,28,29
 426 528 426 528 408 523.5 c 128,-1,30
 390 519 390 519 374.5 506.5 c 128,-1,31
 359 494 359 494 347 472 c 128,-1,32
 335 450 335 450 326 414 c 2,33,-1
 310 349 l 1,0,-1
EndSplineSet
EndChar

StartChar: currency
Encoding: 164 164 127
Width: 500
Flags: W
LayerCount: 2
Fore
SplineSet
305 134 m 0,0,1
 260 134 260 134 221 152 c 1,2,-1
 154 88 l 1,3,-1
 73 168 l 1,4,-1
 138 230 l 1,5,6
 119 265 119 265 119 311 c 0,7,8
 119 358 119 358 138 392 c 1,9,-1
 73 455 l 1,10,-1
 155 535 l 1,11,-1
 222 471 l 1,12,13
 241 479 241 479 260.5 483.5 c 128,-1,14
 280 488 280 488 305 488 c 0,15,16
 348 488 348 488 388 471 c 1,17,-1
 455 535 l 1,18,-1
 536 455 l 1,19,-1
 472 392 l 1,20,21
 490 357 490 357 490 312 c 0,22,23
 490 266 490 266 472 230 c 1,24,-1
 536 168 l 1,25,-1
 454 88 l 1,26,-1
 387 152 l 1,27,28
 368 143 368 143 348.5 138.5 c 128,-1,29
 329 134 329 134 305 134 c 0,0,1
305 231 m 0,30,31
 336 231 336 231 358 251.5 c 128,-1,32
 380 272 380 272 380 312 c 0,33,34
 380 350 380 350 358 370.5 c 128,-1,35
 336 391 336 391 305 391 c 0,36,37
 273 391 273 391 251 370.5 c 128,-1,38
 229 350 229 350 229 311 c 256,39,40
 229 272 229 272 251 251.5 c 128,-1,41
 273 231 273 231 305 231 c 0,30,31
EndSplineSet
EndChar

StartChar: yen
Encoding: 165 165 128
Width: 500
Flags: W
LayerCount: 2
Fore
SplineSet
322 376 m 1,0,1
 411 483 411 483 488 619 c 1,2,-1
 621 619 l 1,3,4
 596 579 596 579 572 543.5 c 128,-1,5
 548 508 548 508 522.5 473.5 c 128,-1,6
 497 439 497 439 469.5 403.5 c 128,-1,7
 442 368 442 368 409 328 c 1,8,-1
 507 328 l 1,9,-1
 488 250 l 1,10,-1
 357 250 l 1,11,-1
 341 179 l 1,12,-1
 472 179 l 1,13,-1
 453 101 l 1,14,-1
 321 101 l 1,15,-1
 297 0 l 1,16,-1
 167 0 l 1,17,-1
 192 101 l 1,18,-1
 62 101 l 1,19,-1
 80 179 l 1,20,-1
 211 179 l 1,21,-1
 227 250 l 1,22,-1
 97 250 l 1,23,-1
 116 328 l 1,24,-1
 222 328 l 1,25,26
 193 405 193 405 168 482 c 128,-1,27
 143 559 143 559 129 619 c 1,28,-1
 257 619 l 1,29,30
 263 589 263 589 269 562 c 128,-1,31
 275 535 275 535 282.5 506.5 c 128,-1,32
 290 478 290 478 299.5 446.5 c 128,-1,33
 309 415 309 415 322 376 c 1,0,1
EndSplineSet
EndChar

StartChar: brokenbar
Encoding: 166 166 129
Width: 500
Flags: W
LayerCount: 2
Fore
SplineSet
253 345 m 1,0,-1
 338 699 l 1,1,-1
 461 699 l 1,2,-1
 376 345 l 1,3,-1
 253 345 l 1,0,-1
338 189 m 1,4,-1
 254 -165 l 1,5,-1
 130 -165 l 1,6,-1
 215 189 l 1,7,-1
 338 189 l 1,4,-1
EndSplineSet
EndChar

StartChar: section
Encoding: 167 167 130
Width: 500
Flags: W
LayerCount: 2
Fore
SplineSet
301 490 m 0,0,1
 301 469 301 469 319 456.5 c 128,-1,2
 337 444 337 444 379 423 c 2,3,-1
 396 414 l 2,4,5
 413 406 413 406 429.5 396 c 128,-1,6
 446 386 446 386 459 372.5 c 128,-1,7
 472 359 472 359 480 340 c 128,-1,8
 488 321 488 321 488 294 c 0,9,10
 488 252 488 252 459.5 210 c 128,-1,11
 431 168 431 168 377 137 c 1,12,13
 394 119 394 119 399.5 99.5 c 128,-1,14
 405 80 405 80 405 60 c 0,15,16
 405 31 405 31 392 2.5 c 128,-1,17
 379 -26 379 -26 352.5 -48 c 128,-1,18
 326 -70 326 -70 285 -83.5 c 128,-1,19
 244 -97 244 -97 188 -97 c 0,20,21
 146 -97 146 -97 104.5 -88 c 128,-1,22
 63 -79 63 -79 34 -61 c 1,23,-1
 76 29 l 1,24,25
 104 13 104 13 130.5 6.5 c 128,-1,26
 157 0 157 0 186 0 c 0,27,28
 241 0 241 0 264.5 16 c 128,-1,29
 288 32 288 32 288 55 c 256,30,31
 288 78 288 78 270 90.5 c 128,-1,32
 252 103 252 103 211 124 c 2,33,-1
 193 133 l 2,34,35
 176 141 176 141 159.5 151 c 128,-1,36
 143 161 143 161 130 175.5 c 128,-1,37
 117 190 117 190 109 209 c 128,-1,38
 101 228 101 228 101 255 c 0,39,40
 101 299 101 299 130 340.5 c 128,-1,41
 159 382 159 382 210 413 c 1,42,43
 196 429 196 429 190 449.5 c 128,-1,44
 184 470 184 470 184 490 c 0,45,46
 184 517 184 517 197 543 c 128,-1,47
 210 569 210 569 236 589 c 128,-1,48
 262 609 262 609 301 621 c 128,-1,49
 340 633 340 633 391 633 c 0,50,51
 430 633 430 633 468 624.5 c 128,-1,52
 506 616 506 616 535 600 c 1,53,-1
 493 511 l 1,54,55
 465 525 465 525 439 531 c 128,-1,56
 413 537 413 537 389 537 c 0,57,58
 344 537 344 537 322.5 523.5 c 128,-1,59
 301 510 301 510 301 490 c 0,0,1
211 277 m 0,60,61
 211 258 211 258 225.5 238 c 128,-1,62
 240 218 240 218 271 204 c 2,63,-1
 311 185 l 1,64,65
 341 203 341 203 360 226 c 128,-1,66
 379 249 379 249 379 273 c 0,67,68
 379 296 379 296 363.5 315 c 128,-1,69
 348 334 348 334 310 351 c 2,70,-1
 276 366 l 1,71,72
 247 347 247 347 229 325.5 c 128,-1,73
 211 304 211 304 211 277 c 0,60,61
EndSplineSet
EndChar

StartChar: dieresis
Encoding: 168 168 131
Width: 500
Flags: W
LayerCount: 2
Fore
SplineSet
268 538 m 0,0,1
 242 538 242 538 225 554 c 128,-1,2
 208 570 208 570 208 597 c 0,3,4
 208 614 208 614 214.5 628 c 128,-1,5
 221 642 221 642 231 652 c 128,-1,6
 241 662 241 662 254 667.5 c 128,-1,7
 267 673 267 673 280 673 c 0,8,9
 305 673 305 673 323 656.5 c 128,-1,10
 341 640 341 640 341 613 c 0,11,12
 341 596 341 596 334 582.5 c 128,-1,13
 327 569 327 569 316.5 559 c 128,-1,14
 306 549 306 549 293 543.5 c 128,-1,15
 280 538 280 538 268 538 c 0,0,1
466 538 m 0,16,17
 440 538 440 538 423 554 c 128,-1,18
 406 570 406 570 406 597 c 0,19,20
 406 631 406 631 429 652 c 128,-1,21
 452 673 452 673 479 673 c 0,22,23
 504 673 504 673 521.5 656.5 c 128,-1,24
 539 640 539 640 539 613 c 0,25,26
 539 596 539 596 532 582.5 c 128,-1,27
 525 569 525 569 514.5 559 c 128,-1,28
 504 549 504 549 491 543.5 c 128,-1,29
 478 538 478 538 466 538 c 0,16,17
EndSplineSet
EndChar

StartChar: copyright
Encoding: 169 169 132
Width: 500
Flags: W
LayerCount: 2
Fore
SplineSet
364 120 m 1,0,1
 347 112 347 112 328.5 108 c 128,-1,2
 310 104 310 104 294 104 c 0,3,4
 265 104 265 104 243.5 114.5 c 128,-1,5
 222 125 222 125 207.5 142.5 c 128,-1,6
 193 160 193 160 186 182.5 c 128,-1,7
 179 205 179 205 179 229 c 256,8,9
 179 253 179 253 186 276 c 128,-1,10
 193 299 193 299 207 317 c 128,-1,11
 221 335 221 335 243 346 c 128,-1,12
 265 357 265 357 295 357 c 0,13,14
 310 357 310 357 327.5 354.5 c 128,-1,15
 345 352 345 352 363 344 c 1,16,-1
 342 290 l 1,17,18
 331 295 331 295 320.5 296.5 c 128,-1,19
 310 298 310 298 300 298 c 0,20,21
 269 298 269 298 255.5 278 c 128,-1,22
 242 258 242 258 242 233 c 0,23,24
 242 201 242 201 258 182.5 c 128,-1,25
 274 164 274 164 305 164 c 0,26,27
 313 164 313 164 325 166 c 128,-1,28
 337 168 337 168 347 173 c 1,29,-1
 364 120 l 1,0,1
63 231 m 256,30,31
 63 292 63 292 82 338 c 128,-1,32
 101 384 101 384 132 414.5 c 128,-1,33
 163 445 163 445 203.5 460 c 128,-1,34
 244 475 244 475 288 475 c 256,35,36
 332 475 332 475 372.5 460 c 128,-1,37
 413 445 413 445 444.5 414.5 c 128,-1,38
 476 384 476 384 495 338 c 128,-1,39
 514 292 514 292 514 231 c 256,40,41
 514 170 514 170 495 124.5 c 128,-1,42
 476 79 476 79 444.5 48.5 c 128,-1,43
 413 18 413 18 372.5 2.5 c 128,-1,44
 332 -13 332 -13 288 -13 c 256,45,46
 244 -13 244 -13 203.5 2.5 c 128,-1,47
 163 18 163 18 132 48.5 c 128,-1,48
 101 79 101 79 82 124.5 c 128,-1,49
 63 170 63 170 63 231 c 256,30,31
288 51 m 0,50,51
 317 51 317 51 345.5 62.5 c 128,-1,52
 374 74 374 74 396.5 97 c 128,-1,53
 419 120 419 120 432.5 154 c 128,-1,54
 446 188 446 188 446 232 c 0,55,56
 446 275 446 275 432.5 308.5 c 128,-1,57
 419 342 419 342 396.5 365 c 128,-1,58
 374 388 374 388 346 400 c 128,-1,59
 318 412 318 412 288 412 c 256,60,61
 258 412 258 412 229.5 400 c 128,-1,62
 201 388 201 388 178.5 365 c 128,-1,63
 156 342 156 342 142.5 308.5 c 128,-1,64
 129 275 129 275 129 232 c 0,65,66
 129 188 129 188 142.5 154 c 128,-1,67
 156 120 156 120 178.5 97 c 128,-1,68
 201 74 201 74 229.5 62.5 c 128,-1,69
 258 51 258 51 288 51 c 0,50,51
EndSplineSet
EndChar

StartChar: ordfeminine
Encoding: 170 170 133
Width: 500
Flags: W
LayerCount: 2
Fore
SplineSet
398 542 m 1,0,1
 392 543 392 543 386 543.5 c 128,-1,2
 380 544 380 544 375 544 c 0,3,4
 351 544 351 544 329.5 535.5 c 128,-1,5
 308 527 308 527 291.5 512 c 128,-1,6
 275 497 275 497 265.5 475.5 c 128,-1,7
 256 454 256 454 256 427 c 256,8,9
 256 400 256 400 270 381 c 128,-1,10
 284 362 284 362 313 362 c 0,11,12
 326 362 326 362 339 366 c 128,-1,13
 352 370 352 370 366 381 c 0,14,15
 365 384 365 384 365 394 c 0,16,17
 365 408 365 408 368 421.5 c 128,-1,18
 371 435 371 435 374 449 c 2,19,-1
 398 542 l 1,0,1
472 450 m 2,20,21
 469 435 469 435 465.5 417 c 128,-1,22
 462 399 462 399 461.5 378.5 c 128,-1,23
 461 358 461 358 464.5 335.5 c 128,-1,24
 468 313 468 313 478 288 c 1,25,-1
 394 276 l 1,26,-1
 382 304 l 1,27,28
 335 272 335 272 288 272 c 0,29,30
 257 272 257 272 233.5 284 c 128,-1,31
 210 296 210 296 194 316 c 128,-1,32
 178 336 178 336 170 362 c 128,-1,33
 162 388 162 388 162 417 c 0,34,35
 162 454 162 454 176 492.5 c 128,-1,36
 190 531 190 531 219.5 562 c 128,-1,37
 249 593 249 593 293 612.5 c 128,-1,38
 337 632 337 632 397 632 c 0,39,40
 423 632 423 632 451.5 628.5 c 128,-1,41
 480 625 480 625 512 616 c 1,42,-1
 472 450 l 2,20,21
EndSplineSet
EndChar

StartChar: guillemotleft
Encoding: 171 171 134
Width: 500
Flags: W
LayerCount: 2
Fore
SplineSet
198 251 m 1,0,-1
 256 82 l 1,1,-1
 187 46 l 1,2,-1
 89 259 l 1,3,-1
 263 463 l 1,4,-1
 325 418 l 1,5,-1
 198 251 l 1,0,-1
398 251 m 1,6,-1
 456 82 l 1,7,-1
 387 46 l 1,8,-1
 289 259 l 1,9,-1
 463 463 l 1,10,-1
 525 418 l 1,11,-1
 398 251 l 1,6,-1
EndSplineSet
Substitution2: "'case' Case-Sensitive Forms lookup 17 subtable" Guillemotleft
EndChar

StartChar: logicalnot
Encoding: 172 172 135
Width: 500
Flags: W
LayerCount: 2
Fore
SplineSet
439 42 m 1,0,-1
 334 42 l 1,1,-1
 387 261 l 1,2,-1
 88 261 l 1,3,-1
 113 363 l 1,4,-1
 516 363 l 1,5,-1
 439 42 l 1,0,-1
EndSplineSet
EndChar

StartChar: registered
Encoding: 174 174 137
Width: 500
Flags: W
LayerCount: 2
Fore
SplineSet
257 187 m 1,0,-1
 257 110 l 1,1,-1
 204 110 l 1,2,-1
 204 348 l 1,3,4
 217 352 217 352 234.5 354.5 c 128,-1,5
 252 357 252 357 271 357 c 0,6,7
 328 357 328 357 355 335 c 128,-1,8
 382 313 382 313 382 271 c 0,9,10
 382 222 382 222 343 200 c 1,11,12
 354 183 354 183 367.5 159.5 c 128,-1,13
 381 136 381 136 394 110 c 1,14,-1
 337 110 l 1,15,16
 324 134 324 134 313.5 152.5 c 128,-1,17
 303 171 303 171 294 187 c 1,18,-1
 257 187 l 1,0,-1
257 237 m 1,19,-1
 276 237 l 2,20,21
 303 237 303 237 316 244 c 128,-1,22
 329 251 329 251 329 274 c 0,23,24
 329 294 329 294 313 300.5 c 128,-1,25
 297 307 297 307 280 307 c 0,26,27
 273 307 273 307 267.5 306.5 c 128,-1,28
 262 306 262 306 257 305 c 1,29,-1
 257 237 l 1,19,-1
63 231 m 256,30,31
 63 292 63 292 82 338 c 128,-1,32
 101 384 101 384 132 414.5 c 128,-1,33
 163 445 163 445 203.5 460 c 128,-1,34
 244 475 244 475 288 475 c 256,35,36
 332 475 332 475 372.5 460 c 128,-1,37
 413 445 413 445 444.5 414.5 c 128,-1,38
 476 384 476 384 495 338 c 128,-1,39
 514 292 514 292 514 231 c 256,40,41
 514 170 514 170 495 124.5 c 128,-1,42
 476 79 476 79 444.5 48.5 c 128,-1,43
 413 18 413 18 372.5 2.5 c 128,-1,44
 332 -13 332 -13 288 -13 c 256,45,46
 244 -13 244 -13 203.5 2.5 c 128,-1,47
 163 18 163 18 132 48.5 c 128,-1,48
 101 79 101 79 82 124.5 c 128,-1,49
 63 170 63 170 63 231 c 256,30,31
288 51 m 0,50,51
 317 51 317 51 345.5 62.5 c 128,-1,52
 374 74 374 74 396.5 97 c 128,-1,53
 419 120 419 120 432.5 154 c 128,-1,54
 446 188 446 188 446 232 c 0,55,56
 446 275 446 275 432.5 308.5 c 128,-1,57
 419 342 419 342 396.5 365 c 128,-1,58
 374 388 374 388 346 400 c 128,-1,59
 318 412 318 412 288 412 c 256,60,61
 258 412 258 412 229.5 400 c 128,-1,62
 201 388 201 388 178.5 365 c 128,-1,63
 156 342 156 342 142.5 308.5 c 128,-1,64
 129 275 129 275 129 232 c 0,65,66
 129 188 129 188 142.5 154 c 128,-1,67
 156 120 156 120 178.5 97 c 128,-1,68
 201 74 201 74 229.5 62.5 c 128,-1,69
 258 51 258 51 288 51 c 0,50,51
EndSplineSet
EndChar

StartChar: macron
Encoding: 175 175 138
Width: 500
Flags: W
LayerCount: 2
Fore
SplineSet
236 647 m 1,0,-1
 523 647 l 1,1,-1
 502 560 l 1,2,-1
 214 560 l 1,3,-1
 236 647 l 1,0,-1
EndSplineSet
EndChar

StartChar: degree
Encoding: 176 176 139
Width: 500
Flags: W
LayerCount: 2
Fore
SplineSet
348 698 m 0,0,1
 379 698 379 698 405.5 688.5 c 128,-1,2
 432 679 432 679 451 661 c 128,-1,3
 470 643 470 643 481 617 c 128,-1,4
 492 591 492 591 492 559 c 256,5,6
 492 527 492 527 481 501.5 c 128,-1,7
 470 476 470 476 451 458 c 128,-1,8
 432 440 432 440 405.5 430.5 c 128,-1,9
 379 421 379 421 348 421 c 0,10,11
 283 421 283 421 243.5 457.5 c 128,-1,12
 204 494 204 494 204 559 c 256,13,14
 204 624 204 624 244 661 c 128,-1,15
 284 698 284 698 348 698 c 0,0,1
348 505 m 0,16,17
 372 505 372 505 387.5 518.5 c 128,-1,18
 403 532 403 532 403 560 c 256,19,20
 403 588 403 588 387.5 601 c 128,-1,21
 372 614 372 614 348 614 c 0,22,23
 326 614 326 614 310 601 c 128,-1,24
 294 588 294 588 294 560 c 256,25,26
 294 532 294 532 309.5 518.5 c 128,-1,27
 325 505 325 505 348 505 c 0,16,17
EndSplineSet
EndChar

StartChar: plusminus
Encoding: 177 177 140
Width: 500
Flags: W
LayerCount: 2
Fore
SplineSet
47 102 m 1,0,-1
 466 102 l 1,1,-1
 442 0 l 1,2,-1
 23 0 l 1,3,-1
 47 102 l 1,0,-1
118 402 m 1,4,-1
 275 402 l 1,5,-1
 312 558 l 1,6,-1
 418 558 l 1,7,-1
 381 402 l 1,8,-1
 538 402 l 1,9,-1
 514 300 l 1,10,-1
 357 300 l 1,11,-1
 319 143 l 1,12,-1
 213 143 l 1,13,-1
 251 300 l 1,14,-1
 94 300 l 1,15,-1
 118 402 l 1,4,-1
EndSplineSet
EndChar

StartChar: twosuperior
Encoding: 178 178 141
Width: 500
Flags: W
LayerCount: 2
Fore
SplineSet
454 351 m 1,0,-1
 434 270 l 1,1,-1
 178 270 l 1,2,3
 178 297 178 297 183 321 c 128,-1,4
 188 345 188 345 201.5 366.5 c 128,-1,5
 215 388 215 388 239 408 c 128,-1,6
 263 428 263 428 300 448 c 0,7,8
 326 463 326 463 341 473 c 128,-1,9
 356 483 356 483 364 491.5 c 128,-1,10
 372 500 372 500 374.5 507.5 c 128,-1,11
 377 515 377 515 377 524 c 0,12,13
 377 535 377 535 368 542.5 c 128,-1,14
 359 550 359 550 344 550 c 0,15,16
 327 550 327 550 304.5 540 c 128,-1,17
 282 530 282 530 253 507 c 1,18,-1
 220 578 l 1,19,20
 249 604 249 604 285.5 618.5 c 128,-1,21
 322 633 322 633 362 633 c 0,22,23
 384 633 384 633 404 627.5 c 128,-1,24
 424 622 424 622 439 611 c 128,-1,25
 454 600 454 600 463 582 c 128,-1,26
 472 564 472 564 472 540 c 0,27,28
 472 499 472 499 451 468 c 128,-1,29
 430 437 430 437 381 407 c 0,30,31
 369 399 369 399 356.5 391.5 c 128,-1,32
 344 384 344 384 333 376.5 c 128,-1,33
 322 369 322 369 314 362.5 c 128,-1,34
 306 356 306 356 303 351 c 1,35,-1
 454 351 l 1,0,-1
EndSplineSet
Substitution2: "Single Substitution lookup 22 subtable" twoinferior
Substitution2: "'sinf' Scientific Inferiors lookup 11 subtable" two.sinf
Substitution2: "'subs' Subscript lookup 10 subtable" two.sinf
Substitution2: "'sups' Superscript lookup 9 subtable" two.sups
Substitution2: "'dnom' Denominators lookup 8 subtable" twoinferior
EndChar

StartChar: threesuperior
Encoding: 179 179 142
Width: 500
Flags: W
LayerCount: 2
Fore
SplineSet
204 366 m 1,0,1
 221 355 221 355 246.5 348.5 c 128,-1,2
 272 342 272 342 298 342 c 0,3,4
 327 342 327 342 348.5 352 c 128,-1,5
 370 362 370 362 370 385 c 0,6,7
 370 400 370 400 356.5 408.5 c 128,-1,8
 343 417 343 417 313 417 c 2,9,-1
 268 417 l 1,10,-1
 286 486 l 1,11,-1
 326 486 l 2,12,13
 355 486 355 486 370.5 499 c 128,-1,14
 386 512 386 512 386 528 c 0,15,16
 386 539 386 539 376 547 c 128,-1,17
 366 555 366 555 345 555 c 0,18,19
 322 555 322 555 299 547.5 c 128,-1,20
 276 540 276 540 258 531 c 1,21,-1
 239 603 l 1,22,23
 262 614 262 614 297.5 623.5 c 128,-1,24
 333 633 333 633 368 633 c 0,25,26
 389 633 389 633 408.5 629 c 128,-1,27
 428 625 428 625 442.5 615 c 128,-1,28
 457 605 457 605 465.5 588.5 c 128,-1,29
 474 572 474 572 474 547 c 0,30,31
 474 521 474 521 459 496.5 c 128,-1,32
 444 472 444 472 415 459 c 1,33,34
 435 449 435 449 446.5 429 c 128,-1,35
 458 409 458 409 458 385 c 0,36,37
 458 352 458 352 443.5 328.5 c 128,-1,38
 429 305 429 305 406 290 c 128,-1,39
 383 275 383 275 353.5 268.5 c 128,-1,40
 324 262 324 262 293 262 c 0,41,42
 258 262 258 262 224.5 269.5 c 128,-1,43
 191 277 191 277 168 291 c 1,44,-1
 204 366 l 1,0,1
EndSplineSet
Substitution2: "Single Substitution lookup 22 subtable" threeinferior
Substitution2: "'sinf' Scientific Inferiors lookup 11 subtable" three.sinf
Substitution2: "'subs' Subscript lookup 10 subtable" three.sinf
Substitution2: "'sups' Superscript lookup 9 subtable" three.sups
Substitution2: "'dnom' Denominators lookup 8 subtable" threeinferior
EndChar

StartChar: acute
Encoding: 180 180 143
Width: 500
Flags: W
LayerCount: 2
Fore
SplineSet
495 597 m 1,0,-1
 321 506 l 1,1,-1
 276 573 l 1,2,-1
 434 691 l 1,3,-1
 495 597 l 1,0,-1
EndSplineSet
EndChar

StartChar: mu
Encoding: 181 181 144
Width: 500
Flags: W
LayerCount: 2
Fore
SplineSet
462 199 m 2,0,1
 451 160 451 160 451 134 c 0,2,3
 451 98 451 98 490 91 c 1,4,-1
 455 -10 l 1,5,6
 410 -9 410 -9 387.5 3 c 128,-1,7
 365 15 365 15 351 36 c 1,8,9
 331 19 331 19 302 4 c 128,-1,10
 273 -11 273 -11 236 -11 c 0,11,12
 210 -11 210 -11 189 -4 c 128,-1,13
 168 3 168 3 155 14 c 1,14,15
 154 -12 154 -12 150.5 -34 c 128,-1,16
 147 -56 147 -56 141 -82 c 2,17,-1
 121 -165 l 1,18,-1
 1 -165 l 1,19,-1
 153 470 l 1,20,-1
 275 470 l 1,21,-1
 221 245 l 2,22,23
 215 222 215 222 209.5 197.5 c 128,-1,24
 204 173 204 173 204 153 c 0,25,26
 204 128 204 128 215.5 112 c 128,-1,27
 227 96 227 96 256 96 c 0,28,29
 284 96 284 96 302 106 c 128,-1,30
 320 116 320 116 334 126 c 1,31,32
 331 142 331 142 332.5 159 c 128,-1,33
 334 176 334 176 338 193 c 2,34,-1
 405 470 l 1,35,-1
 527 470 l 1,36,-1
 462 199 l 2,0,1
EndSplineSet
EndChar

StartChar: paragraph
Encoding: 182 182 145
Width: 500
Flags: W
LayerCount: 2
Fore
SplineSet
210 232 m 1,0,1
 151 244 151 244 122 280.5 c 128,-1,2
 93 317 93 317 93 371 c 0,3,4
 93 432 93 432 118 480 c 128,-1,5
 143 528 143 528 186 560 c 128,-1,6
 229 592 229 592 284.5 609 c 128,-1,7
 340 626 340 626 402 626 c 0,8,9
 450 626 450 626 498.5 620.5 c 128,-1,10
 547 615 547 615 582 605 c 1,11,-1
 397 -165 l 1,12,-1
 296 -165 l 1,13,-1
 461 522 l 1,14,15
 454 523 454 523 439 524 c 128,-1,16
 424 525 424 525 407 525 c 0,17,18
 400 525 400 525 393.5 525 c 128,-1,19
 387 525 387 525 381 524 c 1,20,-1
 216 -165 l 1,21,-1
 114 -165 l 1,22,-1
 210 232 l 1,0,1
EndSplineSet
EndChar

StartChar: cedilla
Encoding: 184 184 147
Width: 500
Flags: W
LayerCount: 2
Fore
SplineSet
295 -25 m 1,0,1
 317 -36 317 -36 326 -51 c 128,-1,2
 335 -66 335 -66 335 -84 c 0,3,4
 335 -125 335 -125 300.5 -147.5 c 128,-1,5
 266 -170 266 -170 212 -170 c 0,6,7
 164 -170 164 -170 126 -150 c 1,8,-1
 152 -92 l 1,9,10
 163 -98 163 -98 177.5 -101.5 c 128,-1,11
 192 -105 192 -105 206 -105 c 0,12,13
 229 -105 229 -105 236.5 -96 c 128,-1,14
 244 -87 244 -87 244 -80 c 0,15,16
 244 -69 244 -69 238.5 -61.5 c 128,-1,17
 233 -54 233 -54 218 -49 c 2,18,-1
 200 -43 l 1,19,20
 212 -24 212 -24 222 -10.5 c 128,-1,21
 232 3 232 3 243 18 c 1,22,-1
 325 18 l 1,23,24
 317 8 317 8 310 -3 c 128,-1,25
 303 -14 303 -14 295 -25 c 1,0,1
EndSplineSet
EndChar

StartChar: onesuperior
Encoding: 185 185 148
Width: 500
Flags: W
LayerCount: 2
Fore
SplineSet
176 351 m 1,0,-1
 271 351 l 1,1,-1
 309 511 l 1,2,3
 289 500 289 500 268.5 492.5 c 128,-1,4
 248 485 248 485 219 474 c 1,5,-1
 209 552 l 1,6,7
 251 567 251 567 290 586 c 128,-1,8
 329 605 329 605 361 626 c 1,9,-1
 438 626 l 1,10,-1
 372 351 l 1,11,-1
 453 351 l 1,12,-1
 433 270 l 1,13,-1
 156 270 l 1,14,-1
 176 351 l 1,0,-1
EndSplineSet
Substitution2: "Single Substitution lookup 22 subtable" oneinferior
Substitution2: "'sinf' Scientific Inferiors lookup 11 subtable" one.sinf
Substitution2: "'subs' Subscript lookup 10 subtable" one.sinf
Substitution2: "'sups' Superscript lookup 9 subtable" one.sups
Substitution2: "'dnom' Denominators lookup 8 subtable" oneinferior
EndChar

StartChar: ordmasculine
Encoding: 186 186 149
Width: 500
Flags: W
LayerCount: 2
Fore
SplineSet
266 407 m 0,0,1
 266 374 266 374 282 364 c 128,-1,2
 298 354 298 354 318 354 c 256,3,4
 338 354 338 354 356 365 c 128,-1,5
 374 376 374 376 388 395.5 c 128,-1,6
 402 415 402 415 410.5 441.5 c 128,-1,7
 419 468 419 468 419 499 c 0,8,9
 419 532 419 532 403 542.5 c 128,-1,10
 387 553 387 553 367 553 c 256,11,12
 347 553 347 553 329 541.5 c 128,-1,13
 311 530 311 530 297 510.5 c 128,-1,14
 283 491 283 491 274.5 464.5 c 128,-1,15
 266 438 266 438 266 407 c 0,0,1
173 400 m 0,16,17
 173 445 173 445 186 487 c 128,-1,18
 199 529 199 529 224.5 561.5 c 128,-1,19
 250 594 250 594 288.5 613.5 c 128,-1,20
 327 633 327 633 377 633 c 0,21,22
 447 633 447 633 479.5 599 c 128,-1,23
 512 565 512 565 512 506 c 0,24,25
 512 462 512 462 499 420 c 128,-1,26
 486 378 486 378 460.5 345.5 c 128,-1,27
 435 313 435 313 396.5 293 c 128,-1,28
 358 273 358 273 308 273 c 0,29,30
 238 273 238 273 205.5 307 c 128,-1,31
 173 341 173 341 173 400 c 0,16,17
EndSplineSet
EndChar

StartChar: guillemotright
Encoding: 187 187 150
Width: 500
Flags: W
LayerCount: 2
Fore
SplineSet
391 258 m 1,0,-1
 333 427 l 1,1,-1
 403 463 l 1,2,-1
 500 250 l 1,3,-1
 327 46 l 1,4,-1
 264 91 l 1,5,-1
 391 258 l 1,0,-1
191 258 m 1,6,-1
 133 427 l 1,7,-1
 203 463 l 1,8,-1
 300 250 l 1,9,-1
 127 46 l 1,10,-1
 64 91 l 1,11,-1
 191 258 l 1,6,-1
EndSplineSet
Substitution2: "'case' Case-Sensitive Forms lookup 17 subtable" Guillemotright
EndChar

StartChar: onequarter
Encoding: 188 188 151
Width: 500
Flags: W
LayerCount: 2
Fore
SplineSet
499 250 m 1,0,-1
 463 99 l 1,1,-1
 499 99 l 1,2,-1
 485 39 l 1,3,-1
 449 39 l 1,4,-1
 439 0 l 1,5,-1
 367 0 l 1,6,-1
 377 39 l 1,7,-1
 249 39 l 1,8,-1
 261 88 l 1,9,10
 279 111 279 111 294.5 130.5 c 128,-1,11
 310 150 310 150 325.5 169 c 128,-1,12
 341 188 341 188 359 207.5 c 128,-1,13
 377 227 377 227 399 250 c 1,14,-1
 499 250 l 1,0,-1
113 557 m 1,15,16
 151 572 151 572 179 587.5 c 128,-1,17
 207 603 207 603 238 626 c 1,18,-1
 301 626 l 1,19,-1
 240 376 l 1,20,-1
 154 376 l 1,21,-1
 191 526 l 1,22,23
 169 515 169 515 153.5 509 c 128,-1,24
 138 503 138 503 118 498 c 1,25,-1
 113 557 l 1,15,16
413 188 m 1,26,27
 393 168 393 168 373.5 143.5 c 128,-1,28
 354 119 354 119 338 99 c 1,29,-1
 391 99 l 1,30,-1
 413 188 l 1,26,27
574 619 m 1,31,-1
 109 0 l 1,32,-1
 13 0 l 1,33,-1
 477 619 l 1,34,-1
 574 619 l 1,31,-1
EndSplineSet
Ligature2: "'frac' Diagonal Fractions lookup 13 subtable" one.sinf fraction four.sinf
Ligature2: "'frac' Diagonal Fractions lookup 13 subtable" one.sinf fraction four.sups
Ligature2: "'frac' Diagonal Fractions lookup 13 subtable" one.sinf fraction fourinferior
Ligature2: "'frac' Diagonal Fractions lookup 13 subtable" one.sinf fraction foursuperior
Ligature2: "'frac' Diagonal Fractions lookup 13 subtable" one.sinf fraction four
Ligature2: "'frac' Diagonal Fractions lookup 13 subtable" one.sups fraction four.sinf
Ligature2: "'frac' Diagonal Fractions lookup 13 subtable" one.sups fraction four.sups
Ligature2: "'frac' Diagonal Fractions lookup 13 subtable" one.sups fraction fourinferior
Ligature2: "'frac' Diagonal Fractions lookup 13 subtable" one.sups fraction foursuperior
Ligature2: "'frac' Diagonal Fractions lookup 13 subtable" one.sups fraction four
Ligature2: "'frac' Diagonal Fractions lookup 13 subtable" oneinferior fraction four.sinf
Ligature2: "'frac' Diagonal Fractions lookup 13 subtable" oneinferior fraction four.sups
Ligature2: "'frac' Diagonal Fractions lookup 13 subtable" oneinferior fraction fourinferior
Ligature2: "'frac' Diagonal Fractions lookup 13 subtable" oneinferior fraction foursuperior
Ligature2: "'frac' Diagonal Fractions lookup 13 subtable" oneinferior fraction four
Ligature2: "'frac' Diagonal Fractions lookup 13 subtable" onesuperior fraction four.sinf
Ligature2: "'frac' Diagonal Fractions lookup 13 subtable" onesuperior fraction four.sups
Ligature2: "'frac' Diagonal Fractions lookup 13 subtable" onesuperior fraction fourinferior
Ligature2: "'frac' Diagonal Fractions lookup 13 subtable" onesuperior fraction foursuperior
Ligature2: "'frac' Diagonal Fractions lookup 13 subtable" onesuperior fraction four
Ligature2: "'frac' Diagonal Fractions lookup 13 subtable" one fraction four.sinf
Ligature2: "'frac' Diagonal Fractions lookup 13 subtable" one fraction four.sups
Ligature2: "'frac' Diagonal Fractions lookup 13 subtable" one fraction fourinferior
Ligature2: "'frac' Diagonal Fractions lookup 13 subtable" one fraction foursuperior
Ligature2: "'frac' Diagonal Fractions lookup 13 subtable" one fraction four
EndChar

StartChar: onehalf
Encoding: 189 189 152
Width: 500
Flags: W
LayerCount: 2
Fore
SplineSet
572 619 m 1,0,-1
 107 0 l 1,1,-1
 12 0 l 1,2,-1
 476 619 l 1,3,-1
 572 619 l 1,0,-1
113 557 m 1,4,5
 151 572 151 572 179 587.5 c 128,-1,6
 207 603 207 603 238 626 c 1,7,-1
 301 626 l 1,8,-1
 240 376 l 1,9,-1
 154 376 l 1,10,-1
 191 526 l 1,11,12
 169 515 169 515 153.5 509 c 128,-1,13
 138 503 138 503 118 498 c 1,14,-1
 113 557 l 1,4,5
484 62 m 1,15,-1
 469 0 l 1,16,-1
 268 0 l 1,17,18
 270 47 270 47 291.5 71.5 c 128,-1,19
 313 96 313 96 353 116 c 0,20,21
 390 135 390 135 406.5 146 c 128,-1,22
 423 157 423 157 423 171 c 0,23,24
 423 180 423 180 416.5 184.5 c 128,-1,25
 410 189 410 189 399 189 c 0,26,27
 383 189 383 189 366.5 181 c 128,-1,28
 350 173 350 173 334 160 c 1,29,-1
 306 212 l 1,30,31
 326 233 326 233 356.5 246 c 128,-1,32
 387 259 387 259 419 259 c 0,33,34
 461 259 461 259 481 239.5 c 128,-1,35
 501 220 501 220 501 188 c 0,36,37
 501 167 501 167 494.5 152 c 128,-1,38
 488 137 488 137 477 125.5 c 128,-1,39
 466 114 466 114 452 105.5 c 128,-1,40
 438 97 438 97 422 89 c 0,41,42
 410 83 410 83 396 76 c 128,-1,43
 382 69 382 69 374 62 c 1,44,-1
 484 62 l 1,15,-1
EndSplineSet
Ligature2: "'frac' Diagonal Fractions lookup 13 subtable" one.sinf fraction two.sinf
Ligature2: "'frac' Diagonal Fractions lookup 13 subtable" one.sinf fraction two.sups
Ligature2: "'frac' Diagonal Fractions lookup 13 subtable" one.sinf fraction twoinferior
Ligature2: "'frac' Diagonal Fractions lookup 13 subtable" one.sinf fraction twosuperior
Ligature2: "'frac' Diagonal Fractions lookup 13 subtable" one.sinf fraction two
Ligature2: "'frac' Diagonal Fractions lookup 13 subtable" one.sups fraction two.sinf
Ligature2: "'frac' Diagonal Fractions lookup 13 subtable" one.sups fraction two.sups
Ligature2: "'frac' Diagonal Fractions lookup 13 subtable" one.sups fraction twoinferior
Ligature2: "'frac' Diagonal Fractions lookup 13 subtable" one.sups fraction twosuperior
Ligature2: "'frac' Diagonal Fractions lookup 13 subtable" one.sups fraction two
Ligature2: "'frac' Diagonal Fractions lookup 13 subtable" oneinferior fraction two.sinf
Ligature2: "'frac' Diagonal Fractions lookup 13 subtable" oneinferior fraction two.sups
Ligature2: "'frac' Diagonal Fractions lookup 13 subtable" oneinferior fraction twoinferior
Ligature2: "'frac' Diagonal Fractions lookup 13 subtable" oneinferior fraction twosuperior
Ligature2: "'frac' Diagonal Fractions lookup 13 subtable" oneinferior fraction two
Ligature2: "'frac' Diagonal Fractions lookup 13 subtable" onesuperior fraction two.sinf
Ligature2: "'frac' Diagonal Fractions lookup 13 subtable" onesuperior fraction two.sups
Ligature2: "'frac' Diagonal Fractions lookup 13 subtable" onesuperior fraction twoinferior
Ligature2: "'frac' Diagonal Fractions lookup 13 subtable" onesuperior fraction twosuperior
Ligature2: "'frac' Diagonal Fractions lookup 13 subtable" onesuperior fraction two
Ligature2: "'frac' Diagonal Fractions lookup 13 subtable" one fraction two.sinf
Ligature2: "'frac' Diagonal Fractions lookup 13 subtable" one fraction two.sups
Ligature2: "'frac' Diagonal Fractions lookup 13 subtable" one fraction twoinferior
Ligature2: "'frac' Diagonal Fractions lookup 13 subtable" one fraction twosuperior
Ligature2: "'frac' Diagonal Fractions lookup 13 subtable" one fraction two
EndChar

StartChar: threequarters
Encoding: 190 190 153
Width: 500
Flags: W
LayerCount: 2
Fore
SplineSet
593 619 m 1,0,-1
 128 0 l 1,1,-1
 32 0 l 1,2,-1
 496 619 l 1,3,-1
 593 619 l 1,0,-1
112 445 m 1,4,5
 122 440 122 440 140 435 c 128,-1,6
 158 430 158 430 178 430 c 0,7,8
 185 430 185 430 194 430.5 c 128,-1,9
 203 431 203 431 211 433.5 c 128,-1,10
 219 436 219 436 224.5 441 c 128,-1,11
 230 446 230 446 230 456 c 0,12,13
 230 478 230 478 176 478 c 2,14,-1
 156 478 l 1,15,-1
 169 530 l 1,16,-1
 192 530 l 2,17,18
 200 530 200 530 209.5 531 c 128,-1,19
 219 532 219 532 227 534.5 c 128,-1,20
 235 537 235 537 240 542 c 128,-1,21
 245 547 245 547 245 555 c 0,22,23
 245 564 245 564 237 568 c 128,-1,24
 229 572 229 572 216 572 c 0,25,26
 196 572 196 572 176.5 565.5 c 128,-1,27
 157 559 157 559 146 554 c 1,28,-1
 134 608 l 1,29,30
 151 619 151 619 180 626 c 128,-1,31
 209 633 209 633 238 633 c 0,32,33
 285 633 285 633 304.5 616.5 c 128,-1,34
 324 600 324 600 324 578 c 256,35,36
 324 556 324 556 314 540.5 c 128,-1,37
 304 525 304 525 277 510 c 1,38,39
 299 502 299 502 307 489.5 c 128,-1,40
 315 477 315 477 315 462 c 0,41,42
 315 436 315 436 303 418 c 128,-1,43
 291 400 291 400 272.5 388.5 c 128,-1,44
 254 377 254 377 230.5 372 c 128,-1,45
 207 367 207 367 185 367 c 0,46,47
 147 367 147 367 123 372.5 c 128,-1,48
 99 378 99 378 85 386 c 1,49,-1
 112 445 l 1,4,5
499 250 m 1,50,-1
 463 99 l 1,51,-1
 499 99 l 1,52,-1
 485 39 l 1,53,-1
 449 39 l 1,54,-1
 439 0 l 1,55,-1
 367 0 l 1,56,-1
 377 39 l 1,57,-1
 249 39 l 1,58,-1
 261 88 l 1,59,60
 279 111 279 111 294.5 130.5 c 128,-1,61
 310 150 310 150 325.5 169 c 128,-1,62
 341 188 341 188 359 207.5 c 128,-1,63
 377 227 377 227 399 250 c 1,64,-1
 499 250 l 1,50,-1
413 188 m 1,65,66
 393 168 393 168 373.5 143.5 c 128,-1,67
 354 119 354 119 338 99 c 1,68,-1
 391 99 l 1,69,-1
 413 188 l 1,65,66
EndSplineSet
Ligature2: "'frac' Diagonal Fractions lookup 13 subtable" three.sinf fraction four.sinf
Ligature2: "'frac' Diagonal Fractions lookup 13 subtable" three.sinf fraction four.sups
Ligature2: "'frac' Diagonal Fractions lookup 13 subtable" three.sinf fraction fourinferior
Ligature2: "'frac' Diagonal Fractions lookup 13 subtable" three.sinf fraction foursuperior
Ligature2: "'frac' Diagonal Fractions lookup 13 subtable" three.sinf fraction four
Ligature2: "'frac' Diagonal Fractions lookup 13 subtable" three.sups fraction four.sinf
Ligature2: "'frac' Diagonal Fractions lookup 13 subtable" three.sups fraction four.sups
Ligature2: "'frac' Diagonal Fractions lookup 13 subtable" three.sups fraction fourinferior
Ligature2: "'frac' Diagonal Fractions lookup 13 subtable" three.sups fraction foursuperior
Ligature2: "'frac' Diagonal Fractions lookup 13 subtable" three.sups fraction four
Ligature2: "'frac' Diagonal Fractions lookup 13 subtable" threeinferior fraction four.sinf
Ligature2: "'frac' Diagonal Fractions lookup 13 subtable" threeinferior fraction four.sups
Ligature2: "'frac' Diagonal Fractions lookup 13 subtable" threeinferior fraction fourinferior
Ligature2: "'frac' Diagonal Fractions lookup 13 subtable" threeinferior fraction foursuperior
Ligature2: "'frac' Diagonal Fractions lookup 13 subtable" threeinferior fraction four
Ligature2: "'frac' Diagonal Fractions lookup 13 subtable" threesuperior fraction four.sinf
Ligature2: "'frac' Diagonal Fractions lookup 13 subtable" threesuperior fraction four.sups
Ligature2: "'frac' Diagonal Fractions lookup 13 subtable" threesuperior fraction fourinferior
Ligature2: "'frac' Diagonal Fractions lookup 13 subtable" threesuperior fraction foursuperior
Ligature2: "'frac' Diagonal Fractions lookup 13 subtable" threesuperior fraction four
Ligature2: "'frac' Diagonal Fractions lookup 13 subtable" three fraction four.sinf
Ligature2: "'frac' Diagonal Fractions lookup 13 subtable" three fraction four.sups
Ligature2: "'frac' Diagonal Fractions lookup 13 subtable" three fraction fourinferior
Ligature2: "'frac' Diagonal Fractions lookup 13 subtable" three fraction foursuperior
Ligature2: "'frac' Diagonal Fractions lookup 13 subtable" three fraction four
EndChar

StartChar: questiondown
Encoding: 191 191 154
Width: 500
Flags: W
LayerCount: 2
Fore
SplineSet
341 303 m 0,0,1
 309 303 309 303 288 321.5 c 128,-1,2
 267 340 267 340 267 377 c 0,3,4
 267 397 267 397 274.5 414 c 128,-1,5
 282 431 282 431 294.5 443.5 c 128,-1,6
 307 456 307 456 323 463 c 128,-1,7
 339 470 339 470 357 470 c 0,8,9
 388 470 388 470 409.5 451 c 128,-1,10
 431 432 431 432 431 395 c 0,11,12
 431 374 431 374 423.5 357 c 128,-1,13
 416 340 416 340 403.5 328 c 128,-1,14
 391 316 391 316 374.5 309.5 c 128,-1,15
 358 303 358 303 341 303 c 0,0,1
247 -67 m 0,16,17
 280 -67 280 -67 308 -56.5 c 128,-1,18
 336 -46 336 -46 375 -29 c 1,19,-1
 390 -124 l 1,20,21
 349 -146 349 -146 305 -158 c 128,-1,22
 261 -170 261 -170 213 -170 c 0,23,24
 169 -170 169 -170 138.5 -160 c 128,-1,25
 108 -150 108 -150 88.5 -132.5 c 128,-1,26
 69 -115 69 -115 60 -92 c 128,-1,27
 51 -69 51 -69 51 -42 c 0,28,29
 51 -12 51 -12 60 11.5 c 128,-1,30
 69 35 69 35 84.5 55 c 128,-1,31
 100 75 100 75 121 92.5 c 128,-1,32
 142 110 142 110 167 127 c 0,33,34
 190 143 190 143 206 155.5 c 128,-1,35
 222 168 222 168 233.5 180 c 128,-1,36
 245 192 245 192 253 205.5 c 128,-1,37
 261 219 261 219 267 238 c 1,38,-1
 381 238 l 1,39,40
 377 215 377 215 369.5 195.5 c 128,-1,41
 362 176 362 176 349 157 c 128,-1,42
 336 138 336 138 316.5 120 c 128,-1,43
 297 102 297 102 269 82 c 0,44,45
 245 64 245 64 228.5 51.5 c 128,-1,46
 212 39 212 39 202.5 28 c 128,-1,47
 193 17 193 17 188.5 5.5 c 128,-1,48
 184 -6 184 -6 184 -21 c 0,49,50
 184 -67 184 -67 247 -67 c 0,16,17
EndSplineSet
Substitution2: "'case' Case-Sensitive Forms lookup 17 subtable" Questiondown
EndChar

StartChar: Aring
Encoding: 197 197 160
Width: 500
Flags: W
LayerCount: 2
Fore
SplineSet
356 144 m 1,0,-1
 180 144 l 1,1,2
 165 110 165 110 149 74 c 128,-1,3
 133 38 133 38 119 0 c 1,4,-1
 -6 0 l 1,5,6
 78 183 78 183 156 337 c 128,-1,7
 234 491 234 491 308 612 c 1,8,9
 295 625 295 625 287.5 643.5 c 128,-1,10
 280 662 280 662 280 685 c 0,11,12
 280 710 280 710 288.5 729.5 c 128,-1,13
 297 749 297 749 311.5 762 c 128,-1,14
 326 775 326 775 345 781.5 c 128,-1,15
 364 788 364 788 384 788 c 0,16,17
 427 788 427 788 458.5 762 c 128,-1,18
 490 736 490 736 490 685 c 0,19,20
 490 654 490 654 477.5 632.5 c 128,-1,21
 465 611 465 611 445 599 c 1,22,23
 459 467 459 467 468.5 319 c 128,-1,24
 478 171 478 171 476 0 c 1,25,-1
 352 0 l 1,26,-1
 356 144 l 1,0,-1
352 502 m 1,27,28
 339 477 339 477 326.5 453 c 128,-1,29
 314 429 314 429 299.5 399.5 c 128,-1,30
 285 370 285 370 267 332 c 128,-1,31
 249 294 249 294 226 243 c 1,32,-1
 358 243 l 1,33,34
 359 294 359 294 358.5 332 c 128,-1,35
 358 370 358 370 357 399.5 c 128,-1,36
 356 429 356 429 354.5 453.5 c 128,-1,37
 353 478 353 478 352 502 c 1,27,28
425 685 m 0,38,39
 425 706 425 706 413 716.5 c 128,-1,40
 401 727 401 727 384 727 c 0,41,42
 369 727 369 727 356.5 716.5 c 128,-1,43
 344 706 344 706 344 685 c 0,44,45
 344 665 344 665 356.5 654 c 128,-1,46
 369 643 369 643 384 643 c 0,47,48
 401 643 401 643 413 654 c 128,-1,49
 425 665 425 665 425 685 c 0,38,39
EndSplineSet
EndChar

StartChar: AE
Encoding: 198 198 161
Width: 500
Flags: W
LayerCount: 2
Fore
SplineSet
271 144 m 1,0,-1
 172 144 l 1,1,-1
 110 0 l 1,2,-1
 -13 0 l 1,3,4
 38 106 38 106 78.5 188 c 128,-1,5
 119 270 119 270 156.5 340.5 c 128,-1,6
 194 411 194 411 232.5 477.5 c 128,-1,7
 271 544 271 544 319 619 c 1,8,-1
 605 619 l 1,9,-1
 581 517 l 1,10,-1
 469 517 l 1,11,-1
 435 378 l 1,12,-1
 524 378 l 1,13,-1
 500 276 l 1,14,-1
 411 276 l 1,15,-1
 369 102 l 1,16,-1
 495 102 l 1,17,-1
 471 0 l 1,18,-1
 237 0 l 1,19,-1
 271 144 l 1,0,-1
365 536 m 1,20,21
 327 469 327 469 291 398 c 128,-1,22
 255 327 255 327 217 243 c 1,23,-1
 295 243 l 1,24,-1
 365 536 l 1,20,21
EndSplineSet
EndChar

StartChar: Ccedilla
Encoding: 199 199 162
Width: 500
Flags: W
LayerCount: 2
Fore
SplineSet
300 -25 m 1,0,1
 322 -36 322 -36 331 -51 c 128,-1,2
 340 -66 340 -66 340 -84 c 0,3,4
 340 -125 340 -125 305.5 -147.5 c 128,-1,5
 271 -170 271 -170 217 -170 c 0,6,7
 169 -170 169 -170 131 -150 c 1,8,-1
 157 -92 l 1,9,10
 168 -98 168 -98 182.5 -101.5 c 128,-1,11
 197 -105 197 -105 211 -105 c 0,12,13
 234 -105 234 -105 241.5 -96 c 128,-1,14
 249 -87 249 -87 249 -80 c 0,15,16
 249 -69 249 -69 243.5 -61.5 c 128,-1,17
 238 -54 238 -54 223 -49 c 2,18,-1
 205 -43 l 1,19,-1
 229 -7 l 1,20,21
 157 10 157 10 122.5 65.5 c 128,-1,22
 88 121 88 121 88 205 c 0,23,24
 88 280 88 280 108.5 356.5 c 128,-1,25
 129 433 129 433 170 494.5 c 128,-1,26
 211 556 211 556 273.5 594.5 c 128,-1,27
 336 633 336 633 420 633 c 0,28,29
 452 633 452 633 477 627 c 128,-1,30
 502 621 502 621 521 613.5 c 128,-1,31
 540 606 540 606 552 597.5 c 128,-1,32
 564 589 564 589 569 585 c 1,33,-1
 523 490 l 1,34,35
 503 505 503 505 476 515.5 c 128,-1,36
 449 526 449 526 407 526 c 0,37,38
 358 526 358 526 321.5 497 c 128,-1,39
 285 468 285 468 260.5 423 c 128,-1,40
 236 378 236 378 224 323.5 c 128,-1,41
 212 269 212 269 212 217 c 0,42,43
 212 190 212 190 217.5 168 c 128,-1,44
 223 146 223 146 235.5 129.5 c 128,-1,45
 248 113 248 113 268.5 104 c 128,-1,46
 289 95 289 95 319 95 c 0,47,48
 365 95 365 95 396 106 c 128,-1,49
 427 117 427 117 447 129 c 1,50,-1
 461 30 l 1,51,52
 438 16 438 16 398.5 3 c 128,-1,53
 359 -10 359 -10 308 -12 c 1,54,-1
 300 -25 l 1,0,1
EndSplineSet
EndChar

StartChar: Eth
Encoding: 208 208 171
Width: 500
Flags: W
LayerCount: 2
Fore
SplineSet
529 409 m 0,0,1
 529 329 529 329 510 253.5 c 128,-1,2
 491 178 491 178 450 120 c 128,-1,3
 409 62 409 62 345 27 c 128,-1,4
 281 -8 281 -8 190 -8 c 0,5,6
 157 -8 157 -8 121 -4.5 c 128,-1,7
 85 -1 85 -1 50 7 c 1,8,-1
 113 270 l 1,9,-1
 55 270 l 1,10,-1
 80 372 l 1,11,-1
 137 372 l 1,12,-1
 195 611 l 1,13,14
 233 620 233 620 263.5 623 c 128,-1,15
 294 626 294 626 324 626 c 0,16,17
 370 626 370 626 407.5 611.5 c 128,-1,18
 445 597 445 597 472 569 c 128,-1,19
 499 541 499 541 514 501 c 128,-1,20
 529 461 529 461 529 409 c 0,0,1
234 270 m 1,21,-1
 193 100 l 1,22,23
 198 99 198 99 204 99 c 128,-1,24
 210 99 210 99 212 99 c 0,25,26
 266 99 266 99 303 128.5 c 128,-1,27
 340 158 340 158 363 203.5 c 128,-1,28
 386 249 386 249 396 303 c 128,-1,29
 406 357 406 357 406 405 c 0,30,31
 406 454 406 454 388.5 486.5 c 128,-1,32
 371 519 371 519 322 519 c 0,33,34
 314 519 314 519 306.5 519 c 128,-1,35
 299 519 299 519 293 518 c 1,36,-1
 259 372 l 1,37,-1
 320 372 l 1,38,-1
 295 270 l 1,39,-1
 234 270 l 1,21,-1
EndSplineSet
EndChar

StartChar: multiply
Encoding: 215 215 178
Width: 500
Flags: W
LayerCount: 2
Fore
SplineSet
75 144 m 1,0,-1
 228 267 l 1,1,-1
 130 396 l 1,2,-1
 216 465 l 1,3,-1
 314 337 l 1,4,-1
 472 465 l 1,5,-1
 531 387 l 1,6,-1
 374 259 l 1,7,-1
 470 135 l 1,8,-1
 382 66 l 1,9,-1
 288 190 l 1,10,-1
 135 66 l 1,11,-1
 75 144 l 1,0,-1
EndSplineSet
EndChar

StartChar: Oslash
Encoding: 216 216 179
Width: 500
Flags: W
LayerCount: 2
Fore
SplineSet
367 633 m 0,0,1
 416 633 416 633 453 613 c 1,2,-1
 483 659 l 1,3,-1
 555 619 l 1,4,-1
 513 555 l 1,5,6
 526 531 526 531 533 502.5 c 128,-1,7
 540 474 540 474 540 441 c 0,8,9
 540 402 540 402 534 353 c 128,-1,10
 528 304 528 304 514 253.5 c 128,-1,11
 500 203 500 203 477 155 c 128,-1,12
 454 107 454 107 421 69.5 c 128,-1,13
 388 32 388 32 343.5 9.5 c 128,-1,14
 299 -13 299 -13 241 -13 c 0,15,16
 215 -13 215 -13 192.5 -7.5 c 128,-1,17
 170 -2 170 -2 151 8 c 1,18,-1
 119 -40 l 1,19,-1
 48 0 l 1,20,-1
 93 68 l 1,21,22
 67 114 67 114 67 179 c 0,23,24
 67 218 67 218 73 267 c 128,-1,25
 79 316 79 316 93.5 366.5 c 128,-1,26
 108 417 108 417 130.5 465 c 128,-1,27
 153 513 153 513 186.5 550.5 c 128,-1,28
 220 588 220 588 264.5 610.5 c 128,-1,29
 309 633 309 633 367 633 c 0,0,1
255 88 m 0,30,31
 294 88 294 88 324.5 120 c 128,-1,32
 355 152 355 152 377 201 c 128,-1,33
 399 250 399 250 410.5 307.5 c 128,-1,34
 422 365 422 365 422 416 c 1,35,-1
 213 103 l 1,36,37
 220 97 220 97 231 92.5 c 128,-1,38
 242 88 242 88 255 88 c 0,30,31
352 530 m 0,39,40
 314 530 314 530 283 499 c 128,-1,41
 252 468 252 468 230 421 c 128,-1,42
 208 374 208 374 196.5 316.5 c 128,-1,43
 185 259 185 259 185 207 c 1,44,-1
 391 520 l 1,45,46
 384 525 384 525 373.5 527.5 c 128,-1,47
 363 530 363 530 352 530 c 0,39,40
EndSplineSet
EndChar

StartChar: Thorn
Encoding: 222 222 185
Width: 500
Flags: W
LayerCount: 2
Fore
SplineSet
288 529 m 1,0,1
 296 530 296 530 306 530 c 128,-1,2
 316 530 316 530 324 530 c 0,3,4
 381 530 381 530 420.5 517.5 c 128,-1,5
 460 505 460 505 484.5 483 c 128,-1,6
 509 461 509 461 520 429.5 c 128,-1,7
 531 398 531 398 531 361 c 0,8,9
 531 297 531 297 508 250.5 c 128,-1,10
 485 204 485 204 443.5 174 c 128,-1,11
 402 144 402 144 344.5 129.5 c 128,-1,12
 287 115 287 115 217 115 c 2,13,-1
 188 115 l 1,14,-1
 161 0 l 1,15,-1
 38 0 l 1,16,-1
 187 619 l 1,17,-1
 310 619 l 1,18,-1
 288 529 l 1,0,1
309 425 m 0,19,20
 287 425 287 425 263 422 c 1,21,-1
 213 221 l 1,22,-1
 246 221 l 2,23,24
 326 221 326 221 367 253.5 c 128,-1,25
 408 286 408 286 408 343 c 0,26,27
 408 381 408 381 387.5 403 c 128,-1,28
 367 425 367 425 309 425 c 0,19,20
EndSplineSet
EndChar

StartChar: germandbls
Encoding: 223 223 186
Width: 500
Flags: W
LayerCount: 2
Fore
SplineSet
140 476 m 2,0,1
 150 524 150 524 167.5 563.5 c 128,-1,2
 185 603 185 603 214 632 c 128,-1,3
 243 661 243 661 285 677 c 128,-1,4
 327 693 327 693 387 693 c 0,5,6
 428 693 428 693 457 683 c 128,-1,7
 486 673 486 673 504 656.5 c 128,-1,8
 522 640 522 640 530 618 c 128,-1,9
 538 596 538 596 538 573 c 0,10,11
 538 525 538 525 517 490.5 c 128,-1,12
 496 456 496 456 471 430 c 256,13,14
 446 404 446 404 426 382.5 c 128,-1,15
 406 361 406 361 406 339 c 0,16,17
 406 316 406 316 422 299 c 128,-1,18
 438 282 438 282 457 263 c 128,-1,19
 476 244 476 244 492 218 c 128,-1,20
 508 192 508 192 508 152 c 0,21,22
 508 78 508 78 459.5 33.5 c 128,-1,23
 411 -11 411 -11 324 -11 c 0,24,25
 277 -11 277 -11 253.5 -2 c 128,-1,26
 230 7 230 7 214 16 c 1,27,-1
 255 112 l 1,28,29
 267 104 267 104 282.5 98 c 128,-1,30
 298 92 298 92 320 92 c 0,31,32
 346 92 346 92 366.5 105.5 c 128,-1,33
 387 119 387 119 387 146 c 0,34,35
 387 171 387 171 372 189.5 c 128,-1,36
 357 208 357 208 339.5 226 c 128,-1,37
 322 244 322 244 307 265 c 128,-1,38
 292 286 292 286 292 316 c 0,39,40
 292 357 292 357 314 387.5 c 128,-1,41
 336 418 336 418 363 447 c 0,42,43
 383 469 383 469 400.5 492 c 128,-1,44
 418 515 418 515 418 547 c 0,45,46
 418 567 418 567 403.5 577.5 c 128,-1,47
 389 588 389 588 364 588 c 0,48,49
 326 588 326 588 300 559 c 128,-1,50
 274 530 274 530 263 479 c 2,51,-1
 171 26 l 2,52,53
 152 -68 152 -68 102 -118 c 128,-1,54
 52 -168 52 -168 -32 -168 c 0,55,56
 -58 -168 -58 -168 -80 -162.5 c 128,-1,57
 -102 -157 -102 -157 -122 -148 c 1,58,-1
 -88 -44 l 1,59,60
 -75 -49 -75 -49 -61.5 -52.5 c 128,-1,61
 -48 -56 -48 -56 -34 -56 c 0,62,63
 -15 -56 -15 -56 -1.5 -49 c 128,-1,64
 12 -42 12 -42 21.5 -30.5 c 128,-1,65
 31 -19 31 -19 37 -3.5 c 128,-1,66
 43 12 43 12 47 30 c 2,67,-1
 140 476 l 2,0,1
EndSplineSet
EndChar

StartChar: ae
Encoding: 230 230 193
Width: 500
Flags: W
LayerCount: 2
Fore
SplineSet
457 359 m 0,0,1
 457 373 457 373 451 383 c 128,-1,2
 445 393 445 393 427 393 c 0,3,4
 417 393 417 393 404.5 385 c 128,-1,5
 392 377 392 377 379.5 360 c 128,-1,6
 367 343 367 343 355.5 316 c 128,-1,7
 344 289 344 289 336 250 c 1,8,9
 362 250 362 250 384.5 258.5 c 128,-1,10
 407 267 407 267 423 281.5 c 128,-1,11
 439 296 439 296 448 316 c 128,-1,12
 457 336 457 336 457 359 c 0,0,1
147 77 m 0,13,14
 157 77 157 77 169.5 85 c 128,-1,15
 182 93 182 93 194.5 110 c 128,-1,16
 207 127 207 127 218.5 154 c 128,-1,17
 230 181 230 181 238 220 c 1,18,19
 212 220 212 220 189.5 211.5 c 128,-1,20
 167 203 167 203 151 188 c 128,-1,21
 135 173 135 173 126 153 c 128,-1,22
 117 133 117 133 117 111 c 0,23,24
 117 97 117 97 123 87 c 128,-1,25
 129 77 129 77 147 77 c 0,13,14
30 93 m 0,26,27
 30 143 30 143 47.5 180.5 c 128,-1,28
 65 218 65 218 94 243.5 c 128,-1,29
 123 269 123 269 162 283 c 128,-1,30
 201 297 201 297 245 301 c 0,31,32
 246 305 246 305 246 308.5 c 128,-1,33
 246 312 246 312 246 315 c 0,34,35
 246 351 246 351 230.5 371 c 128,-1,36
 215 391 215 391 176 391 c 0,37,38
 159 391 159 391 141 384 c 128,-1,39
 123 377 123 377 106 365 c 1,40,-1
 94 453 l 1,41,42
 115 467 115 467 141.5 474.5 c 128,-1,43
 168 482 168 482 196 482 c 0,44,45
 241 482 241 482 274 459 c 128,-1,46
 307 436 307 436 318 388 c 1,47,48
 342 435 342 435 376 458.5 c 128,-1,49
 410 482 410 482 448 482 c 0,50,51
 466 482 466 482 483.5 476.5 c 128,-1,52
 501 471 501 471 514.5 458.5 c 128,-1,53
 528 446 528 446 536 426 c 128,-1,54
 544 406 544 406 544 377 c 0,55,56
 544 327 544 327 527 289.5 c 128,-1,57
 510 252 510 252 480.5 226.5 c 128,-1,58
 451 201 451 201 412 187 c 128,-1,59
 373 173 373 173 330 169 c 1,60,61
 329 164 329 164 329 161 c 128,-1,62
 329 158 329 158 329 154 c 0,63,64
 329 119 329 119 344 99 c 128,-1,65
 359 79 359 79 398 79 c 0,66,67
 434 79 434 79 468 104 c 1,68,-1
 480 17 l 1,69,70
 459 3 459 3 432.5 -5 c 128,-1,71
 406 -13 406 -13 379 -13 c 0,72,73
 333 -13 333 -13 300 10.5 c 128,-1,74
 267 34 267 34 256 82 c 1,75,76
 232 35 232 35 198 11 c 128,-1,77
 164 -13 164 -13 126 -13 c 0,78,79
 108 -13 108 -13 90.5 -7.5 c 128,-1,80
 73 -2 73 -2 59.5 10.5 c 128,-1,81
 46 23 46 23 38 43 c 128,-1,82
 30 63 30 63 30 93 c 0,26,27
EndSplineSet
Substitution2: "'case' Case-Sensitive Forms lookup 18 subtable" AE
EndChar

StartChar: ccedilla
Encoding: 231 231 194
Width: 500
Flags: W
LayerCount: 2
Fore
SplineSet
311 -25 m 1,0,1
 333 -36 333 -36 342 -51 c 128,-1,2
 351 -66 351 -66 351 -84 c 0,3,4
 351 -125 351 -125 316.5 -147.5 c 128,-1,5
 282 -170 282 -170 228 -170 c 0,6,7
 180 -170 180 -170 142 -150 c 1,8,-1
 168 -92 l 1,9,10
 179 -98 179 -98 193.5 -101.5 c 128,-1,11
 208 -105 208 -105 222 -105 c 0,12,13
 245 -105 245 -105 252.5 -96 c 128,-1,14
 260 -87 260 -87 260 -80 c 0,15,16
 260 -69 260 -69 254.5 -61.5 c 128,-1,17
 249 -54 249 -54 234 -49 c 2,18,-1
 216 -43 l 1,19,20
 223 -32 223 -32 228.5 -23.5 c 128,-1,21
 234 -15 234 -15 240 -7 c 1,22,23
 194 -1 194 -1 163 16 c 128,-1,24
 132 33 132 33 113 58.5 c 128,-1,25
 94 84 94 84 85.5 115.5 c 128,-1,26
 77 147 77 147 77 182 c 0,27,28
 77 247 77 247 100 302 c 128,-1,29
 123 357 123 357 164.5 396.5 c 128,-1,30
 206 436 206 436 263 458.5 c 128,-1,31
 320 481 320 481 389 481 c 0,32,33
 416 481 416 481 436.5 479 c 128,-1,34
 457 477 457 477 474 473.5 c 128,-1,35
 491 470 491 470 504.5 465.5 c 128,-1,36
 518 461 518 461 531 455 c 1,37,-1
 487 357 l 1,38,39
 471 364 471 364 446 369.5 c 128,-1,40
 421 375 421 375 389 375 c 0,41,42
 348 375 348 375 314 362.5 c 128,-1,43
 280 350 280 350 254.5 326 c 128,-1,44
 229 302 229 302 215 267 c 128,-1,45
 201 232 201 232 201 187 c 0,46,47
 201 167 201 167 206 150.5 c 128,-1,48
 211 134 211 134 224.5 122 c 128,-1,49
 238 110 238 110 261.5 103 c 128,-1,50
 285 96 285 96 321 96 c 0,51,52
 360 96 360 96 393.5 103.5 c 128,-1,53
 427 111 427 111 444 119 c 1,54,-1
 456 21 l 1,55,56
 445 15 445 15 433 10 c 128,-1,57
 421 5 421 5 405 1 c 128,-1,58
 389 -3 389 -3 368.5 -6 c 128,-1,59
 348 -9 348 -9 320 -10 c 1,60,-1
 311 -25 l 1,0,1
EndSplineSet
Substitution2: "'case' Case-Sensitive Forms lookup 18 subtable" Ccedilla
EndChar

StartChar: eth
Encoding: 240 240 203
Width: 500
Flags: W
LayerCount: 2
Fore
SplineSet
488 534 m 1,0,1
 505 463 505 463 505 391 c 0,2,3
 505 351 505 351 500 308 c 128,-1,4
 495 265 495 265 483.5 223 c 128,-1,5
 472 181 472 181 453.5 142 c 128,-1,6
 435 103 435 103 407 70 c 0,7,8
 375 32 375 32 329.5 9.5 c 128,-1,9
 284 -13 284 -13 224 -13 c 0,10,11
 182 -13 182 -13 152 1 c 128,-1,12
 122 15 122 15 102 38 c 128,-1,13
 82 61 82 61 72.5 92 c 128,-1,14
 63 123 63 123 63 156 c 0,15,16
 63 207 63 207 78.5 255 c 128,-1,17
 94 303 94 303 124.5 340 c 128,-1,18
 155 377 155 377 200 399 c 128,-1,19
 245 421 245 421 304 421 c 0,20,21
 331 421 331 421 354.5 414 c 128,-1,22
 378 407 378 407 394 395 c 1,23,24
 394 418 394 418 391.5 448 c 128,-1,25
 389 478 389 478 381 501 c 1,26,-1
 280 470 l 1,27,-1
 271 544 l 1,28,-1
 350 569 l 1,29,30
 341 585 341 585 323.5 604 c 128,-1,31
 306 623 306 623 289 635 c 1,32,-1
 371 693 l 1,33,34
 397 675 397 675 421 652 c 128,-1,35
 445 629 445 629 461 603 c 1,36,-1
 572 638 l 1,37,-1
 586 564 l 1,38,-1
 488 534 l 1,0,1
373 294 m 1,39,40
 359 311 359 311 338.5 317 c 128,-1,41
 318 323 318 323 298 323 c 0,42,43
 269 323 269 323 247.5 308.5 c 128,-1,44
 226 294 226 294 212 271 c 128,-1,45
 198 248 198 248 190.5 220 c 128,-1,46
 183 192 183 192 183 166 c 0,47,48
 183 136 183 136 195.5 115 c 128,-1,49
 208 94 208 94 236 94 c 0,50,51
 270 94 270 94 294 115 c 128,-1,52
 318 136 318 136 333.5 166.5 c 128,-1,53
 349 197 349 197 358.5 231.5 c 128,-1,54
 368 266 368 266 373 294 c 1,39,40
EndSplineSet
Substitution2: "'case' Case-Sensitive Forms lookup 18 subtable" Eth
EndChar

StartChar: divide
Encoding: 247 247 210
Width: 500
Flags: W
LayerCount: 2
Fore
SplineSet
353 518 m 0,0,1
 381 518 381 518 399.5 503 c 128,-1,2
 418 488 418 488 418 454 c 0,3,4
 418 415 418 415 393.5 393 c 128,-1,5
 369 371 369 371 337 371 c 0,6,7
 308 371 308 371 290 386 c 128,-1,8
 272 401 272 401 272 435 c 0,9,10
 272 474 272 474 296.5 496 c 128,-1,11
 321 518 321 518 353 518 c 0,0,1
105 313 m 1,12,-1
 525 313 l 1,13,-1
 501 212 l 1,14,-1
 81 212 l 1,15,-1
 105 313 l 1,12,-1
263 154 m 0,16,17
 291 154 291 154 309.5 139 c 128,-1,18
 328 124 328 124 328 90 c 0,19,20
 328 51 328 51 303.5 29 c 128,-1,21
 279 7 279 7 247 7 c 0,22,23
 218 7 218 7 200 22 c 128,-1,24
 182 37 182 37 182 71 c 0,25,26
 182 110 182 110 206.5 132 c 128,-1,27
 231 154 231 154 263 154 c 0,16,17
EndSplineSet
EndChar

StartChar: oslash
Encoding: 248 248 211
Width: 500
Flags: W
LayerCount: 2
Fore
SplineSet
238 100 m 1,0,1
 248 94 248 94 258.5 92 c 128,-1,2
 269 90 269 90 280 90 c 0,3,4
 314 90 314 90 339 108 c 128,-1,5
 364 126 364 126 380 154.5 c 128,-1,6
 396 183 396 183 403.5 219.5 c 128,-1,7
 411 256 411 256 411 293 c 1,8,-1
 238 100 l 1,0,1
264 -13 m 0,9,10
 247 -13 247 -13 235 -12.5 c 128,-1,11
 223 -12 223 -12 213 -10 c 128,-1,12
 203 -8 203 -8 193 -4.5 c 128,-1,13
 183 -1 183 -1 171 5 c 1,14,-1
 128 -45 l 1,15,-1
 70 3 l 1,16,-1
 116 55 l 1,17,18
 97 87 97 87 93 116.5 c 128,-1,19
 89 146 89 146 89 175 c 0,20,21
 89 236 89 236 109.5 291.5 c 128,-1,22
 130 347 130 347 166 389.5 c 128,-1,23
 202 432 202 432 251 457 c 128,-1,24
 300 482 300 482 357 482 c 0,25,26
 380 482 380 482 402.5 479 c 128,-1,27
 425 476 425 476 450 464 c 1,28,-1
 491 512 l 1,29,-1
 549 464 l 1,30,-1
 504 413 l 1,31,32
 518 388 518 388 523.5 359.5 c 128,-1,33
 529 331 529 331 529 296 c 0,34,35
 529 243 529 243 512 188 c 128,-1,36
 495 133 495 133 461.5 88.5 c 128,-1,37
 428 44 428 44 378.5 15.5 c 128,-1,38
 329 -13 329 -13 264 -13 c 0,9,10
380 371 m 1,39,40
 364 381 364 381 341 381 c 0,41,42
 306 381 306 381 280.5 362.5 c 128,-1,43
 255 344 255 344 238.5 315 c 128,-1,44
 222 286 222 286 214 250 c 128,-1,45
 206 214 206 214 206 179 c 1,46,-1
 380 371 l 1,39,40
EndSplineSet
Substitution2: "'case' Case-Sensitive Forms lookup 18 subtable" Oslash
EndChar

StartChar: thorn
Encoding: 254 254 217
Width: 500
Flags: W
LayerCount: 2
Fore
SplineSet
185 98 m 1,0,1
 190 96 190 96 196 96 c 128,-1,2
 202 96 202 96 209 96 c 0,3,4
 250 96 250 96 283 112.5 c 128,-1,5
 316 129 316 129 338.5 157 c 128,-1,6
 361 185 361 185 373 222.5 c 128,-1,7
 385 260 385 260 385 301 c 0,8,9
 385 316 385 316 382 329.5 c 128,-1,10
 379 343 379 343 371 353.5 c 128,-1,11
 363 364 363 364 348 370.5 c 128,-1,12
 333 377 333 377 309 377 c 0,13,14
 289 377 289 377 275 374 c 128,-1,15
 261 371 261 371 250 369 c 1,16,-1
 185 98 l 1,0,1
344 480 m 0,17,18
 425 480 425 480 465.5 432.5 c 128,-1,19
 506 385 506 385 506 310 c 0,20,21
 506 248 506 248 488 190 c 128,-1,22
 470 132 470 132 433.5 87.5 c 128,-1,23
 397 43 397 43 341 16.5 c 128,-1,24
 285 -10 285 -10 210 -10 c 0,25,26
 190 -10 190 -10 179 -9 c 128,-1,27
 168 -8 168 -8 160 -6 c 1,28,-1
 121 -165 l 1,29,-1
 -2 -165 l 1,30,-1
 200 673 l 1,31,-1
 328 694 l 1,32,-1
 273 468 l 1,33,34
 290 473 290 473 308.5 476.5 c 128,-1,35
 327 480 327 480 344 480 c 0,17,18
EndSplineSet
Substitution2: "'case' Case-Sensitive Forms lookup 18 subtable" Thorn
EndChar

StartChar: Aogonek
Encoding: 260 260 223
Width: 500
Flags: W
LayerCount: 2
Fore
SplineSet
368 144 m 1,0,-1
 192 144 l 1,1,2
 177 110 177 110 161 74 c 128,-1,3
 145 38 145 38 131 0 c 1,4,-1
 6 0 l 1,5,6
 91 186 91 186 170 341.5 c 128,-1,7
 249 497 249 497 324 619 c 1,8,-1
 455 619 l 1,9,10
 470 491 470 491 479 350 c 128,-1,11
 488 209 488 209 488 45 c 2,12,-1
 488 0 l 1,13,-1
 484 -3 l 2,14,15
 439 -36 439 -36 421 -55.5 c 128,-1,16
 403 -75 403 -75 403 -87 c 0,17,18
 403 -101 403 -101 425 -101 c 0,19,20
 438 -101 438 -101 452.5 -97.5 c 128,-1,21
 467 -94 467 -94 473 -92 c 1,22,-1
 465 -156 l 1,23,24
 448 -162 448 -162 425.5 -166 c 128,-1,25
 403 -170 403 -170 380 -170 c 0,26,27
 325 -170 325 -170 303 -154 c 128,-1,28
 281 -138 281 -138 281 -117 c 0,29,30
 281 -88 281 -88 303 -60.5 c 128,-1,31
 325 -33 325 -33 381 0 c 1,32,-1
 364 0 l 1,33,-1
 368 144 l 1,0,-1
364 502 m 1,34,35
 351 477 351 477 338.5 453 c 128,-1,36
 326 429 326 429 311.5 399.5 c 128,-1,37
 297 370 297 370 279 332 c 128,-1,38
 261 294 261 294 238 243 c 1,39,-1
 370 243 l 1,40,41
 370 263 370 263 370.5 280 c 128,-1,42
 371 297 371 297 371 313 c 0,43,44
 371 346 371 346 370 372.5 c 128,-1,45
 369 399 369 399 368 421 c 128,-1,46
 367 443 367 443 366 462.5 c 128,-1,47
 365 482 365 482 364 502 c 1,34,35
EndSplineSet
EndChar

StartChar: aogonek
Encoding: 261 261 224
Width: 500
Flags: W
LayerCount: 2
Fore
SplineSet
437 -156 m 1,0,1
 420 -162 420 -162 397.5 -166 c 128,-1,2
 375 -170 375 -170 352 -170 c 0,3,4
 297 -170 297 -170 275 -154 c 128,-1,5
 253 -138 253 -138 253 -117 c 0,6,7
 253 -88 253 -88 276 -59 c 128,-1,8
 299 -30 299 -30 360 5 c 1,9,10
 356 14 356 14 352.5 23 c 128,-1,11
 349 32 349 32 348 36 c 1,12,13
 328 21 328 21 294 5 c 128,-1,14
 260 -11 260 -11 206 -11 c 0,15,16
 140 -10 140 -10 102 36.5 c 128,-1,17
 64 83 64 83 64 172 c 0,18,19
 64 240 64 240 87 297 c 128,-1,20
 110 354 110 354 150 394.5 c 128,-1,21
 190 435 190 435 243.5 457.5 c 128,-1,22
 297 480 297 480 357 480 c 0,23,24
 398 480 398 480 440 472 c 128,-1,25
 482 464 482 464 525 447 c 1,26,-1
 463 192 l 2,27,28
 459 174 459 174 457 156.5 c 128,-1,29
 455 139 455 139 455 121 c 0,30,31
 455 92 455 92 460.5 64.5 c 128,-1,32
 466 37 466 37 475 10 c 1,33,-1
 456 -3 l 2,34,35
 410 -35 410 -35 392.5 -55 c 128,-1,36
 375 -75 375 -75 375 -87 c 0,37,38
 375 -101 375 -101 397 -101 c 0,39,40
 410 -101 410 -101 424.5 -97.5 c 128,-1,41
 439 -94 439 -94 445 -92 c 1,42,-1
 437 -156 l 1,0,1
251 94 m 0,43,44
 279 94 279 94 298 106.5 c 128,-1,45
 317 119 317 119 331 136 c 1,46,47
 333 150 333 150 335 163 c 128,-1,48
 337 176 337 176 341 193 c 2,49,-1
 384 371 l 1,50,51
 373 374 373 374 361 375 c 128,-1,52
 349 376 349 376 338 376 c 0,53,54
 303 376 303 376 275 359.5 c 128,-1,55
 247 343 247 343 227 316 c 128,-1,56
 207 289 207 289 196.5 254 c 128,-1,57
 186 219 186 219 186 182 c 0,58,59
 186 156 186 156 190.5 139 c 128,-1,60
 195 122 195 122 203.5 112 c 128,-1,61
 212 102 212 102 224 98 c 128,-1,62
 236 94 236 94 251 94 c 0,43,44
EndSplineSet
Substitution2: "'case' Case-Sensitive Forms lookup 18 subtable" Aogonek
EndChar

StartChar: dcaron
Encoding: 271 271 234
Width: 500
Flags: W
LayerCount: 2
Fore
SplineSet
193 94 m 0,0,1
 216 94 216 94 232 106.5 c 128,-1,2
 248 119 248 119 261 136 c 1,3,4
 263 150 263 150 265 163 c 128,-1,5
 267 176 267 176 271 193 c 2,6,-1
 314 371 l 1,7,8
 306 374 306 374 297 375 c 128,-1,9
 288 376 288 376 280 376 c 0,10,11
 252 376 252 376 229 359.5 c 128,-1,12
 206 343 206 343 190 316 c 128,-1,13
 174 289 174 289 165 254 c 128,-1,14
 156 219 156 219 156 182 c 0,15,16
 156 156 156 156 158.5 139 c 128,-1,17
 161 122 161 122 166 112 c 128,-1,18
 171 102 171 102 178 98 c 128,-1,19
 185 94 185 94 193 94 c 0,0,1
393 192 m 2,20,21
 389 174 389 174 387 156.5 c 128,-1,22
 385 139 385 139 385 121 c 0,23,24
 385 92 385 92 390.5 64.5 c 128,-1,25
 396 37 396 37 405 10 c 1,26,-1
 297 -8 l 1,27,28
 295 -4 295 -4 292 2 c 128,-1,29
 289 8 289 8 286 15 c 128,-1,30
 283 22 283 22 281 27.5 c 128,-1,31
 279 33 279 33 278 36 c 1,32,33
 260 21 260 21 230.5 5 c 128,-1,34
 201 -11 201 -11 159 -11 c 0,35,36
 99 -10 99 -10 66.5 31 c 128,-1,37
 34 72 34 72 34 164 c 0,38,39
 34 235 34 235 55 293 c 128,-1,40
 76 351 76 351 112 392 c 128,-1,41
 148 433 148 433 196 455 c 128,-1,42
 244 477 244 477 298 477 c 0,43,44
 318 477 318 477 338 470 c 1,45,-1
 386 673 l 1,46,-1
 514 694 l 1,47,-1
 393 192 l 2,20,21
665 693 m 1,48,-1
 582 475 l 1,49,-1
 503 475 l 1,50,-1
 553 693 l 1,51,-1
 665 693 l 1,48,-1
EndSplineSet
Substitution2: "'case' Case-Sensitive Forms lookup 18 subtable" Dcaron
EndChar

StartChar: dcroat
Encoding: 273 273 236
Width: 500
Flags: W
LayerCount: 2
Fore
SplineSet
238 94 m 0,0,1
 264 94 264 94 281.5 106.5 c 128,-1,2
 299 119 299 119 313 136 c 1,3,4
 315 150 315 150 317 163 c 128,-1,5
 319 176 319 176 323 193 c 2,6,-1
 366 371 l 1,7,8
 356 374 356 374 345.5 375 c 128,-1,9
 335 376 335 376 326 376 c 0,10,11
 294 376 294 376 268 359.5 c 128,-1,12
 242 343 242 343 224 316 c 128,-1,13
 206 289 206 289 196 254 c 128,-1,14
 186 219 186 219 186 182 c 0,15,16
 186 156 186 156 189.5 139 c 128,-1,17
 193 122 193 122 200 112 c 128,-1,18
 207 102 207 102 216.5 98 c 128,-1,19
 226 94 226 94 238 94 c 0,0,1
613 615 m 1,20,-1
 593 532 l 1,21,-1
 527 532 l 1,22,-1
 446 192 l 2,23,24
 437 156 437 156 437 121 c 0,25,26
 437 92 437 92 443 64.5 c 128,-1,27
 449 37 449 37 457 10 c 1,28,-1
 349 -8 l 1,29,30
 347 -4 347 -4 344 2 c 128,-1,31
 341 8 341 8 338 15 c 128,-1,32
 335 22 335 22 333 27.5 c 128,-1,33
 331 33 331 33 330 36 c 1,34,35
 311 21 311 21 278.5 5 c 128,-1,36
 246 -11 246 -11 194 -11 c 0,37,38
 134 -10 134 -10 99 36.5 c 128,-1,39
 64 83 64 83 64 172 c 0,40,41
 64 240 64 240 86 296.5 c 128,-1,42
 108 353 108 353 146 393 c 128,-1,43
 184 433 184 433 235 455 c 128,-1,44
 286 477 286 477 344 477 c 0,45,46
 368 477 368 477 390 470 c 1,47,-1
 405 532 l 1,48,-1
 261 532 l 1,49,-1
 280 615 l 1,50,-1
 425 615 l 1,51,-1
 438 673 l 1,52,-1
 566 694 l 1,53,-1
 547 615 l 1,54,-1
 613 615 l 1,20,-1
EndSplineSet
Substitution2: "'case' Case-Sensitive Forms lookup 18 subtable" Dcroat
EndChar

StartChar: Eogonek
Encoding: 280 280 243
Width: 500
Flags: W
LayerCount: 2
Fore
SplineSet
419 -156 m 1,0,1
 402 -162 402 -162 379.5 -166 c 128,-1,2
 357 -170 357 -170 334 -170 c 0,3,4
 279 -170 279 -170 257 -154 c 128,-1,5
 235 -138 235 -138 235 -117 c 0,6,7
 235 -88 235 -88 256 -60.5 c 128,-1,8
 277 -33 277 -33 333 0 c 1,9,-1
 53 0 l 1,10,-1
 201 619 l 1,11,-1
 568 619 l 1,12,-1
 544 517 l 1,13,-1
 300 517 l 1,14,-1
 266 378 l 1,15,-1
 478 378 l 1,16,-1
 454 276 l 1,17,-1
 242 276 l 1,18,-1
 200 102 l 1,19,-1
 466 102 l 1,20,-1
 442 0 l 1,21,-1
 435 -5 l 2,22,23
 390 -37 390 -37 373.5 -56 c 128,-1,24
 357 -75 357 -75 357 -87 c 0,25,26
 357 -101 357 -101 379 -101 c 0,27,28
 392 -101 392 -101 406.5 -97.5 c 128,-1,29
 421 -94 421 -94 427 -92 c 1,30,-1
 419 -156 l 1,0,1
EndSplineSet
EndChar

StartChar: eogonek
Encoding: 281 281 244
Width: 500
Flags: W
LayerCount: 2
Fore
SplineSet
396 -156 m 1,0,1
 379 -162 379 -162 356.5 -166 c 128,-1,2
 334 -170 334 -170 311 -170 c 0,3,4
 256 -170 256 -170 234 -154 c 128,-1,5
 212 -138 212 -138 212 -117 c 0,6,7
 212 -91 212 -91 229.5 -66 c 128,-1,8
 247 -41 247 -41 292 -12 c 1,9,-1
 290 -12 l 2,10,11
 233 -12 233 -12 192 2.5 c 128,-1,12
 151 17 151 17 125 43 c 128,-1,13
 99 69 99 69 87 104.5 c 128,-1,14
 75 140 75 140 75 183 c 0,15,16
 75 241 75 241 94.5 295.5 c 128,-1,17
 114 350 114 350 151.5 391 c 128,-1,18
 189 432 189 432 242.5 457 c 128,-1,19
 296 482 296 482 365 482 c 256,20,21
 434 482 434 482 478 448 c 128,-1,22
 522 414 522 414 522 353 c 0,23,24
 522 302 522 302 497 266.5 c 128,-1,25
 472 231 472 231 428 209 c 128,-1,26
 384 187 384 187 324.5 177 c 128,-1,27
 265 167 265 167 196 167 c 1,28,29
 196 149 196 149 202 134.5 c 128,-1,30
 208 120 208 120 221.5 110 c 128,-1,31
 235 100 235 100 257.5 94.5 c 128,-1,32
 280 89 280 89 314 89 c 0,33,34
 354 89 354 89 390 97.5 c 128,-1,35
 426 106 426 106 443 114 c 1,36,-1
 451 21 l 1,37,-1
 415 -3 l 2,38,39
 368 -34 368 -34 351 -54.5 c 128,-1,40
 334 -75 334 -75 334 -87 c 0,41,42
 334 -101 334 -101 356 -101 c 0,43,44
 369 -101 369 -101 383.5 -97.5 c 128,-1,45
 398 -94 398 -94 404 -92 c 1,46,-1
 396 -156 l 1,0,1
342 384 m 0,47,48
 296 384 296 384 254.5 352.5 c 128,-1,49
 213 321 213 321 197 252 c 1,50,51
 260 252 260 252 300.5 260 c 128,-1,52
 341 268 341 268 364 280.5 c 128,-1,53
 387 293 387 293 396 308 c 128,-1,54
 405 323 405 323 405 336 c 0,55,56
 405 359 405 359 388.5 371.5 c 128,-1,57
 372 384 372 384 342 384 c 0,47,48
EndSplineSet
Substitution2: "'case' Case-Sensitive Forms lookup 18 subtable" Eogonek
EndChar

StartChar: hcircumflex
Encoding: 293 293 256
Width: 500
Flags: W
LayerCount: 2
Fore
SplineSet
279 468 m 1,0,1
 296 473 296 473 314 476.5 c 128,-1,2
 332 480 332 480 349 480 c 0,3,4
 423 480 423 480 460 444.5 c 128,-1,5
 497 409 497 409 497 344 c 0,6,7
 497 327 497 327 494.5 307 c 128,-1,8
 492 287 492 287 487 265 c 2,9,-1
 423 0 l 1,10,-1
 300 0 l 1,11,-1
 360 249 l 2,12,13
 363 265 363 265 367 282 c 128,-1,14
 371 299 371 299 371 316 c 0,15,16
 371 339 371 339 359 356.5 c 128,-1,17
 347 374 347 374 313 374 c 0,18,19
 300 374 300 374 284.5 371.5 c 128,-1,20
 269 369 269 369 255 363 c 1,21,-1
 167 0 l 1,22,-1
 44 0 l 1,23,-1
 196 633 l 1,24,-1
 324 654 l 1,25,-1
 279 468 l 1,0,1
471 730 m 1,26,-1
 423 678 l 1,27,-1
 351 731 l 1,28,-1
 251 677 l 1,29,-1
 220 729 l 1,30,-1
 361 829 l 1,31,-1
 471 730 l 1,26,-1
EndSplineSet
Substitution2: "'case' Case-Sensitive Forms lookup 18 subtable" Hcircumflex
EndChar

StartChar: Hbar
Encoding: 294 294 257
Width: 500
Flags: W
LayerCount: 2
Fore
SplineSet
518 448 m 1,0,-1
 410 0 l 1,1,-1
 287 0 l 1,2,-1
 353 273 l 1,3,-1
 242 273 l 1,4,-1
 176 0 l 1,5,-1
 53 0 l 1,6,-1
 161 448 l 1,7,-1
 106 448 l 1,8,-1
 130 547 l 1,9,-1
 184 547 l 1,10,-1
 202 619 l 1,11,-1
 325 619 l 1,12,-1
 307 547 l 1,13,-1
 418 547 l 1,14,-1
 436 619 l 1,15,-1
 559 619 l 1,16,-1
 541 547 l 1,17,-1
 597 547 l 1,18,-1
 573 448 l 1,19,-1
 518 448 l 1,0,-1
377 375 m 1,20,-1
 395 448 l 1,21,-1
 284 448 l 1,22,-1
 266 375 l 1,23,-1
 377 375 l 1,20,-1
EndSplineSet
EndChar

StartChar: hbar
Encoding: 295 295 258
Width: 500
Flags: W
LayerCount: 2
Fore
SplineSet
204 615 m 1,0,-1
 219 673 l 1,1,-1
 346 694 l 1,2,-1
 327 615 l 1,3,-1
 455 615 l 1,4,-1
 435 532 l 1,5,-1
 307 532 l 1,6,-1
 291 466 l 1,7,8
 303 471 303 471 322 475 c 128,-1,9
 341 479 341 479 367 479 c 0,10,11
 401 479 401 479 425.5 468 c 128,-1,12
 450 457 450 457 466 438 c 128,-1,13
 482 419 482 419 489 393.5 c 128,-1,14
 496 368 496 368 496 338 c 0,15,16
 496 320 496 320 493.5 301.5 c 128,-1,17
 491 283 491 283 486 263 c 2,18,-1
 423 0 l 1,19,-1
 300 0 l 1,20,-1
 359 247 l 2,21,22
 362 260 362 260 365.5 277 c 128,-1,23
 369 294 369 294 369 312 c 0,24,25
 369 336 369 336 359.5 355 c 128,-1,26
 350 374 350 374 321 374 c 0,27,28
 307 374 307 374 295 372.5 c 128,-1,29
 283 371 283 371 269 369 c 1,30,-1
 180 0 l 1,31,-1
 57 0 l 1,32,-1
 185 532 l 1,33,-1
 130 532 l 1,34,-1
 150 615 l 1,35,-1
 204 615 l 1,0,-1
EndSplineSet
Substitution2: "'case' Case-Sensitive Forms lookup 18 subtable" Hbar
EndChar

StartChar: Iogonek
Encoding: 302 302 265
Width: 500
Flags: W
LayerCount: 2
Fore
SplineSet
272 -156 m 1,0,1
 255 -162 255 -162 232.5 -166 c 128,-1,2
 210 -170 210 -170 187 -170 c 0,3,4
 132 -170 132 -170 110 -154 c 128,-1,5
 88 -138 88 -138 88 -117 c 0,6,7
 88 -88 88 -88 109 -60.5 c 128,-1,8
 130 -33 130 -33 186 0 c 1,9,-1
 35 0 l 1,10,-1
 59 102 l 1,11,-1
 195 102 l 1,12,-1
 295 517 l 1,13,-1
 159 517 l 1,14,-1
 183 619 l 1,15,-1
 576 619 l 1,16,-1
 552 517 l 1,17,-1
 418 517 l 1,18,-1
 318 102 l 1,19,-1
 452 102 l 1,20,-1
 428 0 l 1,21,-1
 295 0 l 1,22,-1
 291 -3 l 2,23,24
 245 -35 245 -35 227.5 -55 c 128,-1,25
 210 -75 210 -75 210 -87 c 0,26,27
 210 -101 210 -101 232 -101 c 0,28,29
 245 -101 245 -101 259.5 -97.5 c 128,-1,30
 274 -94 274 -94 280 -92 c 1,31,-1
 272 -156 l 1,0,1
EndSplineSet
EndChar

StartChar: iogonek
Encoding: 303 303 266
Width: 500
Flags: W
LayerCount: 2
Fore
SplineSet
417 -156 m 1,0,1
 400 -162 400 -162 377.5 -166 c 128,-1,2
 355 -170 355 -170 332 -170 c 0,3,4
 277 -170 277 -170 255 -154 c 128,-1,5
 233 -138 233 -138 233 -117 c 0,6,7
 233 -91 233 -91 251 -65 c 128,-1,8
 269 -39 269 -39 315 -10 c 1,9,10
 251 -7 251 -7 220.5 27 c 128,-1,11
 190 61 190 61 190 121 c 0,12,13
 190 154 190 154 201 198 c 2,14,-1
 241 368 l 1,15,-1
 111 368 l 1,16,-1
 136 470 l 1,17,-1
 389 470 l 1,18,-1
 321 183 l 2,19,20
 315 162 315 162 315 146 c 0,21,22
 315 96 315 96 366 96 c 0,23,24
 383 96 383 96 406 99.5 c 128,-1,25
 429 103 429 103 457 113 c 1,26,-1
 459 13 l 1,27,-1
 436 -3 l 2,28,29
 390 -35 390 -35 372.5 -55 c 128,-1,30
 355 -75 355 -75 355 -87 c 0,31,32
 355 -101 355 -101 377 -101 c 0,33,34
 390 -101 390 -101 404.5 -97.5 c 128,-1,35
 419 -94 419 -94 425 -92 c 1,36,-1
 417 -156 l 1,0,1
332 527 m 0,37,38
 300 527 300 527 280.5 544 c 128,-1,39
 261 561 261 561 261 597 c 0,40,41
 261 616 261 616 268 632.5 c 128,-1,42
 275 649 275 649 286.5 660 c 128,-1,43
 298 671 298 671 313 677.5 c 128,-1,44
 328 684 328 684 344 684 c 0,45,46
 373 684 373 684 394.5 667 c 128,-1,47
 416 650 416 650 416 612 c 0,48,49
 416 594 416 594 408.5 578 c 128,-1,50
 401 562 401 562 389 551 c 128,-1,51
 377 540 377 540 362 533.5 c 128,-1,52
 347 527 347 527 332 527 c 0,37,38
EndSplineSet
Substitution2: "'case' Case-Sensitive Forms lookup 18 subtable" Iogonek
EndChar

StartChar: dotlessi
Encoding: 305 305 268
Width: 500
Flags: W
LayerCount: 2
Fore
SplineSet
459 13 m 1,0,1
 422 -1 422 -1 389.5 -6 c 128,-1,2
 357 -11 357 -11 329 -11 c 0,3,4
 258 -11 258 -11 224 23.5 c 128,-1,5
 190 58 190 58 190 121 c 0,6,7
 190 154 190 154 201 198 c 2,8,-1
 241 368 l 1,9,-1
 111 368 l 1,10,-1
 136 470 l 1,11,-1
 389 470 l 1,12,-1
 321 183 l 2,13,14
 315 162 315 162 315 146 c 0,15,16
 315 96 315 96 366 96 c 0,17,18
 383 96 383 96 406 99.5 c 128,-1,19
 429 103 429 103 457 113 c 1,20,-1
 459 13 l 1,0,1
EndSplineSet
EndChar

StartChar: IJ
Encoding: 306 306 270
Width: 500
Flags: W
LayerCount: 2
Fore
SplineSet
13 0 m 1,0,-1
 163 619 l 1,1,-1
 277 619 l 1,2,-1
 128 0 l 1,3,-1
 13 0 l 1,0,-1
504 207 m 2,4,5
 495 160 495 160 481 119.5 c 128,-1,6
 467 79 467 79 444 49.5 c 128,-1,7
 421 20 421 20 387.5 3.5 c 128,-1,8
 354 -13 354 -13 305 -13 c 256,9,10
 256 -13 256 -13 220 4.5 c 128,-1,11
 184 22 184 22 165 45 c 1,12,-1
 222 124 l 1,13,14
 236 109 236 109 257 97 c 128,-1,15
 278 85 278 85 297 85 c 256,16,17
 316 85 316 85 329.5 91 c 128,-1,18
 343 97 343 97 353.5 111 c 128,-1,19
 364 125 364 125 372 148 c 128,-1,20
 380 171 380 171 388 205 c 2,21,-1
 488 619 l 1,22,-1
 602 619 l 1,23,-1
 504 207 l 2,4,5
EndSplineSet
EndChar

StartChar: ij
Encoding: 307 307 271
Width: 500
Flags: W
LayerCount: 2
Fore
SplineSet
190 0 m 1,0,-1
 67 0 l 1,1,-1
 180 470 l 1,2,-1
 304 470 l 1,3,-1
 190 0 l 1,0,-1
265 527 m 0,4,5
 233 527 233 527 213 544 c 128,-1,6
 193 561 193 561 193 597 c 0,7,8
 193 616 193 616 200 632.5 c 128,-1,9
 207 649 207 649 218.5 660 c 128,-1,10
 230 671 230 671 245 677.5 c 128,-1,11
 260 684 260 684 276 684 c 0,12,13
 305 684 305 684 326.5 667 c 128,-1,14
 348 650 348 650 348 612 c 0,15,16
 348 594 348 594 340.5 578 c 128,-1,17
 333 562 333 562 321.5 551 c 128,-1,18
 310 540 310 540 295 533.5 c 128,-1,19
 280 527 280 527 265 527 c 0,4,5
221 -165 m 0,20,21
 196 -165 196 -165 176.5 -160.5 c 128,-1,22
 157 -156 157 -156 137 -148 c 1,23,-1
 171 -43 l 1,24,25
 184 -48 184 -48 195.5 -50.5 c 128,-1,26
 207 -53 207 -53 222 -53 c 0,27,28
 254 -53 254 -53 270.5 -34 c 128,-1,29
 287 -15 287 -15 295 21 c 2,30,-1
 403 470 l 1,31,-1
 527 470 l 1,32,-1
 418 17 l 2,33,34
 395 -75 395 -75 350 -120 c 128,-1,35
 305 -165 305 -165 221 -165 c 0,20,21
487 527 m 0,36,37
 455 527 455 527 435 544 c 128,-1,38
 415 561 415 561 415 597 c 0,39,40
 415 616 415 616 422 632.5 c 128,-1,41
 429 649 429 649 440.5 660 c 128,-1,42
 452 671 452 671 467 677.5 c 128,-1,43
 482 684 482 684 498 684 c 0,44,45
 528 684 528 684 549.5 667 c 128,-1,46
 571 650 571 650 571 612 c 0,47,48
 571 594 571 594 563.5 578 c 128,-1,49
 556 562 556 562 544 551 c 128,-1,50
 532 540 532 540 517 533.5 c 128,-1,51
 502 527 502 527 487 527 c 0,36,37
EndSplineSet
Substitution2: "'case' Case-Sensitive Forms lookup 18 subtable" IJ
EndChar

StartChar: kgreenlandic.case
Encoding: 65538 -1 276
Width: 500
Flags: W
LayerCount: 2
Fore
SplineSet
285 322 m 1,0,1
 308 289 308 289 324 255.5 c 128,-1,2
 340 222 340 222 351 184 c 128,-1,3
 362 146 362 146 368.5 101 c 128,-1,4
 375 56 375 56 379 0 c 1,5,-1
 255 0 l 1,6,7
 253 40 253 40 248 81 c 128,-1,8
 243 122 243 122 235 160 c 128,-1,9
 227 198 227 198 216.5 230.5 c 128,-1,10
 206 263 206 263 194 287 c 1,11,-1
 128 0 l 1,12,-1
 13 0 l 1,13,-1
 160 619 l 1,14,-1
 275 619 l 1,15,-1
 213 362 l 1,16,17
 237 390 237 390 261 423.5 c 128,-1,18
 285 457 285 457 307 491.5 c 128,-1,19
 329 526 329 526 348 559 c 128,-1,20
 367 592 367 592 381 619 c 1,21,-1
 505 619 l 1,22,23
 483 578 483 578 459.5 540.5 c 128,-1,24
 436 503 436 503 409 467 c 128,-1,25
 382 431 382 431 351.5 395 c 128,-1,26
 321 359 321 359 285 322 c 1,0,1
475 442 m 1,27,28
 477 456 477 456 479.5 470.5 c 128,-1,29
 482 485 482 485 486 498 c 0,30,31
 495 531 495 531 506 557 c 128,-1,32
 517 583 517 583 530.5 605 c 128,-1,33
 544 627 544 627 559.5 647.5 c 128,-1,34
 575 668 575 668 595 691 c 1,35,-1
 655 667 l 1,36,37
 625 618 625 618 609 577.5 c 128,-1,38
 593 537 593 537 581 490 c 0,39,40
 579 477 579 477 576 464 c 128,-1,41
 573 451 573 451 573 442 c 1,42,-1
 475 442 l 1,27,28
EndSplineSet
EndChar

StartChar: kgreenlandic
Encoding: 312 312 277
Width: 500
Flags: W
LayerCount: 2
Fore
SplineSet
567 470 m 1,0,1
 519 412 519 412 459 355.5 c 128,-1,2
 399 299 399 299 345 254 c 1,3,4
 363 232 363 232 381.5 200.5 c 128,-1,5
 400 169 400 169 418 134 c 128,-1,6
 436 99 436 99 451 64 c 128,-1,7
 466 29 466 29 476 0 c 1,8,-1
 343 0 l 1,9,10
 335 25 335 25 322 57 c 128,-1,11
 309 89 309 89 294 121 c 128,-1,12
 279 153 279 153 263 181 c 128,-1,13
 247 209 247 209 232 227 c 1,14,-1
 178 0 l 1,15,-1
 54 0 l 1,16,-1
 167 470 l 1,17,-1
 290 470 l 1,18,-1
 247 290 l 1,19,20
 265 305 265 305 289 327 c 128,-1,21
 313 349 313 349 338 373.5 c 128,-1,22
 363 398 363 398 386.5 423.5 c 128,-1,23
 410 449 410 449 427 470 c 1,24,-1
 567 470 l 1,0,1
EndSplineSet
Substitution2: "'case' Case-Sensitive Forms lookup 18 subtable" kgreenlandic.case
EndChar

StartChar: lacute
Encoding: 314 314 279
Width: 500
Flags: W
LayerCount: 2
Fore
SplineSet
455 20 m 1,0,1
 451 18 451 18 439.5 12.5 c 128,-1,2
 428 7 428 7 409 2 c 128,-1,3
 390 -3 390 -3 364.5 -7 c 128,-1,4
 339 -11 339 -11 308 -11 c 0,5,6
 240 -11 240 -11 206 24 c 128,-1,7
 172 59 172 59 172 122 c 0,8,9
 172 139 172 139 174.5 157.5 c 128,-1,10
 177 176 177 176 182 196 c 2,11,-1
 264 543 l 1,12,-1
 134 543 l 1,13,-1
 158 645 l 1,14,-1
 411 645 l 1,15,-1
 304 188 l 2,16,17
 302 178 302 178 299.5 166.5 c 128,-1,18
 297 155 297 155 297 146 c 0,19,20
 297 126 297 126 308 111 c 128,-1,21
 319 96 319 96 353 96 c 0,22,23
 367 96 367 96 381.5 98.5 c 128,-1,24
 396 101 396 101 409 105 c 128,-1,25
 422 109 422 109 432 112 c 128,-1,26
 442 115 442 115 447 117 c 1,27,-1
 455 20 l 1,0,1
488 738 m 1,28,-1
 285 678 l 1,29,-1
 269 736 l 1,30,-1
 463 830 l 1,31,-1
 488 738 l 1,28,-1
EndSplineSet
Substitution2: "'case' Case-Sensitive Forms lookup 18 subtable" Lacute
EndChar

StartChar: Lslash
Encoding: 321 321 286
Width: 500
Flags: W
LayerCount: 2
Fore
SplineSet
429 0 m 1,0,-1
 80 0 l 1,1,-1
 138 240 l 1,2,-1
 68 207 l 1,3,-1
 46 297 l 1,4,-1
 165 353 l 1,5,-1
 229 619 l 1,6,-1
 352 619 l 1,7,-1
 304 418 l 1,8,-1
 401 464 l 1,9,-1
 423 374 l 1,10,-1
 276 305 l 1,11,-1
 228 102 l 1,12,-1
 453 102 l 1,13,-1
 429 0 l 1,0,-1
EndSplineSet
EndChar

StartChar: lslash
Encoding: 322 322 287
Width: 500
Flags: W
LayerCount: 2
Fore
SplineSet
455 20 m 1,0,1
 451 18 451 18 439.5 12.5 c 128,-1,2
 428 7 428 7 409 2 c 128,-1,3
 390 -3 390 -3 364.5 -7 c 128,-1,4
 339 -11 339 -11 308 -11 c 0,5,6
 240 -11 240 -11 206 24 c 128,-1,7
 172 59 172 59 172 122 c 0,8,9
 172 139 172 139 174.5 157.5 c 128,-1,10
 177 176 177 176 182 196 c 2,11,-1
 206 298 l 1,12,-1
 145 271 l 1,13,-1
 125 354 l 1,14,-1
 231 400 l 1,15,-1
 275 586 l 1,16,-1
 145 586 l 1,17,-1
 169 688 l 1,18,-1
 422 688 l 1,19,-1
 369 462 l 1,20,-1
 440 494 l 1,21,-1
 461 412 l 1,22,-1
 344 359 l 1,23,-1
 304 188 l 2,24,25
 302 178 302 178 299.5 166.5 c 128,-1,26
 297 155 297 155 297 146 c 0,27,28
 297 126 297 126 308 111 c 128,-1,29
 319 96 319 96 353 96 c 0,30,31
 367 96 367 96 381.5 98.5 c 128,-1,32
 396 101 396 101 409 105 c 128,-1,33
 422 109 422 109 432 112 c 128,-1,34
 442 115 442 115 447 117 c 1,35,-1
 455 20 l 1,0,1
EndSplineSet
Substitution2: "'case' Case-Sensitive Forms lookup 18 subtable" Lslash
EndChar

StartChar: napostrophe.case
Encoding: 65539 -1 294
Width: 500
Flags: W
LayerCount: 2
Fore
SplineSet
352 0 m 1,0,-1
 333 384 l 1,1,-1
 244 0 l 1,2,-1
 156 0 l 1,3,-1
 304 619 l 1,4,-1
 386 619 l 1,5,6
 390 578 390 578 393.5 533 c 128,-1,7
 397 488 397 488 400 442 c 128,-1,8
 403 396 403 396 406 351 c 128,-1,9
 409 306 409 306 412 265 c 1,10,-1
 494 619 l 1,11,-1
 582 619 l 1,12,-1
 433 0 l 1,13,-1
 352 0 l 1,0,-1
289 693 m 1,14,-1
 282 664 l 2,15,16
 268 607 268 607 241 565.5 c 128,-1,17
 214 524 214 524 179 484 c 1,18,-1
 114 504 l 1,19,20
 143 544 143 544 159 579.5 c 128,-1,21
 175 615 175 615 184 653 c 0,22,23
 186 664 186 664 188.5 674.5 c 128,-1,24
 191 685 191 685 191 693 c 1,25,-1
 289 693 l 1,14,-1
EndSplineSet
EndChar

StartChar: Eng
Encoding: 330 330 296
Width: 500
Flags: W
LayerCount: 2
Fore
SplineSet
255 -167 m 0,0,1
 204 -167 204 -167 171 -149 c 1,2,-1
 207 -54 l 1,3,4
 218 -58 218 -58 228 -60 c 128,-1,5
 238 -62 238 -62 255 -62 c 0,6,7
 290 -62 290 -62 306 -43.5 c 128,-1,8
 322 -25 322 -25 330 7 c 2,9,-1
 334 21 l 1,10,11
 326 66 326 66 315.5 117.5 c 128,-1,12
 305 169 305 169 293 224 c 128,-1,13
 281 279 281 279 267.5 334.5 c 128,-1,14
 254 390 254 390 240 444 c 1,15,-1
 135 0 l 1,16,-1
 26 0 l 1,17,-1
 174 619 l 1,18,-1
 279 619 l 1,19,20
 293 575 293 575 308.5 523 c 128,-1,21
 324 471 324 471 337.5 418 c 128,-1,22
 351 365 351 365 362.5 313 c 128,-1,23
 374 261 374 261 381 218 c 1,24,-1
 476 619 l 1,25,-1
 585 619 l 1,26,-1
 441 19 l 2,27,28
 430 -27 430 -27 416 -62 c 128,-1,29
 402 -97 402 -97 380.5 -120 c 128,-1,30
 359 -143 359 -143 328.5 -155 c 128,-1,31
 298 -167 298 -167 255 -167 c 0,0,1
EndSplineSet
EndChar

StartChar: eng
Encoding: 331 331 297
Width: 500
Flags: W
LayerCount: 2
Fore
SplineSet
428 19 m 2,0,1
 417 -27 417 -27 404.5 -62 c 128,-1,2
 392 -97 392 -97 372 -120 c 128,-1,3
 352 -143 352 -143 322 -155 c 128,-1,4
 292 -167 292 -167 245 -167 c 0,5,6
 226 -167 226 -167 204.5 -162 c 128,-1,7
 183 -157 183 -157 168 -150 c 1,8,-1
 203 -52 l 1,9,10
 214 -56 214 -56 222 -58 c 128,-1,11
 230 -60 230 -60 245 -60 c 0,12,13
 274 -60 274 -60 285.5 -36.5 c 128,-1,14
 297 -13 297 -13 305 19 c 2,15,-1
 360 249 l 2,16,17
 363 265 363 265 367 282 c 128,-1,18
 371 299 371 299 371 316 c 0,19,20
 371 339 371 339 358.5 356.5 c 128,-1,21
 346 374 346 374 313 374 c 0,22,23
 299 374 299 374 284.5 372.5 c 128,-1,24
 270 371 270 371 255 369 c 1,25,-1
 167 0 l 1,26,-1
 44 0 l 1,27,-1
 153 455 l 1,28,29
 188 464 188 464 230.5 472 c 128,-1,30
 273 480 273 480 330 480 c 0,31,32
 415 480 415 480 456 444.5 c 128,-1,33
 497 409 497 409 497 344 c 0,34,35
 497 327 497 327 494.5 307 c 128,-1,36
 492 287 492 287 487 265 c 2,37,-1
 428 19 l 2,0,1
EndSplineSet
Substitution2: "'case' Case-Sensitive Forms lookup 18 subtable" Eng
EndChar

StartChar: Scedilla
Encoding: 350 350 314
Width: 500
Flags: W
LayerCount: 2
Fore
SplineSet
249 -25 m 1,0,1
 271 -36 271 -36 280 -51 c 128,-1,2
 289 -66 289 -66 289 -84 c 0,3,4
 289 -125 289 -125 254.5 -147.5 c 128,-1,5
 220 -170 220 -170 166 -170 c 0,6,7
 118 -170 118 -170 80 -150 c 1,8,-1
 106 -92 l 1,9,10
 117 -98 117 -98 131.5 -101.5 c 128,-1,11
 146 -105 146 -105 160 -105 c 0,12,13
 183 -105 183 -105 190.5 -96 c 128,-1,14
 198 -87 198 -87 198 -80 c 0,15,16
 198 -69 198 -69 192.5 -61.5 c 128,-1,17
 187 -54 187 -54 172 -49 c 2,18,-1
 154 -43 l 1,19,20
 160 -33 160 -33 165 -25.5 c 128,-1,21
 170 -18 170 -18 175 -10 c 1,22,23
 117 -4 117 -4 82.5 12.5 c 128,-1,24
 48 29 48 29 31 41 c 1,25,-1
 84 135 l 1,26,27
 94 129 94 129 109.5 121 c 128,-1,28
 125 113 125 113 144.5 106 c 128,-1,29
 164 99 164 99 187 94.5 c 128,-1,30
 210 90 210 90 236 90 c 0,31,32
 259 90 259 90 280 94.5 c 128,-1,33
 301 99 301 99 316.5 109.5 c 128,-1,34
 332 120 332 120 341.5 136 c 128,-1,35
 351 152 351 152 351 176 c 0,36,37
 351 194 351 194 343.5 208.5 c 128,-1,38
 336 223 336 223 323 235 c 128,-1,39
 310 247 310 247 292.5 257 c 128,-1,40
 275 267 275 267 255 277 c 0,41,42
 230 290 230 290 208.5 303 c 128,-1,43
 187 316 187 316 171.5 334 c 128,-1,44
 156 352 156 352 147 377 c 128,-1,45
 138 402 138 402 138 438 c 0,46,47
 138 526 138 526 197.5 579.5 c 128,-1,48
 257 633 257 633 367 633 c 0,49,50
 403 633 403 633 431.5 628 c 128,-1,51
 460 623 460 623 482 616 c 128,-1,52
 504 609 504 609 519.5 601 c 128,-1,53
 535 593 535 593 545 587 c 1,54,-1
 493 492 l 1,55,56
 470 508 470 508 435 519 c 128,-1,57
 400 530 400 530 351 530 c 0,58,59
 313 530 313 530 286.5 513 c 128,-1,60
 260 496 260 496 260 454 c 0,61,62
 260 420 260 420 282.5 402.5 c 128,-1,63
 305 385 305 385 337 371 c 0,64,65
 367 357 367 357 392 342 c 128,-1,66
 417 327 417 327 435 307 c 128,-1,67
 453 287 453 287 463.5 260 c 128,-1,68
 474 233 474 233 474 196 c 0,69,70
 474 102 474 102 417.5 49 c 128,-1,71
 361 -4 361 -4 257 -12 c 1,72,-1
 249 -25 l 1,0,1
EndSplineSet
EndChar

StartChar: scedilla
Encoding: 351 351 315
Width: 500
Flags: W
LayerCount: 2
Fore
SplineSet
258 -25 m 1,0,1
 280 -36 280 -36 289 -51 c 128,-1,2
 298 -66 298 -66 298 -84 c 0,3,4
 298 -125 298 -125 263.5 -147.5 c 128,-1,5
 229 -170 229 -170 175 -170 c 0,6,7
 127 -170 127 -170 89 -150 c 1,8,-1
 115 -92 l 1,9,10
 126 -98 126 -98 140.5 -101.5 c 128,-1,11
 155 -105 155 -105 169 -105 c 0,12,13
 192 -105 192 -105 199.5 -96 c 128,-1,14
 207 -87 207 -87 207 -80 c 0,15,16
 207 -69 207 -69 201.5 -61.5 c 128,-1,17
 196 -54 196 -54 181 -49 c 2,18,-1
 163 -43 l 1,19,20
 169 -33 169 -33 174.5 -25.5 c 128,-1,21
 180 -18 180 -18 185 -10 c 1,22,23
 128 -4 128 -4 96 9.5 c 128,-1,24
 64 23 64 23 49 31 c 1,25,-1
 95 128 l 1,26,27
 115 117 115 117 150 104 c 128,-1,28
 185 91 185 91 234 91 c 0,29,30
 287 91 287 91 307 105 c 128,-1,31
 327 119 327 119 327 138 c 0,32,33
 327 147 327 147 323.5 154 c 128,-1,34
 320 161 320 161 311.5 167.5 c 128,-1,35
 303 174 303 174 288 180.5 c 128,-1,36
 273 187 273 187 250 196 c 0,37,38
 222 206 222 206 201 217 c 128,-1,39
 180 228 180 228 166 242.5 c 128,-1,40
 152 257 152 257 145 276 c 128,-1,41
 138 295 138 295 138 321 c 0,42,43
 138 394 138 394 189.5 438 c 128,-1,44
 241 482 241 482 344 482 c 0,45,46
 395 482 395 482 437.5 473 c 128,-1,47
 480 464 480 464 505 452 c 1,48,-1
 460 355 l 1,49,50
 437 366 437 366 407.5 373 c 128,-1,51
 378 380 378 380 333 380 c 0,52,53
 323 380 323 380 310.5 378.5 c 128,-1,54
 298 377 298 377 287 372 c 128,-1,55
 276 367 276 367 268.5 358.5 c 128,-1,56
 261 350 261 350 261 337 c 0,57,58
 261 328 261 328 263.5 321.5 c 128,-1,59
 266 315 266 315 274 308.5 c 128,-1,60
 282 302 282 302 297 295 c 128,-1,61
 312 288 312 288 337 279 c 0,62,63
 367 267 367 267 388.5 255 c 128,-1,64
 410 243 410 243 424.5 228 c 128,-1,65
 439 213 439 213 445.5 193 c 128,-1,66
 452 173 452 173 452 145 c 0,67,68
 452 118 452 118 441.5 91.5 c 128,-1,69
 431 65 431 65 408.5 43 c 128,-1,70
 386 21 386 21 350.5 6.5 c 128,-1,71
 315 -8 315 -8 266 -12 c 1,72,-1
 258 -25 l 1,0,1
EndSplineSet
Substitution2: "'case' Case-Sensitive Forms lookup 18 subtable" Scedilla
EndChar

StartChar: uni0162
Encoding: 354 354 316
Width: 500
Flags: W
LayerCount: 2
Fore
SplineSet
259 -25 m 1,0,1
 281 -36 281 -36 290 -51 c 128,-1,2
 299 -66 299 -66 299 -84 c 0,3,4
 299 -125 299 -125 264.5 -147.5 c 128,-1,5
 230 -170 230 -170 176 -170 c 0,6,7
 128 -170 128 -170 90 -150 c 1,8,-1
 116 -92 l 1,9,10
 127 -98 127 -98 141.5 -101.5 c 128,-1,11
 156 -105 156 -105 170 -105 c 0,12,13
 193 -105 193 -105 200.5 -96 c 128,-1,14
 208 -87 208 -87 208 -80 c 0,15,16
 208 -69 208 -69 202.5 -61.5 c 128,-1,17
 197 -54 197 -54 182 -49 c 2,18,-1
 164 -43 l 1,19,-1
 193 0 l 1,20,-1
 168 0 l 1,21,-1
 292 517 l 1,22,-1
 129 517 l 1,23,-1
 153 619 l 1,24,-1
 603 619 l 1,25,-1
 579 517 l 1,26,-1
 415 517 l 1,27,-1
 291 0 l 1,28,-1
 276 0 l 1,29,-1
 259 -25 l 1,0,1
EndSplineSet
EndChar

StartChar: uni0163
Encoding: 355 355 317
Width: 500
Flags: W
LayerCount: 2
Fore
SplineSet
322 -25 m 1,0,1
 344 -36 344 -36 353 -51 c 128,-1,2
 362 -66 362 -66 362 -84 c 0,3,4
 362 -125 362 -125 327.5 -147.5 c 128,-1,5
 293 -170 293 -170 239 -170 c 0,6,7
 191 -170 191 -170 153 -150 c 1,8,-1
 179 -92 l 1,9,10
 190 -98 190 -98 204.5 -101.5 c 128,-1,11
 219 -105 219 -105 233 -105 c 0,12,13
 256 -105 256 -105 263.5 -96 c 128,-1,14
 271 -87 271 -87 271 -80 c 0,15,16
 271 -69 271 -69 265.5 -61.5 c 128,-1,17
 260 -54 260 -54 245 -49 c 2,18,-1
 227 -43 l 1,19,20
 234 -32 234 -32 239.5 -23.5 c 128,-1,21
 245 -15 245 -15 251 -7 c 1,22,23
 195 2 195 2 167.5 35.5 c 128,-1,24
 140 69 140 69 140 124 c 0,25,26
 140 140 140 140 142 156.5 c 128,-1,27
 144 173 144 173 149 192 c 2,28,-1
 191 368 l 1,29,-1
 97 368 l 1,30,-1
 122 470 l 1,31,-1
 215 470 l 1,32,-1
 243 588 l 1,33,-1
 372 608 l 1,34,-1
 338 470 l 1,35,-1
 517 470 l 1,36,-1
 492 368 l 1,37,-1
 314 368 l 1,38,-1
 270 185 l 2,39,40
 265 160 265 160 265 146 c 0,41,42
 265 116 265 116 285.5 106 c 128,-1,43
 306 96 306 96 332 96 c 0,44,45
 359 96 359 96 387.5 102.5 c 128,-1,46
 416 109 416 109 443 120 c 1,47,-1
 442 17 l 1,48,49
 393 -4 393 -4 332 -9 c 1,50,-1
 322 -25 l 1,0,1
EndSplineSet
Substitution2: "'case' Case-Sensitive Forms lookup 18 subtable" uni0162
EndChar

StartChar: Tbar
Encoding: 358 358 320
Width: 500
Flags: W
LayerCount: 2
Fore
SplineSet
603 619 m 1,0,-1
 579 517 l 1,1,-1
 415 517 l 1,2,-1
 371 337 l 1,3,-1
 481 337 l 1,4,-1
 457 238 l 1,5,-1
 348 238 l 1,6,-1
 291 0 l 1,7,-1
 168 0 l 1,8,-1
 225 238 l 1,9,-1
 119 238 l 1,10,-1
 143 337 l 1,11,-1
 248 337 l 1,12,-1
 292 517 l 1,13,-1
 129 517 l 1,14,-1
 153 619 l 1,15,-1
 603 619 l 1,0,-1
EndSplineSet
EndChar

StartChar: tbar
Encoding: 359 359 321
Width: 500
Flags: W
LayerCount: 2
Fore
SplineSet
164 204 m 1,0,-1
 71 204 l 1,1,-1
 90 287 l 1,2,-1
 184 287 l 1,3,-1
 204 368 l 1,4,-1
 110 368 l 1,5,-1
 135 470 l 1,6,-1
 228 470 l 1,7,-1
 256 588 l 1,8,-1
 385 608 l 1,9,-1
 351 470 l 1,10,-1
 530 470 l 1,11,-1
 505 368 l 1,12,-1
 327 368 l 1,13,-1
 307 287 l 1,14,-1
 497 287 l 1,15,-1
 477 204 l 1,16,-1
 288 204 l 1,17,-1
 283 185 l 2,18,19
 278 160 278 160 278 146 c 0,20,21
 278 116 278 116 298.5 106 c 128,-1,22
 319 96 319 96 345 96 c 0,23,24
 372 96 372 96 400.5 102.5 c 128,-1,25
 429 109 429 109 456 120 c 1,26,-1
 455 17 l 1,27,28
 424 3 424 3 386.5 -4 c 128,-1,29
 349 -11 349 -11 312 -11 c 0,30,31
 232 -11 232 -11 192.5 23.5 c 128,-1,32
 153 58 153 58 153 124 c 0,33,34
 153 140 153 140 155 156.5 c 128,-1,35
 157 173 157 173 162 192 c 2,36,-1
 164 204 l 1,0,-1
EndSplineSet
Substitution2: "'case' Case-Sensitive Forms lookup 18 subtable" Tbar
EndChar

StartChar: Uring
Encoding: 366 366 328
Width: 500
Flags: W
LayerCount: 2
Fore
SplineSet
237 -13 m 0,0,1
 149 -13 149 -13 108 29 c 128,-1,2
 67 71 67 71 67 146 c 0,3,4
 67 187 67 187 79 238 c 2,5,-1
 166 599 l 1,6,-1
 289 599 l 1,7,-1
 203 239 l 2,8,9
 198 216 198 216 194 195.5 c 128,-1,10
 190 175 190 175 190 158 c 0,11,12
 190 128 190 128 204 111 c 128,-1,13
 218 94 218 94 255 94 c 0,14,15
 277 94 277 94 293 100.5 c 128,-1,16
 309 107 309 107 321 122.5 c 128,-1,17
 333 138 333 138 342.5 164 c 128,-1,18
 352 190 352 190 361 229 c 2,19,-1
 450 599 l 1,20,-1
 573 599 l 1,21,-1
 482 220 l 2,22,23
 469 165 469 165 452.5 122 c 128,-1,24
 436 79 436 79 409 49 c 128,-1,25
 382 19 382 19 340.5 3 c 128,-1,26
 299 -13 299 -13 237 -13 c 0,0,1
486 723 m 0,27,28
 486 673 486 673 454.5 647 c 128,-1,29
 423 621 423 621 380 621 c 0,30,31
 360 621 360 621 341 627.5 c 128,-1,32
 322 634 322 634 307.5 647 c 128,-1,33
 293 660 293 660 284.5 679 c 128,-1,34
 276 698 276 698 276 723 c 256,35,36
 276 748 276 748 284.5 767.5 c 128,-1,37
 293 787 293 787 307.5 800 c 128,-1,38
 322 813 322 813 341 819.5 c 128,-1,39
 360 826 360 826 380 826 c 0,40,41
 423 826 423 826 454.5 800 c 128,-1,42
 486 774 486 774 486 723 c 0,27,28
421 723 m 0,43,44
 421 744 421 744 409 754.5 c 128,-1,45
 397 765 397 765 380 765 c 0,46,47
 365 765 365 765 352.5 754.5 c 128,-1,48
 340 744 340 744 340 723 c 0,49,50
 340 703 340 703 352.5 692 c 128,-1,51
 365 681 365 681 380 681 c 0,52,53
 397 681 397 681 409 692 c 128,-1,54
 421 703 421 703 421 723 c 0,43,44
EndSplineSet
EndChar

StartChar: Uogonek
Encoding: 370 370 332
Width: 500
Flags: W
LayerCount: 2
Fore
SplineSet
320 -156 m 1,0,1
 303 -162 303 -162 280.5 -166 c 128,-1,2
 258 -170 258 -170 235 -170 c 0,3,4
 180 -170 180 -170 158 -154 c 128,-1,5
 136 -138 136 -138 136 -117 c 0,6,7
 136 -91 136 -91 153 -66 c 128,-1,8
 170 -41 170 -41 215 -12 c 1,9,10
 139 -7 139 -7 103 34 c 128,-1,11
 67 75 67 75 67 146 c 0,12,13
 67 187 67 187 79 238 c 2,14,-1
 171 619 l 1,15,-1
 294 619 l 1,16,-1
 203 239 l 2,17,18
 198 216 198 216 194 195.5 c 128,-1,19
 190 175 190 175 190 158 c 0,20,21
 190 128 190 128 204 111 c 128,-1,22
 218 94 218 94 255 94 c 0,23,24
 277 94 277 94 293 100.5 c 128,-1,25
 309 107 309 107 321 122.5 c 128,-1,26
 333 138 333 138 342.5 164 c 128,-1,27
 352 190 352 190 361 229 c 2,28,-1
 455 619 l 1,29,-1
 578 619 l 1,30,-1
 482 220 l 2,31,32
 473 182 473 182 463.5 151.5 c 128,-1,33
 454 121 454 121 439 94.5 c 128,-1,34
 424 68 424 68 400 44.5 c 128,-1,35
 376 21 376 21 339 -3 c 0,36,37
 292 -32 292 -32 275 -54 c 128,-1,38
 258 -76 258 -76 258 -87 c 0,39,40
 258 -101 258 -101 280 -101 c 0,41,42
 293 -101 293 -101 307.5 -97.5 c 128,-1,43
 322 -94 322 -94 328 -92 c 1,44,-1
 320 -156 l 1,0,1
EndSplineSet
EndChar

StartChar: uogonek
Encoding: 371 371 333
Width: 500
Flags: W
LayerCount: 2
Fore
SplineSet
432 -156 m 1,0,1
 415 -162 415 -162 392.5 -166 c 128,-1,2
 370 -170 370 -170 347 -170 c 0,3,4
 292 -170 292 -170 270 -154 c 128,-1,5
 248 -138 248 -138 248 -117 c 0,6,7
 248 -88 248 -88 271 -59 c 128,-1,8
 294 -30 294 -30 355 5 c 1,9,10
 351 13 351 13 347.5 22.5 c 128,-1,11
 344 32 344 32 343 36 c 1,12,13
 323 21 323 21 291 5 c 128,-1,14
 259 -11 259 -11 221 -11 c 0,15,16
 140 -11 140 -11 108 27 c 128,-1,17
 76 65 76 65 76 131 c 0,18,19
 76 177 76 177 90 238 c 2,20,-1
 146 470 l 1,21,-1
 269 470 l 1,22,-1
 216 246 l 2,23,24
 208 216 208 216 204 191.5 c 128,-1,25
 200 167 200 167 200 148 c 0,26,27
 200 96 200 96 250 96 c 0,28,29
 278 96 278 96 294.5 107.5 c 128,-1,30
 311 119 311 119 326 136 c 1,31,32
 328 150 328 150 329.5 163 c 128,-1,33
 331 176 331 176 336 193 c 2,34,-1
 402 470 l 1,35,-1
 525 470 l 1,36,-1
 458 192 l 2,37,38
 454 174 454 174 451.5 156.5 c 128,-1,39
 449 139 449 139 449 121 c 0,40,41
 449 92 449 92 455 64.5 c 128,-1,42
 461 37 461 37 470 10 c 1,43,-1
 451 -3 l 2,44,45
 405 -35 405 -35 387.5 -55 c 128,-1,46
 370 -75 370 -75 370 -87 c 0,47,48
 370 -101 370 -101 392 -101 c 0,49,50
 405 -101 405 -101 419.5 -97.5 c 128,-1,51
 434 -94 434 -94 440 -92 c 1,52,-1
 432 -156 l 1,0,1
EndSplineSet
Substitution2: "'case' Case-Sensitive Forms lookup 18 subtable" Uogonek
EndChar

StartChar: longs
Encoding: 383 383 344
Width: 500
Flags: W
LayerCount: 2
Fore
SplineSet
278 26 m 2,0,1
 259 -68 259 -68 206 -118 c 128,-1,2
 153 -168 153 -168 65 -168 c 0,3,4
 35 -168 35 -168 10 -162.5 c 128,-1,5
 -15 -157 -15 -157 -35 -148 c 1,6,-1
 -1 -44 l 1,7,8
 12 -49 12 -49 27.5 -52.5 c 128,-1,9
 43 -56 43 -56 63 -56 c 0,10,11
 85 -56 85 -56 101 -49 c 128,-1,12
 117 -42 117 -42 127.5 -30.5 c 128,-1,13
 138 -19 138 -19 144.5 -3.5 c 128,-1,14
 151 12 151 12 154 30 c 2,15,-1
 248 497 l 2,16,17
 260 554 260 554 281.5 591.5 c 128,-1,18
 303 629 303 629 332.5 651.5 c 128,-1,19
 362 674 362 674 398 683.5 c 128,-1,20
 434 693 434 693 474 693 c 0,21,22
 513 693 513 693 546.5 685.5 c 128,-1,23
 580 678 580 678 605 666 c 1,24,-1
 563 566 l 1,25,26
 542 576 542 576 520.5 582 c 128,-1,27
 499 588 499 588 472 588 c 0,28,29
 454 588 454 588 438.5 585.5 c 128,-1,30
 423 583 423 583 410 573.5 c 128,-1,31
 397 564 397 564 387 546 c 128,-1,32
 377 528 377 528 371 497 c 2,33,-1
 278 26 l 2,0,1
EndSplineSet
Substitution2: "'case' Case-Sensitive Forms lookup 17 subtable" S
EndChar

StartChar: dotlessj
Encoding: 567 567 349
Width: 500
Flags: W
LayerCount: 2
Fore
SplineSet
367 25 m 2,0,1
 353 -32 353 -32 333.5 -70 c 128,-1,2
 314 -108 314 -108 288 -130 c 128,-1,3
 262 -152 262 -152 229 -161 c 128,-1,4
 196 -170 196 -170 155 -170 c 0,5,6
 104 -170 104 -170 62 -157.5 c 128,-1,7
 20 -145 20 -145 -6 -125 c 1,8,-1
 42 -26 l 1,9,10
 64 -40 64 -40 89 -51 c 128,-1,11
 114 -62 114 -62 146 -62 c 0,12,13
 184 -62 184 -62 208 -43.5 c 128,-1,14
 232 -25 232 -25 244 25 c 2,15,-1
 326 368 l 1,16,-1
 136 368 l 1,17,-1
 161 470 l 1,18,-1
 474 470 l 1,19,-1
 367 25 l 2,0,1
EndSplineSet
Substitution2: "'case' Case-Sensitive Forms lookup 17 subtable" J
EndChar

